<svg width="1032" height="379" fill="none" xmlns="http://www.w3.org/2000/svg"><g clip-path="url('#clip0_179_4')"><mask id="path-1-outside-1_179_4" maskUnits="userSpaceOnUse" x="225" y="112" width="584" height="181" fill="#000"><path fill="#fff" d="M225 112h584v181H225z"/><path d="M282.598 288.63c-8.8 0-17.27-1.32-25.41-3.96-8.14-2.86-14.74-6.93-19.8-12.21-5.06-5.28-7.59-11.66-7.59-19.14 0-4.84 1.32-8.69 3.96-11.55 2.86-3.08 6.27-4.62 10.23-4.62 4.4 0 7.7 1.43 9.9 4.29 2.42 2.86 3.63 6.05 3.63 9.57 0 1.54-.22 3.19-.66 4.95-.44 1.76-1.21 3.52-2.31 5.28 1.76 4.84 5.28 8.58 10.56 11.22 5.28 2.64 10.89 3.96 16.83 3.96 11.88 0 20.79-2.75 26.73-8.25 5.94-5.5 8.91-13.2 8.91-23.1 0-5.94-2.09-11.22-6.27-15.84-4.18-4.62-9.46-8.91-15.84-12.87-6.38-4.18-12.98-8.25-19.8-12.21-6.38-3.96-12.54-8.03-18.48-12.21-5.72-4.18-10.45-8.8-14.19-13.86-3.52-5.06-5.28-10.78-5.28-17.16 0-8.14 2.42-15.51 7.26-22.11 4.84-6.82 11.55-12.21 20.13-16.17 8.58-4.18 18.48-6.27 29.7-6.27 8.36 0 16.17 1.32 23.43 3.96 7.48 2.64 13.53 6.38 18.15 11.22 4.84 4.84 7.26 10.56 7.26 17.16 0 4.62-1.32 8.36-3.96 11.22-2.64 2.64-5.94 3.96-9.9 3.96s-7.15-1.32-9.57-3.96c-2.42-2.64-3.63-5.72-3.63-9.24 0-1.76.22-3.41.66-4.95.44-1.76 1.21-3.52 2.31-5.28-1.1-3.74-3.85-6.82-8.25-9.24-4.18-2.64-10.01-3.96-17.49-3.96-4.84 0-9.57 1.1-14.19 3.3-4.62 2.2-8.47 5.28-11.55 9.24-3.08 3.74-4.62 8.25-4.62 13.53 0 4.18 1.21 8.03 3.63 11.55 2.64 3.52 6.05 6.82 10.23 9.9 4.18 3.08 8.69 6.16 13.53 9.24 7.92 4.62 16.06 9.57 24.42 14.85 8.36 5.06 15.29 10.89 20.79 17.49 5.72 6.6 8.58 14.63 8.58 24.09 0 9.24-2.64 17.49-7.92 24.75-5.06 7.26-12.32 12.98-21.78 17.16-9.24 4.18-20.02 6.27-32.34 6.27ZM396.69 172.58c5.28 0 10.267.807 14.96 2.42 4.694 1.613 8.507 4.253 11.44 7.92 2.934 3.667 4.4 8.653 4.4 14.96 0 6.013-2.053 11.22-6.16 15.62-4.106 4.4-9.46 8.067-16.06 11-6.6 2.787-13.64 5.06-21.12 6.82-7.48 1.76-14.666 3.007-21.56 3.74 0 9.093.88 16.72 2.64 22.88 1.907 6.16 4.694 10.78 8.36 13.86 3.667 3.08 8.36 4.62 14.08 4.62 4.254 0 8.507-.953 12.76-2.86 4.4-1.907 8.58-4.767 12.54-8.58 3.96-3.96 7.554-9.02 10.78-15.18l7.26 4.18c-4.106 7.627-8.506 13.933-13.2 18.92-4.693 4.987-9.826 8.653-15.4 11-5.573 2.347-11.733 3.52-18.48 3.52-13.933 0-24.2-4.327-30.8-12.98-6.6-8.8-9.9-20.313-9.9-34.54 0-8.507 1.1-16.793 3.3-24.86 2.2-8.067 5.5-15.253 9.9-21.56 4.4-6.453 9.974-11.513 16.72-15.18 6.747-3.813 14.594-5.72 23.54-5.72Zm-3.08 7.48c-6.746 0-12.32 2.273-16.72 6.82-4.253 4.547-7.553 10.413-9.9 17.6-2.2 7.187-3.593 14.74-4.18 22.66 7.774-1.027 15.18-2.86 22.22-5.5 7.04-2.64 12.834-6.013 17.38-10.12 4.547-4.253 6.82-9.167 6.82-14.74 0-4.693-1.32-8.653-3.96-11.88-2.493-3.227-6.38-4.84-11.66-4.84ZM444.114 285c-.147-1.027-.22-1.907-.22-2.64v-3.08c0-2.493.073-5.427.22-8.8.147-3.52.44-8.14.88-13.86.587-5.72 1.393-13.2 2.42-22.44 1.027-9.533 1.833-16.72 2.42-21.56s1.027-8.36 1.32-10.56c.293-2.347.44-4.253.44-5.72a33.358 33.358 0 0 0-.66-8.58c-.44-2.787-2.2-4.18-5.28-4.18-2.347 0-5.06 1.613-8.14 4.84-3.08 3.227-5.72 8.727-7.92 16.5l-6.16-1.32c.44-2.64 1.32-5.647 2.64-9.02 1.467-3.52 3.373-6.967 5.72-10.34 2.347-3.373 5.207-6.16 8.58-8.36 3.374-2.2 7.26-3.3 11.66-3.3 6.6 0 11 2.273 13.2 6.82 2.2 4.547 3.154 10.633 2.86 18.26-.147 3.227-.586 6.82-1.32 10.78a685.646 685.646 0 0 1-1.98 12.1h.66c4.254-12.76 8.654-22.587 13.2-29.48 4.694-6.893 9.387-11.66 14.08-14.3 4.84-2.787 9.607-4.18 14.3-4.18 4.4 0 8.067 1.173 11 3.52 2.934 2.2 4.4 5.28 4.4 9.24 0 2.64-.953 5.06-2.86 7.26-1.76 2.2-4.18 3.3-7.26 3.3-2.64 0-4.913-.807-6.82-2.42-1.906-1.613-3.006-3.887-3.3-6.82-4.106-.88-8.14.44-12.1 3.96-3.813 3.52-7.48 8.58-11 15.18-3.373 6.453-6.38 13.713-9.02 21.78a201.062 201.062 0 0 0-5.94 24.64c-1.466 8.36-2.2 16.133-2.2 23.32v5.06c.147 1.027.294 2.493.44 4.4h-18.26Zm120.189-112.42c5.28 0 10.267.807 14.96 2.42 4.693 1.613 8.507 4.253 11.44 7.92s4.4 8.653 4.4 14.96c0 6.013-2.053 11.22-6.16 15.62-4.107 4.4-9.46 8.067-16.06 11-6.6 2.787-13.64 5.06-21.12 6.82-7.48 1.76-14.667 3.007-21.56 3.74 0 9.093.88 16.72 2.64 22.88 1.907 6.16 4.693 10.78 8.36 13.86s8.36 4.62 14.08 4.62c4.253 0 8.507-.953 12.76-2.86 4.4-1.907 8.58-4.767 12.54-8.58 3.96-3.96 7.553-9.02 10.78-15.18l7.26 4.18c-4.107 7.627-8.507 13.933-13.2 18.92-4.693 4.987-9.827 8.653-15.4 11-5.573 2.347-11.733 3.52-18.48 3.52-13.933 0-24.2-4.327-30.8-12.98-6.6-8.8-9.9-20.313-9.9-34.54 0-8.507 1.1-16.793 3.3-24.86 2.2-8.067 5.5-15.253 9.9-21.56 4.4-6.453 9.973-11.513 16.72-15.18 6.747-3.813 14.593-5.72 23.54-5.72Zm-3.08 7.48c-6.747 0-12.32 2.273-16.72 6.82-4.253 4.547-7.553 10.413-9.9 17.6-2.2 7.187-3.593 14.74-4.18 22.66 7.773-1.027 15.18-2.86 22.22-5.5 7.04-2.64 12.833-6.013 17.38-10.12 4.547-4.253 6.82-9.167 6.82-14.74 0-4.693-1.32-8.653-3.96-11.88-2.493-3.227-6.38-4.84-11.66-4.84Zm132.344 107.36c-6.894 0-11.587-1.833-14.08-5.5-2.494-3.667-3.74-8.873-3.74-15.62 0-4.107.293-8.947.88-14.52.733-5.573 1.54-11.513 2.42-17.82a273.446 273.446 0 0 0 2.42-19.14c.733-6.453 1.1-12.613 1.1-18.48 0-1.76-.294-3.667-.88-5.72-.44-2.053-1.394-3.813-2.86-5.28-1.467-1.613-3.667-2.42-6.6-2.42-4.107 0-8.214 1.907-12.32 5.72-4.107 3.813-7.994 8.947-11.66 15.4-3.667 6.453-6.967 13.64-9.9 21.56-2.934 7.773-5.28 15.84-7.04 24.2-1.614 8.213-2.42 16.06-2.42 23.54v6.16c.146 1.76.293 3.593.44 5.5h-18.48c-.147-1.027-.22-1.907-.22-2.64v-3.08c0-2.493.146-5.353.44-8.58.293-3.373.733-7.773 1.32-13.2.733-5.573 1.613-12.98 2.64-22.22 1.026-8.653 1.76-15.4 2.2-20.24.586-4.84 1.026-8.507 1.32-11 .293-2.64.44-4.62.44-5.94a46.68 46.68 0 0 0 .22-4.62c0-2.64-.367-4.913-1.1-6.82-.734-2.053-2.347-3.08-4.84-3.08-2.347 0-5.06 1.613-8.14 4.84-3.08 3.227-5.72 8.727-7.92 16.5l-6.16-1.32c.44-2.64 1.32-5.647 2.64-9.02 1.466-3.52 3.373-6.967 5.72-10.34 2.346-3.373 5.206-6.16 8.58-8.36 3.373-2.2 7.26-3.3 11.66-3.3 4.986 0 8.653 1.393 11 4.18 2.493 2.64 4.033 6.087 4.62 10.34.733 4.253.953 8.8.66 13.64a101.166 101.166 0 0 1-1.54 11.88c-.587 3.813-1.174 7.187-1.76 10.12h.66c4.986-13.347 9.9-23.613 14.74-30.8 4.84-7.333 9.606-12.393 14.3-15.18 4.84-2.787 9.606-4.18 14.3-4.18 5.866 0 10.56 1.32 14.08 3.96 3.52 2.64 6.013 6.16 7.48 10.56 1.613 4.253 2.42 8.947 2.42 14.08 0 8.067-.587 16.353-1.76 24.86-1.027 8.36-2.127 16.133-3.3 23.32-1.027 7.04-1.54 12.687-1.54 16.94 0 2.64.293 4.987.88 7.04.733 2.053 2.42 3.08 5.06 3.08 2.493 0 5.206-1.54 8.14-4.62 3.08-3.227 5.72-8.8 7.92-16.72l6.16 1.54c-.44 2.493-1.394 5.5-2.86 9.02-1.32 3.52-3.154 6.967-5.5 10.34a32.4 32.4 0 0 1-8.58 8.14c-3.374 2.2-7.26 3.3-11.66 3.3Zm75.731-114.84c5.28 0 10.267.807 14.96 2.42 4.694 1.613 8.507 4.253 11.44 7.92 2.934 3.667 4.4 8.653 4.4 14.96 0 6.013-2.053 11.22-6.16 15.62-4.106 4.4-9.46 8.067-16.06 11-6.6 2.787-13.64 5.06-21.12 6.82-7.48 1.76-14.666 3.007-21.56 3.74 0 9.093.88 16.72 2.64 22.88 1.907 6.16 4.694 10.78 8.36 13.86 3.667 3.08 8.36 4.62 14.08 4.62 4.254 0 8.507-.953 12.76-2.86 4.4-1.907 8.58-4.767 12.54-8.58 3.96-3.96 7.554-9.02 10.78-15.18l7.26 4.18c-4.106 7.627-8.506 13.933-13.2 18.92-4.693 4.987-9.826 8.653-15.4 11-5.573 2.347-11.733 3.52-18.48 3.52-13.933 0-24.2-4.327-30.8-12.98-6.6-8.8-9.9-20.313-9.9-34.54 0-8.507 1.1-16.793 3.3-24.86 2.2-8.067 5.5-15.253 9.9-21.56 4.4-6.453 9.974-11.513 16.72-15.18 6.747-3.813 14.594-5.72 23.54-5.72Zm-3.08 7.48c-6.746 0-12.32 2.273-16.72 6.82-4.253 4.547-7.553 10.413-9.9 17.6-2.2 7.187-3.593 14.74-4.18 22.66 7.774-1.027 15.18-2.86 22.22-5.5 7.04-2.64 12.834-6.013 17.38-10.12 4.547-4.253 6.82-9.167 6.82-14.74 0-4.693-1.32-8.653-3.96-11.88-2.493-3.227-6.38-4.84-11.66-4.84Z"/></mask><path d="M282.598 288.63c-8.8 0-17.27-1.32-25.41-3.96-8.14-2.86-14.74-6.93-19.8-12.21-5.06-5.28-7.59-11.66-7.59-19.14 0-4.84 1.32-8.69 3.96-11.55 2.86-3.08 6.27-4.62 10.23-4.62 4.4 0 7.7 1.43 9.9 4.29 2.42 2.86 3.63 6.05 3.63 9.57 0 1.54-.22 3.19-.66 4.95-.44 1.76-1.21 3.52-2.31 5.28 1.76 4.84 5.28 8.58 10.56 11.22 5.28 2.64 10.89 3.96 16.83 3.96 11.88 0 20.79-2.75 26.73-8.25 5.94-5.5 8.91-13.2 8.91-23.1 0-5.94-2.09-11.22-6.27-15.84-4.18-4.62-9.46-8.91-15.84-12.87-6.38-4.18-12.98-8.25-19.8-12.21-6.38-3.96-12.54-8.03-18.48-12.21-5.72-4.18-10.45-8.8-14.19-13.86-3.52-5.06-5.28-10.78-5.28-17.16 0-8.14 2.42-15.51 7.26-22.11 4.84-6.82 11.55-12.21 20.13-16.17 8.58-4.18 18.48-6.27 29.7-6.27 8.36 0 16.17 1.32 23.43 3.96 7.48 2.64 13.53 6.38 18.15 11.22 4.84 4.84 7.26 10.56 7.26 17.16 0 4.62-1.32 8.36-3.96 11.22-2.64 2.64-5.94 3.96-9.9 3.96s-7.15-1.32-9.57-3.96c-2.42-2.64-3.63-5.72-3.63-9.24 0-1.76.22-3.41.66-4.95.44-1.76 1.21-3.52 2.31-5.28-1.1-3.74-3.85-6.82-8.25-9.24-4.18-2.64-10.01-3.96-17.49-3.96-4.84 0-9.57 1.1-14.19 3.3-4.62 2.2-8.47 5.28-11.55 9.24-3.08 3.74-4.62 8.25-4.62 13.53 0 4.18 1.21 8.03 3.63 11.55 2.64 3.52 6.05 6.82 10.23 9.9 4.18 3.08 8.69 6.16 13.53 9.24 7.92 4.62 16.06 9.57 24.42 14.85 8.36 5.06 15.29 10.89 20.79 17.49 5.72 6.6 8.58 14.63 8.58 24.09 0 9.24-2.64 17.49-7.92 24.75-5.06 7.26-12.32 12.98-21.78 17.16-9.24 4.18-20.02 6.27-32.34 6.27ZM396.69 172.58c5.28 0 10.267.807 14.96 2.42 4.694 1.613 8.507 4.253 11.44 7.92 2.934 3.667 4.4 8.653 4.4 14.96 0 6.013-2.053 11.22-6.16 15.62-4.106 4.4-9.46 8.067-16.06 11-6.6 2.787-13.64 5.06-21.12 6.82-7.48 1.76-14.666 3.007-21.56 3.74 0 9.093.88 16.72 2.64 22.88 1.907 6.16 4.694 10.78 8.36 13.86 3.667 3.08 8.36 4.62 14.08 4.62 4.254 0 8.507-.953 12.76-2.86 4.4-1.907 8.58-4.767 12.54-8.58 3.96-3.96 7.554-9.02 10.78-15.18l7.26 4.18c-4.106 7.627-8.506 13.933-13.2 18.92-4.693 4.987-9.826 8.653-15.4 11-5.573 2.347-11.733 3.52-18.48 3.52-13.933 0-24.2-4.327-30.8-12.98-6.6-8.8-9.9-20.313-9.9-34.54 0-8.507 1.1-16.793 3.3-24.86 2.2-8.067 5.5-15.253 9.9-21.56 4.4-6.453 9.974-11.513 16.72-15.18 6.747-3.813 14.594-5.72 23.54-5.72Zm-3.08 7.48c-6.746 0-12.32 2.273-16.72 6.82-4.253 4.547-7.553 10.413-9.9 17.6-2.2 7.187-3.593 14.74-4.18 22.66 7.774-1.027 15.18-2.86 22.22-5.5 7.04-2.64 12.834-6.013 17.38-10.12 4.547-4.253 6.82-9.167 6.82-14.74 0-4.693-1.32-8.653-3.96-11.88-2.493-3.227-6.38-4.84-11.66-4.84ZM444.114 285c-.147-1.027-.22-1.907-.22-2.64v-3.08c0-2.493.073-5.427.22-8.8.147-3.52.44-8.14.88-13.86.587-5.72 1.393-13.2 2.42-22.44 1.027-9.533 1.833-16.72 2.42-21.56s1.027-8.36 1.32-10.56c.293-2.347.44-4.253.44-5.72a33.358 33.358 0 0 0-.66-8.58c-.44-2.787-2.2-4.18-5.28-4.18-2.347 0-5.06 1.613-8.14 4.84-3.08 3.227-5.72 8.727-7.92 16.5l-6.16-1.32c.44-2.64 1.32-5.647 2.64-9.02 1.467-3.52 3.373-6.967 5.72-10.34 2.347-3.373 5.207-6.16 8.58-8.36 3.374-2.2 7.26-3.3 11.66-3.3 6.6 0 11 2.273 13.2 6.82 2.2 4.547 3.154 10.633 2.86 18.26-.147 3.227-.586 6.82-1.32 10.78a685.646 685.646 0 0 1-1.98 12.1h.66c4.254-12.76 8.654-22.587 13.2-29.48 4.694-6.893 9.387-11.66 14.08-14.3 4.84-2.787 9.607-4.18 14.3-4.18 4.4 0 8.067 1.173 11 3.52 2.934 2.2 4.4 5.28 4.4 9.24 0 2.64-.953 5.06-2.86 7.26-1.76 2.2-4.18 3.3-7.26 3.3-2.64 0-4.913-.807-6.82-2.42-1.906-1.613-3.006-3.887-3.3-6.82-4.106-.88-8.14.44-12.1 3.96-3.813 3.52-7.48 8.58-11 15.18-3.373 6.453-6.38 13.713-9.02 21.78a201.062 201.062 0 0 0-5.94 24.64c-1.466 8.36-2.2 16.133-2.2 23.32v5.06c.147 1.027.294 2.493.44 4.4h-18.26Zm120.189-112.42c5.28 0 10.267.807 14.96 2.42 4.693 1.613 8.507 4.253 11.44 7.92s4.4 8.653 4.4 14.96c0 6.013-2.053 11.22-6.16 15.62-4.107 4.4-9.46 8.067-16.06 11-6.6 2.787-13.64 5.06-21.12 6.82-7.48 1.76-14.667 3.007-21.56 3.74 0 9.093.88 16.72 2.64 22.88 1.907 6.16 4.693 10.78 8.36 13.86s8.36 4.62 14.08 4.62c4.253 0 8.507-.953 12.76-2.86 4.4-1.907 8.58-4.767 12.54-8.58 3.96-3.96 7.553-9.02 10.78-15.18l7.26 4.18c-4.107 7.627-8.507 13.933-13.2 18.92-4.693 4.987-9.827 8.653-15.4 11-5.573 2.347-11.733 3.52-18.48 3.52-13.933 0-24.2-4.327-30.8-12.98-6.6-8.8-9.9-20.313-9.9-34.54 0-8.507 1.1-16.793 3.3-24.86 2.2-8.067 5.5-15.253 9.9-21.56 4.4-6.453 9.973-11.513 16.72-15.18 6.747-3.813 14.593-5.72 23.54-5.72Zm-3.08 7.48c-6.747 0-12.32 2.273-16.72 6.82-4.253 4.547-7.553 10.413-9.9 17.6-2.2 7.187-3.593 14.74-4.18 22.66 7.773-1.027 15.18-2.86 22.22-5.5 7.04-2.64 12.833-6.013 17.38-10.12 4.547-4.253 6.82-9.167 6.82-14.74 0-4.693-1.32-8.653-3.96-11.88-2.493-3.227-6.38-4.84-11.66-4.84Zm132.344 107.36c-6.894 0-11.587-1.833-14.08-5.5-2.494-3.667-3.74-8.873-3.74-15.62 0-4.107.293-8.947.88-14.52.733-5.573 1.54-11.513 2.42-17.82a273.446 273.446 0 0 0 2.42-19.14c.733-6.453 1.1-12.613 1.1-18.48 0-1.76-.294-3.667-.88-5.72-.44-2.053-1.394-3.813-2.86-5.28-1.467-1.613-3.667-2.42-6.6-2.42-4.107 0-8.214 1.907-12.32 5.72-4.107 3.813-7.994 8.947-11.66 15.4-3.667 6.453-6.967 13.64-9.9 21.56-2.934 7.773-5.28 15.84-7.04 24.2-1.614 8.213-2.42 16.06-2.42 23.54v6.16c.146 1.76.293 3.593.44 5.5h-18.48c-.147-1.027-.22-1.907-.22-2.64v-3.08c0-2.493.146-5.353.44-8.58.293-3.373.733-7.773 1.32-13.2.733-5.573 1.613-12.98 2.64-22.22 1.026-8.653 1.76-15.4 2.2-20.24.586-4.84 1.026-8.507 1.32-11 .293-2.64.44-4.62.44-5.94a46.68 46.68 0 0 0 .22-4.62c0-2.64-.367-4.913-1.1-6.82-.734-2.053-2.347-3.08-4.84-3.08-2.347 0-5.06 1.613-8.14 4.84-3.08 3.227-5.72 8.727-7.92 16.5l-6.16-1.32c.44-2.64 1.32-5.647 2.64-9.02 1.466-3.52 3.373-6.967 5.72-10.34 2.346-3.373 5.206-6.16 8.58-8.36 3.373-2.2 7.26-3.3 11.66-3.3 4.986 0 8.653 1.393 11 4.18 2.493 2.64 4.033 6.087 4.62 10.34.733 4.253.953 8.8.66 13.64a101.166 101.166 0 0 1-1.54 11.88c-.587 3.813-1.174 7.187-1.76 10.12h.66c4.986-13.347 9.9-23.613 14.74-30.8 4.84-7.333 9.606-12.393 14.3-15.18 4.84-2.787 9.606-4.18 14.3-4.18 5.866 0 10.56 1.32 14.08 3.96 3.52 2.64 6.013 6.16 7.48 10.56 1.613 4.253 2.42 8.947 2.42 14.08 0 8.067-.587 16.353-1.76 24.86-1.027 8.36-2.127 16.133-3.3 23.32-1.027 7.04-1.54 12.687-1.54 16.94 0 2.64.293 4.987.88 7.04.733 2.053 2.42 3.08 5.06 3.08 2.493 0 5.206-1.54 8.14-4.62 3.08-3.227 5.72-8.8 7.92-16.72l6.16 1.54c-.44 2.493-1.394 5.5-2.86 9.02-1.32 3.52-3.154 6.967-5.5 10.34a32.4 32.4 0 0 1-8.58 8.14c-3.374 2.2-7.26 3.3-11.66 3.3Zm75.731-114.84c5.28 0 10.267.807 14.96 2.42 4.694 1.613 8.507 4.253 11.44 7.92 2.934 3.667 4.4 8.653 4.4 14.96 0 6.013-2.053 11.22-6.16 15.62-4.106 4.4-9.46 8.067-16.06 11-6.6 2.787-13.64 5.06-21.12 6.82-7.48 1.76-14.666 3.007-21.56 3.74 0 9.093.88 16.72 2.64 22.88 1.907 6.16 4.694 10.78 8.36 13.86 3.667 3.08 8.36 4.62 14.08 4.62 4.254 0 8.507-.953 12.76-2.86 4.4-1.907 8.58-4.767 12.54-8.58 3.96-3.96 7.554-9.02 10.78-15.18l7.26 4.18c-4.106 7.627-8.506 13.933-13.2 18.92-4.693 4.987-9.826 8.653-15.4 11-5.573 2.347-11.733 3.52-18.48 3.52-13.933 0-24.2-4.327-30.8-12.98-6.6-8.8-9.9-20.313-9.9-34.54 0-8.507 1.1-16.793 3.3-24.86 2.2-8.067 5.5-15.253 9.9-21.56 4.4-6.453 9.974-11.513 16.72-15.18 6.747-3.813 14.594-5.72 23.54-5.72Zm-3.08 7.48c-6.746 0-12.32 2.273-16.72 6.82-4.253 4.547-7.553 10.413-9.9 17.6-2.2 7.187-3.593 14.74-4.18 22.66 7.774-1.027 15.18-2.86 22.22-5.5 7.04-2.64 12.834-6.013 17.38-10.12 4.547-4.253 6.82-9.167 6.82-14.74 0-4.693-1.32-8.653-3.96-11.88-2.493-3.227-6.38-4.84-11.66-4.84Z" fill="#0F396B"/><path d="m257.188 284.67-1.326 3.774.046.016.046.015 1.234-3.805Zm-19.8-12.21 2.888-2.768-2.888 2.768Zm-3.63-30.69-2.931-2.722-.008.009 2.939 2.713Zm20.13-.33-3.17 2.439.056.074.061.071 3.053-2.584Zm2.97 14.52-3.88-.97 3.88.97Zm-2.31 5.28-3.392-2.12-1.034 1.654.667 1.833 3.759-1.367Zm10.56 11.22 1.789-3.578-1.789 3.578Zm43.56-4.29 2.718 2.935-2.718-2.935Zm2.64-38.94 2.966-2.684-2.966 2.684Zm-15.84-12.87-2.192 3.346.041.027.042.026 2.109-3.399Zm-19.8-12.21-2.109 3.399.05.031.051.029 2.008-3.459Zm-18.48-12.21-2.36 3.23.029.021.029.02 2.302-3.271Zm-14.19-13.86-3.284 2.284.033.047.034.047 3.217-2.378Zm1.98-39.27 3.226 2.365.018-.025.018-.025-3.262-2.315Zm20.13-16.17 1.676 3.632.038-.018.038-.018-1.752-3.596Zm53.13-2.31-1.367 3.759.018.007.018.006 1.331-3.772Zm18.15 11.22-2.893 2.762.032.034.033.032 2.828-2.828Zm3.3 28.38 2.829 2.828.056-.056.054-.059-2.939-2.713Zm-19.47 0-2.949 2.703 2.949-2.703Zm-2.97-14.19 3.846 1.099.018-.064.017-.065-3.881-.97Zm2.31-5.28 3.392 2.12.953-1.524-.507-1.725-3.838 1.129Zm-8.25-9.24-2.136 3.382.102.065.106.058 1.928-3.505Zm-43.23 8.58 3.088 2.543.035-.043.034-.044-3.157-2.456Zm-.99 25.08-3.296 2.266.047.068.049.066 3.2-2.4Zm10.23 9.9 2.373-3.22-2.373 3.22Zm13.53 9.24-2.147 3.375.065.041.067.039 2.015-3.455Zm24.42 14.85-2.136 3.382.032.02.033.02 2.071-3.422Zm20.79 17.49-3.073 2.561.025.029.025.03 3.023-2.62Zm.66 48.84-3.235-2.353-.024.033-.023.033 3.282 2.287Zm-21.78 17.16-1.617-3.659-.016.007-.016.008 1.649 3.644Zm-32.34 2.27c-8.393 0-16.446-1.258-24.176-3.765l-2.468 7.61c8.55 2.773 17.437 4.155 26.644 4.155v-8Zm-24.084-3.734c-7.654-2.689-13.684-6.452-18.238-11.204l-5.776 5.536c5.566 5.808 12.736 10.185 21.362 13.216l2.652-7.548Zm-18.238-11.204c-4.328-4.516-6.478-9.897-6.478-16.372h-8c0 8.485 2.911 15.864 8.702 21.908l5.776-5.536Zm-6.478-16.372c0-4.09 1.097-6.885 2.899-8.837l-5.878-5.426c-3.478 3.767-5.021 8.673-5.021 14.263h8Zm2.891-8.828c2.156-2.321 4.526-3.342 7.299-3.342v-8c-5.147 0-9.596 2.059-13.161 5.898l5.862 5.444Zm7.299-3.342c3.462 0 5.454 1.071 6.73 2.729l6.341-4.878c-3.125-4.062-7.732-5.851-13.071-5.851v8Zm6.847 2.874c1.851 2.188 2.683 4.476 2.683 6.986h8c0-4.53-1.588-8.622-4.576-12.154l-6.107 5.168Zm2.683 6.986c0 1.161-.166 2.483-.54 3.98l7.761 1.94c.505-2.023.779-4.001.779-5.92h-8Zm-.54 3.98c-.325 1.3-.913 2.675-1.822 4.13l6.784 4.24c1.291-2.065 2.244-4.21 2.799-6.43l-7.761-1.94Zm-2.189 7.617c2.161 5.943 6.479 10.405 12.53 13.431l3.578-7.156c-4.509-2.254-7.231-5.272-8.59-9.009l-7.518 2.734Zm12.53 13.431c5.839 2.919 12.062 4.382 18.619 4.382v-8c-5.323 0-10.32-1.177-15.041-3.538l-3.578 7.156Zm18.619 4.382c12.423 0 22.487-2.869 29.448-9.315l-5.436-5.87c-4.918 4.554-12.675 7.185-24.012 7.185v8Zm29.448-9.315c6.935-6.421 10.192-15.288 10.192-26.035h-8c0 9.053-2.683 15.586-7.628 20.165l5.436 5.87Zm10.192-26.035c0-6.984-2.494-13.208-7.304-18.524l-5.932 5.368c3.55 3.924 5.236 8.26 5.236 13.156h8Zm-7.304-18.524c-4.476-4.947-10.062-9.466-16.696-13.585l-4.219 6.798c6.125 3.801 11.099 7.862 14.983 12.155l5.932-5.368Zm-16.614-13.532a435.144 435.144 0 0 0-19.983-12.323l-4.017 6.918a428.064 428.064 0 0 1 19.616 12.097l4.384-6.692Zm-19.882-12.263a379.361 379.361 0 0 1-18.288-12.082l-4.604 6.542a387.845 387.845 0 0 0 18.673 12.338l4.219-6.798Zm-18.23-12.041c-5.433-3.97-9.862-8.311-13.333-13.008l-6.434 4.756c4.009 5.423 9.041 10.322 15.047 14.712l4.72-6.46Zm-13.266-12.914c-3.037-4.365-4.564-9.282-4.564-14.876h-8c0 7.166 1.993 13.689 5.996 19.444l6.568-4.568Zm-4.564-14.876c0-7.284 2.146-13.827 6.486-19.745l-6.452-4.73c-5.34 7.282-8.034 15.479-8.034 24.475h8Zm6.522-19.795c4.385-6.179 10.515-11.147 18.544-14.853l-3.352-7.264c-9.131 4.214-16.421 10.026-21.716 17.487l6.524 4.63Zm18.62-14.889c7.946-3.871 17.229-5.866 27.948-5.866v-8c-11.721 0-22.238 2.185-31.452 6.674l3.504 7.192Zm27.948-5.866c7.932 0 15.276 1.251 22.063 3.719l2.734-7.518c-7.733-2.812-16.009-4.201-24.797-4.201v8Zm22.099 3.732c6.996 2.469 12.475 5.902 16.588 10.21l5.786-5.524c-5.127-5.372-11.748-9.419-19.712-12.23l-2.662 7.544Zm16.653 10.276c4.121 4.121 6.088 8.836 6.088 14.332h8c0-7.704-2.872-14.429-8.431-19.988l-5.657 5.656Zm6.088 14.332c0 3.814-1.065 6.52-2.899 8.507l5.878 5.426c3.447-3.733 5.021-8.507 5.021-13.933h-8Zm-2.788 8.392c-1.841 1.84-4.101 2.788-7.072 2.788v8c4.95 0 9.289-1.692 12.729-5.132l-5.657-5.656Zm-7.072 2.788c-2.971 0-5.044-.942-6.621-2.663l-5.898 5.406c3.263 3.559 7.57 5.257 12.519 5.257v-8Zm-6.621-2.663c-1.757-1.916-2.579-4.037-2.579-6.537h-8c0 4.54 1.598 8.579 4.681 11.943l5.898-5.406Zm-2.579-6.537c0-1.425.178-2.702.506-3.851l-7.692-2.198c-.552 1.931-.814 3.954-.814 6.049h8Zm.541-3.98c.325-1.3.912-2.675 1.821-4.13l-6.784-4.24c-1.291 2.065-2.243 4.21-2.798 6.43l7.761 1.94Zm2.267-7.379c-1.477-5.022-5.113-8.84-10.16-11.616l-3.856 7.01c3.754 2.064 5.618 4.406 6.341 6.864l7.675-2.258Zm-9.952-11.493c-5.068-3.201-11.751-4.578-19.626-4.578v8c7.085 0 12.062 1.263 15.354 3.342l4.272-6.764Zm-19.626-4.578c-5.469 0-10.784 1.248-15.91 3.689l3.44 7.222c4.114-1.959 8.259-2.911 12.47-2.911v-8Zm-15.91 3.689c-5.171 2.462-9.517 5.933-12.987 10.395l6.314 4.912c2.69-3.458 6.044-6.147 10.113-8.085l-3.44-7.222Zm-12.918 10.308c-3.724 4.522-5.532 9.954-5.532 16.073h8c0-4.441 1.272-8.029 3.708-10.987l-6.176-5.086Zm-5.532 16.073c0 5.008 1.466 9.645 4.334 13.816l6.592-4.532c-1.972-2.869-2.926-5.932-2.926-9.284h-8Zm4.43 13.95c2.912 3.883 6.618 7.449 11.057 10.72l4.746-6.44c-3.921-2.889-7.035-5.923-9.403-9.08l-6.4 4.8ZM274.945 178c4.261 3.139 8.847 6.271 13.756 9.395l4.295-6.75c-4.771-3.036-9.206-6.065-13.305-9.085l-4.746 6.44Zm13.888 9.475a808.498 808.498 0 0 1 24.299 14.777l4.272-6.764a816.414 816.414 0 0 0-24.54-14.923l-4.031 6.91Zm24.364 14.817c8.032 4.862 14.608 10.413 19.788 16.629l6.146-5.122c-5.82-6.984-13.104-13.093-21.792-18.351l-4.142 6.844Zm19.838 16.688c5.036 5.81 7.603 12.886 7.603 21.47h8c0-10.336-3.152-19.32-9.557-26.71l-6.046 5.24Zm7.603 21.47c0 8.421-2.387 15.842-7.155 22.397l6.47 4.706c5.793-7.965 8.685-17.044 8.685-27.103h-8Zm-7.202 22.463c-4.574 6.564-11.21 11.854-20.115 15.788l3.234 7.318c10.015-4.426 17.899-10.576 23.445-18.532l-6.564-4.574Zm-20.147 15.803c-8.623 3.9-18.82 5.914-30.691 5.914v8c12.769 0 24.132-2.166 33.989-6.626l-3.298-7.288ZM411.65 175l-1.3 3.783 1.3-3.783Zm11.44 7.92-3.123 2.499 3.123-2.499Zm-17.82 41.58 1.556 3.685.035-.015.034-.015-1.625-3.655Zm-21.12 6.82-.916-3.894.916 3.894Zm-21.56 3.74-.423-3.978-3.577.381v3.597h4Zm2.64 22.88-3.846 1.099.012.042.013.042 3.821-1.183Zm8.36 13.86-2.572 3.063 2.572-3.063Zm26.84 1.76-1.59-3.67-.023.01-.023.01 1.636 3.65Zm12.54-8.58 2.775 2.881.027-.026.027-.027-2.829-2.828Zm10.78-15.18 1.996-3.466-3.607-2.078-1.932 3.688 3.543 1.856Zm7.26 4.18 3.522 1.896 1.843-3.423-3.369-1.939-1.996 3.466Zm-13.2 18.92-2.912-2.741 2.912 2.741Zm-15.4 11 1.553 3.687-1.553-3.687Zm-49.28-9.46-3.2 2.4.01.013.01.013 3.18-2.426Zm-6.6-59.4-3.859-1.052 3.859 1.052Zm9.9-21.56 3.281 2.289.012-.018.012-.018-3.305-2.253Zm16.72-15.18 1.91 3.514.03-.015.029-.017-1.969-3.482Zm3.74 8.58-2.874-2.782-.024.025-.023.024 2.921 2.733Zm-9.9 17.6-3.802-1.242-.012.036-.01.035 3.824 1.171Zm-4.18 22.66-3.989-.295-.363 4.905 4.876-.644-.524-3.966Zm22.22-5.5 1.405 3.745-1.405-3.745Zm17.38-10.12 2.682 2.968.025-.023.026-.024-2.733-2.921Zm2.86-26.62-3.165 2.446.034.044.036.043 3.095-2.533Zm-8.58-8.32c4.866 0 9.411.742 13.66 2.203l2.601-7.566c-5.138-1.766-10.567-2.637-16.261-2.637v8Zm13.66 2.203c4.019 1.381 7.185 3.596 9.617 6.636l6.247-4.998c-3.435-4.293-7.896-7.359-13.263-9.204l-2.601 7.566Zm9.617 6.636c2.198 2.747 3.523 6.751 3.523 12.461h8c0-6.904-1.608-12.873-5.276-17.459l-6.247 4.998Zm3.523 12.461c0 4.999-1.668 9.231-5.084 12.891l5.849 5.458c4.797-5.14 7.235-11.321 7.235-18.349h-8Zm-5.084 12.891c-3.674 3.937-8.555 7.316-14.76 10.074l3.249 7.31c6.995-3.109 12.821-7.063 17.36-11.926l-5.849-5.458Zm-14.691 10.044c-6.379 2.693-13.204 4.899-20.481 6.611l1.833 7.788c7.683-1.808 14.938-4.149 21.759-7.029l-3.111-7.37Zm-20.481 6.611c-7.335 1.726-14.356 2.943-21.067 3.656l.847 7.956c7.075-.753 14.427-2.03 22.053-3.824l-1.833-7.788Zm-24.644 7.634c0 9.323.899 17.347 2.794 23.979l7.692-2.198c-1.625-5.688-2.486-12.917-2.486-21.781h-8Zm2.819 24.063c2.057 6.646 5.183 12.022 9.609 15.74l5.145-6.126c-2.907-2.442-5.355-6.306-7.111-11.98l-7.643 2.366Zm9.609 15.74c4.521 3.798 10.183 5.557 16.652 5.557v-8c-4.97 0-8.695-1.321-11.507-3.683l-5.145 6.126Zm16.652 5.557c4.87 0 9.678-1.095 14.397-3.21l-3.273-7.3c-3.788 1.698-7.486 2.51-11.124 2.51v8Zm14.351-3.19c4.898-2.122 9.469-5.272 13.724-9.369l-5.549-5.762c-3.666 3.529-7.454 6.1-11.356 7.791l3.181 7.34Zm13.778-9.422c4.305-4.305 8.124-9.716 11.495-16.152l-7.087-3.712c-3.082 5.884-6.451 10.593-10.065 14.208l5.657 5.656Zm5.956-14.542 7.26 4.18 3.991-6.932-7.26-4.18-3.991 6.932Zm5.734-1.182c-3.983 7.396-8.19 13.398-12.591 18.075l5.825 5.482c4.986-5.297 9.579-11.908 13.809-19.765l-7.043-3.792Zm-12.591 18.075c-4.362 4.633-9.045 7.951-14.04 10.054l3.105 7.374c6.151-2.591 11.735-6.606 16.76-11.946l-5.825-5.482Zm-14.04 10.054c-5.028 2.118-10.652 3.207-16.928 3.207v8c7.218 0 13.914-1.257 20.033-3.833l-3.105-7.374Zm-16.928 3.207c-13.069 0-21.981-4.014-27.619-11.406l-6.361 4.852c7.562 9.915 19.183 14.554 33.98 14.554v-8Zm-27.6-11.38c-5.946-7.928-9.1-18.524-9.1-32.14h-8c0 14.837 3.447 27.268 10.7 36.94l6.4-4.8Zm-9.1-32.14c0-8.157 1.055-16.09 3.159-23.808l-7.718-2.104c-2.295 8.415-3.441 17.056-3.441 25.912h8Zm3.159-23.808c2.09-7.663 5.206-14.424 9.322-20.323l-6.561-4.578c-4.684 6.714-8.169 14.326-10.479 22.797l7.718 2.104Zm9.346-20.359c4.049-5.937 9.147-10.561 15.325-13.919l-3.82-7.029c-7.315 3.976-13.363 9.472-18.115 16.442l6.61 4.506Zm15.384-13.951c6.059-3.424 13.207-5.202 21.571-5.202v-8c-9.528 0-18.073 2.036-25.508 6.238l3.937 6.964Zm18.491-5.722c-7.75 0-14.387 2.657-19.594 8.038l5.749 5.564c3.592-3.713 8.102-5.602 13.845-5.602v-8Zm-19.641 8.087c-4.728 5.055-8.291 11.466-10.781 19.091l7.605 2.484c2.203-6.748 5.24-12.071 9.018-16.109l-5.842-5.466Zm-10.803 19.162c-2.292 7.487-3.737 15.335-4.345 23.536l7.978.59c.566-7.639 1.908-14.898 4.016-21.784l-7.649-2.342Zm.168 27.797c8.062-1.065 15.765-2.97 23.101-5.721l-2.809-7.49c-6.744 2.529-13.854 4.291-21.339 5.279l1.047 7.932Zm23.101-5.721c7.407-2.777 13.663-6.386 18.657-10.897l-5.363-5.936c-4.099 3.702-9.43 6.84-16.103 9.343l2.809 7.49Zm18.708-10.944c5.251-4.912 8.087-10.845 8.087-17.661h-8c0 4.331-1.709 8.224-5.552 11.819l5.465 5.842Zm8.087-17.661c0-5.494-1.566-10.382-4.864-14.413l-6.191 5.066c1.981 2.422 3.055 5.454 3.055 9.347h8Zm-4.794-14.326c-3.465-4.484-8.705-6.394-14.826-6.394v8c4.44 0 6.973 1.316 8.495 3.286l6.331-4.892ZM444.114 285l-3.96.566.491 3.434h3.469v-4Zm0-14.52 3.996.174.001-.007-3.997-.167Zm.88-13.86-3.979-.408-.005.05-.004.051 3.988.307Zm2.42-22.44 3.976.442.001-.014-3.977-.428Zm2.42-21.56-3.971-.481 3.971.481Zm1.32-10.56 3.965.529.002-.017.002-.016-3.969-.496Zm.44-5.72-3.995-.2-.005.1v.1h4Zm-.66-8.58-3.951.624.016.1.021.1 3.914-.824Zm-13.42.66 2.894 2.762-2.894-2.762Zm-7.92 16.5-.838 3.911 3.666.786 1.021-3.608-3.849-1.089Zm-6.16-1.32-3.945-.658-.628 3.769 3.735.8.838-3.911Zm2.64-9.02-3.692-1.538-.017.04-.016.04 3.725 1.458Zm5.72-10.34-3.283-2.284 3.283 2.284Zm8.58-8.36 2.185 3.35-2.185-3.35Zm24.86 3.52-3.6 1.742 3.6-1.742Zm2.86 18.26 3.996.182.001-.014v-.014l-3.997-.154Zm-1.32 10.78-3.933-.728-.011.06-.009.06 3.953.608Zm-1.98 12.1-3.942-.68-.807 4.68h4.749v-4Zm.66 0v4h2.883l.912-2.735-3.795-1.265Zm13.2-29.48-3.306-2.251-.017.024-.016.025 3.339 2.202Zm14.08-14.3 1.961 3.486.018-.01.017-.01-1.996-3.466Zm25.3-.66-2.499 3.123.049.04.05.037 2.4-3.2Zm1.54 16.5-3.023-2.62-.051.06-.049.061 3.123 2.499Zm-14.08.88-2.584 3.054 2.584-3.054Zm-3.3-6.82 3.98-.398-.29-2.902-2.852-.611-.838 3.911Zm-12.1 3.96-2.657-2.99-.028.025-.028.026 2.713 2.939Zm-11 15.18-3.529-1.882-.008.014-.008.015 3.545 1.853Zm-9.02 21.78-3.801-1.244-.011.031-.009.032 3.821 1.181Zm-5.94 24.64-3.94-.691 3.94.691Zm-2.2 28.38h-4v.284l.04.282 3.96-.566Zm.44 4.4v4h4.32l-.332-4.307-3.988.307Zm-14.3-.566c-.13-.909-.18-1.59-.18-2.074h-8c0 .982.097 2.062.26 3.206l7.92-1.132Zm-.18-2.074V279.28h-8V282.36h8Zm0-3.08c0-2.419.071-5.292.216-8.626l-7.992-.348c-.148 3.413-.224 6.407-.224 8.974h8Zm.217-8.633c.144-3.454.433-8.022.871-13.72l-7.976-.614c-.442 5.742-.739 10.414-.888 14l7.993.334Zm.862-13.619a2788.42 2788.42 0 0 1 2.417-22.406l-7.951-.884a2750.768 2750.768 0 0 0-2.424 22.474l7.958.816Zm2.418-22.42c1.026-9.529 1.831-16.694 2.414-21.507l-7.942-.962c-.59 4.867-1.399 12.075-2.426 21.613l7.954.856Zm2.414-21.507c.587-4.838 1.024-8.338 1.314-10.512l-7.93-1.058c-.296 2.226-.739 5.766-1.326 10.608l7.942.962Zm1.318-10.545c.303-2.425.471-4.515.471-6.216h-8c0 1.232-.125 2.955-.409 5.224l7.938.992Zm.466-6.016a37.383 37.383 0 0 0-.741-9.604l-7.828 1.648a29.37 29.37 0 0 1 .579 7.556l7.99.4Zm-.704-9.404c-.335-2.12-1.263-4.178-3.118-5.647-1.809-1.432-4.003-1.909-6.113-1.909v8c.971 0 1.196.22 1.147.181-.019-.016-.013-.022.016.033.036.068.112.244.166.59l7.902-1.248Zm-9.231-7.556c-4.086 0-7.808 2.699-11.033 6.078l5.787 5.524c2.934-3.074 4.639-3.602 5.246-3.602v-8Zm-11.033 6.078c-3.762 3.941-6.62 10.204-8.876 18.173l7.698 2.178c2.145-7.578 4.566-12.315 6.965-14.827l-5.787-5.524Zm-4.189 15.351-6.16-1.32-1.676 7.822 6.16 1.32 1.676-7.822Zm-3.052 3.249c.381-2.29 1.167-5.021 2.419-8.22l-7.45-2.916c-1.388 3.548-2.362 6.83-2.86 9.82l7.891 1.316Zm2.386-8.14c1.35-3.238 3.115-6.436 5.312-9.594l-6.567-4.568c-2.497 3.589-4.545 7.284-6.129 11.086l7.384 3.076Zm5.312-9.594c2.058-2.959 4.548-5.381 7.481-7.294l-4.37-6.7c-3.814 2.487-7.044 5.638-9.678 9.426l6.567 4.568Zm7.481-7.294c2.664-1.737 5.776-2.65 9.475-2.65v-8c-5.101 0-9.762 1.287-13.845 3.95l4.37 6.7Zm9.475-2.65c5.624 0 8.28 1.836 9.6 4.562l7.201-3.484c-3.081-6.367-9.225-9.078-16.801-9.078v8Zm9.6 4.562c1.805 3.731 2.743 9.086 2.463 16.364l7.994.308c.307-7.975-.662-14.794-3.256-20.156l-7.201 3.484Zm2.464 16.336c-.136 3.005-.549 6.412-1.257 10.234l7.866 1.456c.759-4.098 1.226-7.878 1.383-11.326l-7.992-.364Zm-1.277 10.354a676.116 676.116 0 0 1-1.969 12.028l7.884 1.36a686.338 686.338 0 0 0 1.992-12.172l-7.907-1.216Zm1.973 16.708h.66v-8h-.66v8Zm4.455-2.735c4.203-12.609 8.472-22.065 12.744-28.543l-6.678-4.404c-4.821 7.308-9.352 17.506-13.656 30.417l7.59 2.53Zm12.712-28.494c4.518-6.636 8.793-10.848 12.734-13.065l-3.922-6.972c-5.446 3.063-10.557 8.384-15.425 15.535l6.613 4.502Zm12.769-13.085c4.349-2.503 8.434-3.646 12.304-3.646v-8c-5.516 0-10.964 1.644-16.296 4.714l3.992 6.932Zm12.304-3.646c3.654 0 6.395.958 8.501 2.643l4.998-6.246c-3.76-3.008-8.353-4.397-13.499-4.397v8Zm8.6 2.72c1.836 1.377 2.8 3.222 2.8 6.04h8c0-5.102-1.969-9.417-6-12.44l-4.8 6.4Zm2.8 6.04c0 1.576-.537 3.087-1.883 4.64l6.046 5.24c2.467-2.847 3.837-6.176 3.837-9.88h-8Zm-1.983 4.761c-.924 1.155-2.143 1.799-4.137 1.799v8c4.166 0 7.787-1.556 10.384-4.801l-6.247-4.998Zm-4.137 1.799c-1.752 0-3.095-.508-4.236-1.474l-5.168 6.108c2.673 2.261 5.877 3.366 9.404 3.366v-8Zm-4.236-1.474c-.974-.823-1.694-2.064-1.904-4.164l-7.96.796c.377 3.767 1.857 7.073 4.696 9.476l5.168-6.108Zm-5.046-7.677c-5.674-1.216-10.96.761-15.595 4.881l5.315 5.98c3.284-2.92 6.065-3.583 8.604-3.039l1.676-7.822Zm-15.651 4.932c-4.253 3.926-8.17 9.4-11.816 16.237l7.059 3.764c3.394-6.363 6.81-11.009 10.183-14.123l-5.426-5.878Zm-11.832 16.266c-3.49 6.678-6.579 14.146-9.276 22.389l7.603 2.488c2.582-7.89 5.507-14.942 8.763-21.171l-7.09-3.706Zm-9.296 22.452a204.852 204.852 0 0 0-6.059 25.13l7.88 1.382a196.865 196.865 0 0 1 5.822-24.15l-7.643-2.362Zm-6.059 25.13c-1.499 8.548-2.26 16.556-2.26 24.011h8c0-6.918.706-14.457 2.14-22.629l-7.88-1.382Zm-2.26 24.011V280.6h8V275.54h-8Zm.04 5.626c.129.897.267 2.262.412 4.141l7.976-.614c-.148-1.934-.303-3.503-.468-4.659l-7.92 1.132Zm4.4-.166h-18.26v8h18.26v-8Zm116.889-106-1.3 3.783 1.3-3.783Zm11.44 7.92-3.124 2.499 3.124-2.499Zm-17.82 41.58 1.556 3.685.034-.015.034-.015-1.624-3.655Zm-21.12 6.82-.916-3.894.916 3.894Zm-21.56 3.74-.423-3.978-3.577.381v3.597h4Zm2.64 22.88-3.846 1.099.012.042.013.042 3.821-1.183Zm8.36 13.86-2.573 3.063 2.573-3.063Zm26.84 1.76-1.59-3.67-.023.01-.023.01 1.636 3.65Zm12.54-8.58 2.775 2.881.027-.026.026-.027-2.828-2.828Zm10.78-15.18 1.996-3.466-3.608-2.078-1.931 3.688 3.543 1.856Zm7.26 4.18 3.522 1.896 1.843-3.423-3.369-1.939-1.996 3.466Zm-13.2 18.92-2.913-2.741 2.913 2.741Zm-15.4 11 1.552 3.687-1.552-3.687Zm-49.28-9.46-3.2 2.4.01.013.009.013 3.181-2.426Zm-6.6-59.4-3.859-1.052 3.859 1.052Zm9.9-21.56 3.28 2.289.013-.018.012-.018-3.305-2.253Zm16.72-15.18 1.91 3.514.029-.015.029-.017-1.968-3.482Zm3.74 8.58-2.874-2.782-.024.025-.023.024 2.921 2.733Zm-9.9 17.6-3.802-1.242-.012.036-.011.035 3.825 1.171Zm-4.18 22.66-3.989-.295-.363 4.905 4.876-.644-.524-3.966Zm22.22-5.5 1.404 3.745-1.404-3.745Zm17.38-10.12 2.681 2.968.026-.023.026-.024-2.733-2.921Zm2.86-26.62-3.165 2.446.034.044.035.043 3.096-2.533Zm-8.58-8.32c4.866 0 9.411.742 13.66 2.203l2.6-7.566c-5.138-1.766-10.566-2.637-16.26-2.637v8Zm13.66 2.203c4.019 1.381 7.184 3.596 9.616 6.636l6.247-4.998c-3.434-4.293-7.895-7.359-13.263-9.204l-2.6 7.566Zm9.616 6.636c2.199 2.747 3.524 6.751 3.524 12.461h8c0-6.904-1.608-12.873-5.277-17.459l-6.247 4.998Zm3.524 12.461c0 4.999-1.668 9.231-5.084 12.891l5.848 5.458c4.797-5.14 7.236-11.321 7.236-18.349h-8Zm-5.084 12.891c-3.675 3.937-8.555 7.316-14.761 10.074l3.249 7.31c6.995-3.109 12.821-7.063 17.36-11.926l-5.848-5.458Zm-14.692 10.044c-6.379 2.693-13.203 4.899-20.48 6.611l1.832 7.788c7.683-1.808 14.939-4.149 21.76-7.029l-3.112-7.37Zm-20.48 6.611c-7.335 1.726-14.356 2.943-21.067 3.656l.846 7.956c7.076-.753 14.428-2.03 22.053-3.824l-1.832-7.788Zm-24.644 7.634c0 9.323.899 17.347 2.794 23.979l7.692-2.198c-1.625-5.688-2.486-12.917-2.486-21.781h-8Zm2.819 24.063c2.057 6.646 5.182 12.022 9.608 15.74l5.146-6.126c-2.908-2.442-5.356-6.306-7.112-11.98l-7.642 2.366Zm9.608 15.74c4.522 3.798 10.183 5.557 16.653 5.557v-8c-4.97 0-8.695-1.321-11.507-3.683l-5.146 6.126Zm16.653 5.557c4.869 0 9.678-1.095 14.396-3.21l-3.272-7.3c-3.789 1.698-7.487 2.51-11.124 2.51v8Zm14.35-3.19c4.898-2.122 9.47-5.272 13.725-9.369l-5.55-5.762c-3.665 3.529-7.453 6.1-11.355 7.791l3.18 7.34Zm13.778-9.422c4.306-4.305 8.124-9.716 11.495-16.152l-7.086-3.712c-3.083 5.884-6.451 10.593-10.065 14.208l5.656 5.656Zm5.956-14.542 7.26 4.18 3.992-6.932-7.26-4.18-3.992 6.932Zm5.734-1.182c-3.983 7.396-8.19 13.398-12.591 18.075l5.826 5.482c4.985-5.297 9.578-11.908 13.809-19.765l-7.044-3.792Zm-12.591 18.075c-4.361 4.633-9.044 7.951-14.039 10.054l3.104 7.374c6.152-2.591 11.735-6.606 16.761-11.946l-5.826-5.482Zm-14.039 10.054c-5.028 2.118-10.653 3.207-16.928 3.207v8c7.218 0 13.914-1.257 20.032-3.833l-3.104-7.374Zm-16.928 3.207c-13.069 0-21.982-4.014-27.62-11.406l-6.361 4.852c7.563 9.915 19.184 14.554 33.981 14.554v-8Zm-27.6-11.38c-5.946-7.928-9.1-18.524-9.1-32.14h-8c0 14.837 3.446 27.268 10.7 36.94l6.4-4.8Zm-9.1-32.14c0-8.157 1.054-16.09 3.159-23.808l-7.718-2.104c-2.295 8.415-3.441 17.056-3.441 25.912h8Zm3.159-23.808c2.09-7.663 5.206-14.424 9.321-20.323l-6.561-4.578c-4.684 6.714-8.168 14.326-10.478 22.797l7.718 2.104Zm9.346-20.359c4.048-5.937 9.147-10.561 15.325-13.919l-3.82-7.029c-7.315 3.976-13.363 9.472-18.115 16.442l6.61 4.506Zm15.383-13.951c6.059-3.424 13.207-5.202 21.572-5.202v-8c-9.529 0-18.074 2.036-25.508 6.238l3.936 6.964Zm18.492-5.722c-7.75 0-14.387 2.657-19.594 8.038l5.748 5.564c3.593-3.713 8.103-5.602 13.846-5.602v-8Zm-19.641 8.087c-4.729 5.055-8.292 11.466-10.781 19.091l7.604 2.484c2.204-6.748 5.241-12.071 9.019-16.109l-5.842-5.466Zm-10.804 19.162c-2.292 7.487-3.737 15.335-4.344 23.536l7.978.59c.566-7.639 1.908-14.898 4.016-21.784l-7.65-2.342Zm.169 27.797c8.061-1.065 15.764-2.97 23.1-5.721l-2.809-7.49c-6.743 2.529-13.854 4.291-21.339 5.279l1.048 7.932Zm23.1-5.721c7.407-2.777 13.663-6.386 18.657-10.897l-5.362-5.936c-4.1 3.702-9.431 6.84-16.104 9.343l2.809 7.49Zm18.709-10.944c5.25-4.912 8.087-10.845 8.087-17.661h-8c0 4.331-1.71 8.224-5.553 11.819l5.466 5.842Zm8.087-17.661c0-5.494-1.566-10.382-4.864-14.413l-6.192 5.066c1.982 2.422 3.056 5.454 3.056 9.347h8Zm-4.795-14.326c-3.465-4.484-8.704-6.394-14.825-6.394v8c4.439 0 6.973 1.316 8.495 3.286l6.33-4.892Zm103.439 99.466-3.308 2.249 3.308-2.249Zm-2.86-30.14-3.966-.522-.007.052-.005.051 3.978.419Zm2.42-17.82-3.948-.643-.008.045-.006.045 3.962.553Zm2.42-19.14-3.975-.452-.005.045-.004.045 3.984.362Zm.22-24.2-3.912.838.029.132.037.129 3.846-1.099Zm-2.86-5.28-2.96 2.691.064.07.067.067 2.829-2.828Zm-30.58 18.7-3.478-1.976 3.478 1.976Zm-9.9 21.56 3.742 1.412.004-.011.005-.012-3.751-1.389Zm-7.04 24.2-3.915-.824-.005.026-.005.027 3.925.771Zm-2.42 29.7h-4v.166l.013.166 3.987-.332Zm.44 5.5v4h4.319l-.331-4.307-3.988.307Zm-18.48 0-3.96.566.49 3.434h3.47v-4Zm.22-14.3 3.983.362.001-.008.001-.007-3.985-.347Zm1.32-13.2-3.966-.522-.006.046-.005.046 3.977.43Zm2.64-22.22-3.972-.471-.002.014-.002.015 3.976.442Zm2.2-20.24-3.971-.481-.007.059-.006.06 3.984.362Zm1.32-11 3.972.467.002-.012.001-.013-3.975-.442Zm.44-5.94-3.98-.398-.02.198v.2h4Zm-.88-11.44-3.767 1.345.016.046.017.045 3.734-1.436Zm-12.98 1.76 2.893 2.762-2.893-2.762Zm-7.92 16.5-.838 3.911 3.665.786 1.021-3.608-3.848-1.089Zm-6.16-1.32-3.946-.658-.628 3.769 3.736.8.838-3.911Zm2.64-9.02-3.693-1.538-.016.04-.016.04 3.725 1.458Zm5.72-10.34-3.284-2.284 3.284 2.284Zm8.58-8.36 2.185 3.35-2.185-3.35Zm22.66.88-3.06 2.577.073.087.079.082 2.908-2.746Zm4.62 10.34-3.963.547.009.066.012.067 3.942-.68Zm.66 13.64 3.989.285.002-.022.001-.021-3.992-.242Zm-1.54 11.88-3.928-.755-.014.073-.012.074 3.954.608Zm-1.76 10.12-3.923-.784-.957 4.784h4.88v-4Zm.66 0v4h2.775l.972-2.6-3.747-1.4Zm14.74-30.8 3.317 2.234.011-.015.01-.016-3.338-2.203Zm14.3-15.18-1.996-3.466-.023.013-.023.014 2.042 3.439Zm28.38-.22-2.4 3.2 2.4-3.2Zm7.48 10.56-3.795 1.265.026.077.029.077 3.74-1.419Zm.66 38.94-3.963-.547-.004.03-.004.029 3.971.488Zm-3.3 23.32-3.948-.645-.006.034-.004.034 3.958.577Zm-.66 23.98-3.846 1.099.035.124.044.122 3.767-1.345Zm13.2-1.54-2.894-2.762-.003.003 2.897 2.759Zm7.92-16.72.97-3.881-3.781-.945-1.043 3.755 3.854 1.071Zm6.16 1.54 3.939.695.648-3.671-3.617-.905-.97 3.881Zm-2.86 9.02-3.693-1.538-.027.066-.026.068 3.746 1.404Zm-5.5 10.34 3.235 2.353.024-.034.024-.035-3.283-2.284Zm-20.24 7.44c-6.333 0-9.369-1.686-10.773-3.749l-6.615 4.498c3.583 5.27 9.933 7.251 17.388 7.251v-8Zm-10.773-3.749c-1.863-2.741-3.047-7.035-3.047-13.371h-8c0 7.158 1.309 13.276 4.432 17.869l6.615-4.498Zm-3.047-13.371c0-3.927.281-8.621.858-14.101l-7.956-.838c-.597 5.666-.902 10.653-.902 14.939h8Zm.845-13.998a2345.55 2345.55 0 0 1 2.416-17.789l-7.923-1.106a2333.622 2333.622 0 0 0-2.424 17.851l7.931 1.044Zm2.403-17.699a276.77 276.77 0 0 0 2.455-19.421l-7.967-.724a268.778 268.778 0 0 1-2.384 18.859l7.896 1.286Zm2.446-19.331c.749-6.588 1.126-12.899 1.126-18.932h-8c0 5.701-.357 11.709-1.075 18.028l7.949.904Zm1.126-18.932c0-2.201-.366-4.481-1.034-6.819l-7.692 2.198c.505 1.769.726 3.302.726 4.621h8Zm-.969-6.558c-.6-2.797-1.924-5.251-3.943-7.27l-5.657 5.656c.915.915 1.497 1.981 1.777 3.29l7.823-1.676Zm-3.812-7.133c-2.461-2.707-5.906-3.729-9.559-3.729v8c2.213 0 3.168.591 3.64 1.111l5.919-5.382Zm-9.559-3.729c-5.436 0-10.469 2.542-15.042 6.789l5.443 5.862c3.641-3.38 6.821-4.651 9.599-4.651v-8Zm-15.042 6.789c-4.485 4.164-8.609 9.654-12.416 16.355l6.955 3.952c3.527-6.206 7.176-10.983 10.904-14.445l-5.443-5.862Zm-12.416 16.355c-3.787 6.665-7.175 14.051-10.173 22.147l7.502 2.778c2.868-7.744 6.08-14.731 9.626-20.973l-6.955-3.952Zm-10.165 22.124c-3.007 7.97-5.411 16.233-7.212 24.788l7.829 1.648c1.719-8.165 4.009-16.035 6.868-23.612l-7.485-2.824Zm-7.222 24.841c-1.658 8.438-2.495 16.544-2.495 24.311h8c0-7.193.775-14.78 2.345-22.769l-7.85-1.542Zm-2.495 24.311V279.5h8V273.34h-8Zm.013 6.492c.146 1.751.292 3.576.438 5.475l7.977-.614a885.27 885.27 0 0 0-.442-5.525l-7.973.664Zm4.427 1.168h-18.48v8h18.48v-8Zm-14.521 3.434c-.129-.909-.179-1.59-.179-2.074h-8c0 .982.096 2.062.26 3.206l7.919-1.132Zm-.179-2.074V279.28h-8V282.36h8Zm0-3.08c0-2.343.138-5.078.423-8.218l-7.967-.724c-.301 3.313-.456 6.298-.456 8.942h8Zm.425-8.233c.29-3.334.726-7.704 1.311-13.117l-7.953-.86c-.588 5.44-1.032 9.871-1.328 13.283l7.97.694Zm1.3-13.025c.739-5.612 1.622-13.048 2.65-22.3l-7.951-.884c-1.025 9.228-1.902 16.605-2.63 22.14l7.931 1.044Zm2.647-22.271c1.028-8.666 1.766-15.455 2.211-20.349l-7.967-.724c-.435 4.786-1.163 11.49-2.188 20.131l7.944.942Zm2.199-20.23a3549.01 3549.01 0 0 0 1.321-11.014l-7.945-.934c-.292 2.486-.732 6.147-1.318 10.986l7.942.962Zm1.324-11.039c.297-2.672.465-4.832.465-6.382h-8c0 1.09-.126 2.89-.416 5.498l7.951.884Zm.445-5.984c.161-1.611.24-3.284.24-5.018h-8c0 1.493-.068 2.899-.2 4.222l7.96.796Zm.24-5.018c0-2.994-.414-5.779-1.367-8.256l-7.467 2.872c.514 1.336.834 3.098.834 5.384h8Zm-1.333-8.165c-.622-1.741-1.719-3.283-3.38-4.34-1.616-1.028-3.447-1.395-5.227-1.395v8c.352 0 .589.037.735.073a.67.67 0 0 1 .197.072s0-.003.011.012a.984.984 0 0 1 .13.268l7.534-2.69Zm-8.607-5.735c-4.086 0-7.808 2.699-11.034 6.078l5.787 5.524c2.934-3.074 4.639-3.602 5.247-3.602v-8Zm-11.034 6.078c-3.762 3.941-6.62 10.204-8.875 18.173l7.697 2.178c2.145-7.578 4.567-12.315 6.965-14.827l-5.787-5.524Zm-4.188 15.351-6.16-1.32-1.676 7.822 6.16 1.32 1.676-7.822Zm-3.053 3.249c.382-2.29 1.168-5.021 2.42-8.22l-7.45-2.916c-1.388 3.548-2.363 6.83-2.861 9.82l7.891 1.316Zm2.387-8.14c1.349-3.238 3.114-6.436 5.311-9.594l-6.567-4.568c-2.497 3.589-4.545 7.284-6.129 11.086l7.385 3.076Zm5.311-9.594c2.059-2.959 4.549-5.381 7.482-7.294l-4.37-6.7c-3.814 2.487-7.044 5.638-9.679 9.426l6.567 4.568Zm7.482-7.294c2.663-1.737 5.776-2.65 9.475-2.65v-8c-5.102 0-9.762 1.287-13.845 3.95l4.37 6.7Zm9.475-2.65c4.264 0 6.606 1.172 7.94 2.757l6.119-5.154c-3.359-3.989-8.351-5.603-14.059-5.603v8Zm8.092 2.926c1.822 1.931 3.071 4.558 3.565 8.141l7.925-1.094c-.679-4.924-2.51-9.19-5.674-12.539l-5.816 5.492Zm3.586 8.274c.675 3.914.886 8.149.609 12.718l7.985.484c.31-5.111.081-9.969-.711-14.562l-7.883 1.36Zm.612 12.675a97.2 97.2 0 0 1-1.478 11.41l7.856 1.51a104.741 104.741 0 0 0 1.601-12.35l-7.979-.57Zm-1.504 11.557c-.58 3.77-1.156 7.083-1.729 9.944l7.845 1.568c.601-3.005 1.198-6.439 1.791-10.296l-7.907-1.216Zm2.194 14.728h.66v-8h-.66v8Zm4.407-2.6c4.937-13.215 9.722-23.152 14.31-29.966l-6.635-4.468c-5.091 7.559-10.133 18.156-15.169 31.634l7.494 2.8Zm14.331-29.997c4.687-7.102 9.053-11.598 13.004-13.944l-4.084-6.878c-5.437 3.227-10.604 8.851-15.597 16.416l6.677 4.406Zm12.958-13.917c4.348-2.503 8.433-3.646 12.304-3.646v-8c-5.517 0-10.965 1.644-16.296 4.714l3.992 6.932Zm12.304-3.646c5.287 0 9.051 1.188 11.68 3.16l4.8-6.4c-4.411-3.308-10.035-4.76-16.48-4.76v8Zm11.68 3.16c2.832 2.125 4.861 4.953 6.085 8.625l7.589-2.53c-1.709-5.128-4.667-9.34-8.874-12.495l-4.8 6.4Zm6.14 8.779c1.42 3.745 2.16 7.951 2.16 12.661h8c0-5.556-.874-10.738-2.68-15.499l-7.48 2.838Zm2.16 12.661c0 7.873-.573 15.976-1.723 24.313l7.925 1.094c1.197-8.677 1.798-17.146 1.798-25.407h-8Zm-1.731 24.372c-1.021 8.316-2.113 16.036-3.277 23.163l7.895 1.29c1.183-7.247 2.291-15.073 3.323-23.477l-7.941-.976Zm-3.287 23.231c-1.039 7.122-1.582 12.985-1.582 17.517h8c0-3.975.483-9.405 1.498-16.363l-7.916-1.154Zm-1.582 17.517c0 2.928.324 5.656 1.034 8.139l7.692-2.198c-.464-1.623-.726-3.589-.726-5.941h-8Zm1.113 8.385c.641 1.795 1.793 3.341 3.502 4.382 1.647 1.003 3.511 1.353 5.325 1.353v-8c-.827 0-1.126-.163-1.166-.187-.016-.01-.016-.011-.02-.017a.769.769 0 0 1-.107-.221l-7.534 2.69Zm8.827 5.735c4.149 0 7.85-2.516 11.036-5.861l-5.793-5.518c-2.681 2.815-4.406 3.379-5.243 3.379v8Zm11.033-5.858c3.774-3.954 6.63-10.308 8.881-18.411l-7.708-2.142c-2.149 7.737-4.574 12.53-6.96 15.029l5.787 5.524Zm4.057-15.601 6.16 1.54 1.94-7.762-6.16-1.54-1.94 7.762Zm3.191-3.036c-.371 2.098-1.209 4.806-2.614 8.177l7.385 3.076c1.529-3.669 2.597-6.974 3.107-9.863l-7.878-1.39Zm-2.667 8.311c-1.193 3.181-2.864 6.334-5.038 9.46l6.567 4.568c2.519-3.621 4.515-7.361 5.962-11.22l-7.491-2.808Zm-4.989 9.391a28.405 28.405 0 0 1-7.53 7.143l4.37 6.7a36.396 36.396 0 0 0 9.63-9.137l-6.47-4.706Zm-7.53 7.143c-2.664 1.737-5.777 2.65-9.475 2.65v8c5.101 0 9.762-1.287 13.845-3.95l-4.37-6.7ZM784.258 175l-1.3 3.783 1.3-3.783Zm11.44 7.92-3.123 2.499 3.123-2.499Zm-17.82 41.58 1.556 3.685.035-.015.034-.015-1.625-3.655Zm-21.12 6.82-.916-3.894.916 3.894Zm-21.56 3.74-.423-3.978-3.577.381v3.597h4Zm2.64 22.88-3.846 1.099.012.042.013.042 3.821-1.183Zm8.36 13.86-2.572 3.063 2.572-3.063Zm26.84 1.76-1.59-3.67-.023.01-.023.01 1.636 3.65Zm12.54-8.58 2.775 2.881.027-.026.027-.027-2.829-2.828Zm10.78-15.18 1.996-3.466-3.607-2.078-1.932 3.688 3.543 1.856Zm7.26 4.18 3.522 1.896 1.843-3.423-3.369-1.939-1.996 3.466Zm-13.2 18.92-2.912-2.741 2.912 2.741Zm-15.4 11 1.553 3.687-1.553-3.687Zm-49.28-9.46-3.2 2.4.01.013.01.013 3.18-2.426Zm-6.6-59.4-3.859-1.052 3.859 1.052Zm9.9-21.56 3.281 2.289.012-.018.012-.018-3.305-2.253Zm16.72-15.18 1.91 3.514.03-.015.029-.017-1.969-3.482Zm3.74 8.58-2.874-2.782-.024.025-.023.024 2.921 2.733Zm-9.9 17.6-3.802-1.242-.012.036-.01.035 3.824 1.171Zm-4.18 22.66-3.989-.295-.363 4.905 4.876-.644-.524-3.966Zm22.22-5.5 1.405 3.745-1.405-3.745Zm17.38-10.12 2.681 2.968.026-.023.026-.024-2.733-2.921Zm2.86-26.62-3.165 2.446.034.044.035.043 3.096-2.533Zm-8.58-8.32c4.866 0 9.411.742 13.66 2.203l2.601-7.566c-5.138-1.766-10.567-2.637-16.261-2.637v8Zm13.66 2.203c4.019 1.381 7.185 3.596 9.617 6.636l6.247-4.998c-3.435-4.293-7.896-7.359-13.263-9.204l-2.601 7.566Zm9.617 6.636c2.198 2.747 3.523 6.751 3.523 12.461h8c0-6.904-1.608-12.873-5.276-17.459l-6.247 4.998Zm3.523 12.461c0 4.999-1.668 9.231-5.084 12.891l5.849 5.458c4.797-5.14 7.235-11.321 7.235-18.349h-8Zm-5.084 12.891c-3.674 3.937-8.555 7.316-14.76 10.074l3.249 7.31c6.995-3.109 12.821-7.063 17.36-11.926l-5.849-5.458Zm-14.692 10.044c-6.378 2.693-13.203 4.899-20.48 6.611l1.832 7.788c7.684-1.808 14.939-4.149 21.76-7.029l-3.112-7.37Zm-20.48 6.611c-7.335 1.726-14.356 2.943-21.067 3.656l.846 7.956c7.076-.753 14.428-2.03 22.053-3.824l-1.832-7.788Zm-24.644 7.634c0 9.323.899 17.347 2.794 23.979l7.692-2.198c-1.625-5.688-2.486-12.917-2.486-21.781h-8Zm2.819 24.063c2.057 6.646 5.183 12.022 9.609 15.74l5.145-6.126c-2.908-2.442-5.355-6.306-7.112-11.98l-7.642 2.366Zm9.609 15.74c4.521 3.798 10.182 5.557 16.652 5.557v-8c-4.97 0-8.695-1.321-11.507-3.683l-5.145 6.126Zm16.652 5.557c4.87 0 9.678-1.095 14.397-3.21l-3.273-7.3c-3.788 1.698-7.486 2.51-11.124 2.51v8Zm14.351-3.19c4.898-2.122 9.469-5.272 13.724-9.369l-5.549-5.762c-3.666 3.529-7.454 6.1-11.356 7.791l3.181 7.34Zm13.778-9.422c4.305-4.305 8.124-9.716 11.495-16.152l-7.087-3.712c-3.082 5.884-6.451 10.593-10.065 14.208l5.657 5.656Zm5.955-14.542 7.26 4.18 3.992-6.932-7.26-4.18-3.992 6.932Zm5.734-1.182c-3.982 7.396-8.189 13.398-12.59 18.075l5.825 5.482c4.986-5.297 9.579-11.908 13.809-19.765l-7.044-3.792Zm-12.59 18.075c-4.362 4.633-9.045 7.951-14.04 10.054l3.105 7.374c6.151-2.591 11.735-6.606 16.76-11.946l-5.825-5.482Zm-14.04 10.054c-5.028 2.118-10.652 3.207-16.928 3.207v8c7.218 0 13.914-1.257 20.033-3.833l-3.105-7.374Zm-16.928 3.207c-13.069 0-21.982-4.014-27.619-11.406l-6.361 4.852c7.562 9.915 19.183 14.554 33.98 14.554v-8Zm-27.6-11.38c-5.946-7.928-9.1-18.524-9.1-32.14h-8c0 14.837 3.447 27.268 10.7 36.94l6.4-4.8Zm-9.1-32.14c0-8.157 1.055-16.09 3.159-23.808l-7.718-2.104c-2.295 8.415-3.441 17.056-3.441 25.912h8Zm3.159-23.808c2.09-7.663 5.206-14.424 9.322-20.323l-6.561-4.578c-4.684 6.714-8.169 14.326-10.479 22.797l7.718 2.104Zm9.346-20.359c4.048-5.937 9.147-10.561 15.325-13.919l-3.82-7.029c-7.315 3.976-13.363 9.472-18.115 16.442l6.61 4.506Zm15.384-13.951c6.058-3.424 13.207-5.202 21.571-5.202v-8c-9.528 0-18.074 2.036-25.508 6.238l3.937 6.964Zm18.491-5.722c-7.75 0-14.387 2.657-19.594 8.038l5.749 5.564c3.592-3.713 8.102-5.602 13.845-5.602v-8Zm-19.641 8.087c-4.728 5.055-8.291 11.466-10.781 19.091l7.605 2.484c2.203-6.748 5.24-12.071 9.018-16.109l-5.842-5.466Zm-10.803 19.162c-2.292 7.487-3.737 15.335-4.345 23.536l7.978.59c.566-7.639 1.908-14.898 4.016-21.784l-7.649-2.342Zm.168 27.797c8.061-1.065 15.765-2.97 23.101-5.721l-2.809-7.49c-6.744 2.529-13.854 4.291-21.339 5.279l1.047 7.932Zm23.101-5.721c7.407-2.777 13.663-6.386 18.656-10.897l-5.362-5.936c-4.099 3.702-9.43 6.84-16.103 9.343l2.809 7.49Zm18.708-10.944c5.25-4.912 8.087-10.845 8.087-17.661h-8c0 4.331-1.709 8.224-5.552 11.819l5.465 5.842Zm8.087-17.661c0-5.494-1.566-10.382-4.864-14.413l-6.192 5.066c1.982 2.422 3.056 5.454 3.056 9.347h8Zm-4.795-14.326c-3.464-4.484-8.704-6.394-14.825-6.394v8c4.44 0 6.973 1.316 8.495 3.286l6.33-4.892Z" fill="#D6C5AE" mask="url('#path-1-outside-1_179_4')"/></g><defs><clipPath id="clip0_179_4"><path fill="#fff" d="M0 0h1032v379H0z"/></clipPath></defs></svg>