<svg width="1032" height="379" fill="none" xmlns="http://www.w3.org/2000/svg"><g clip-path="url('#clip0_179_5')"><mask id="path-1-outside-1_179_5" maskUnits="userSpaceOnUse" x="360" y="105" width="313" height="171" fill="#000"><path fill="#fff" d="M360 105h313v171H360z"/><path d="M422.04 114.56c17.014 0 29.994 3.007 38.94 9.02 9.094 6.013 13.2 15.547 12.32 28.6-.293 4.693-1.833 9.387-4.62 14.08-2.786 4.693-6.893 8.873-12.32 12.54-5.426 3.52-12.246 6.013-20.46 7.48v.44c16.134 0 28.014 3.74 35.64 11.22 7.627 7.333 11.074 16.647 10.34 27.94-.44 8.947-3.08 16.647-7.92 23.1-4.693 6.453-11 11.44-18.92 14.96-7.773 3.373-16.646 5.06-26.62 5.06h-63.58l.44-7.26c5.574-.147 9.46-1.393 11.66-3.74 2.2-2.493 3.52-5.793 3.96-9.9.44-4.253.807-9.093 1.1-14.52l4.84-92.4c.147-3.96.367-7.333.66-10.12.294-2.933.587-5.353.88-7.26-2.64.147-5.353.293-8.14.44l-7.92.44.66-9.68c8.067 0 16.06-.073 23.98-.22 7.92-.147 16.28-.22 25.08-.22Zm3.08 78.1c-4.4 0-8.433.073-12.1.22-3.52 0-7.04.147-10.56.44l-2.64 49.5c-.146 3.96-.366 7.333-.66 10.12-.293 2.787-.586 5.133-.88 7.04 2.347.147 5.134.293 8.36.44h14.96c11.294 0 20.534-2.787 27.72-8.36 7.334-5.573 11.294-13.86 11.88-24.86.44-8.653-1.026-15.473-4.4-20.46-3.226-5.133-7.626-8.727-13.2-10.78-5.573-2.2-11.733-3.3-18.48-3.3Zm-2.42-70.18c-4.693 0-8.286.66-10.78 1.98-2.346 1.32-4.033 3.52-5.06 6.6-.88 3.08-1.466 7.333-1.76 12.76l-2.2 40.92h8.36c2.787-.147 5.354-.293 7.7-.44 8.36-.44 15.034-2.273 20.02-5.5 5.134-3.227 8.874-7.26 11.22-12.1 2.347-4.987 3.594-10.193 3.74-15.62.294-7.92-1.173-13.933-4.4-18.04-3.226-4.107-7.333-6.893-12.32-8.36-4.84-1.467-9.68-2.2-14.52-2.2Zm74.611 34.1c6.16 0 10.78 2.127 13.86 6.38 3.08 4.107 4.62 9.607 4.62 16.5 0 4.4-.44 9.46-1.32 15.18-.733 5.573-1.687 11.587-2.86 18.04a419.397 419.397 0 0 0-3.08 19.58c-.733 6.453-1.1 12.76-1.1 18.92 0 2.933.513 5.207 1.54 6.82 1.173 1.613 2.933 2.42 5.28 2.42 2.493 0 5.207-1.613 8.14-4.84 3.08-3.227 5.72-8.727 7.92-16.5l6.16 1.32c-.587 3.08-1.613 6.453-3.08 10.12-1.32 3.52-3.08 6.893-5.28 10.12a29.097 29.097 0 0 1-8.14 7.7c-3.08 2.053-6.673 3.08-10.78 3.08-6.747 0-11.733-1.76-14.96-5.28-3.227-3.52-4.84-8.653-4.84-15.4 0-6.453.44-12.687 1.32-18.7.88-6.16 1.833-12.173 2.86-18.04a386.6 386.6 0 0 0 3.08-18.04 127.47 127.47 0 0 0 1.32-18.48c0-1.907-.44-4.033-1.32-6.38-.733-2.347-2.347-3.52-4.84-3.52-2.347 0-5.06 1.613-8.14 4.84-3.08 3.227-5.72 8.727-7.92 16.5l-6.16-1.32c.44-2.64 1.32-5.647 2.64-9.02 1.32-3.52 3.08-6.967 5.28-10.34 2.347-3.373 5.133-6.16 8.36-8.36 3.227-2.2 7.04-3.3 11.44-3.3Zm12.54-47.52c3.373 0 6.16 1.173 8.36 3.52 2.2 2.2 3.3 5.207 3.3 9.02 0 3.667-1.173 6.673-3.52 9.02-2.347 2.2-5.133 3.3-8.36 3.3-3.227 0-6.013-1.1-8.36-3.3-2.2-2.347-3.3-5.353-3.3-9.02 0-3.813 1.173-6.82 3.52-9.02 2.347-2.347 5.133-3.52 8.36-3.52Zm53.068 18.92-3.96 31.02h34.98l-.66 8.36-35.2.44c-.586 6.16-1.32 12.54-2.2 19.14a869.218 869.218 0 0 0-1.98 19.36c-.586 6.453-1.1 12.687-1.54 18.7-.44 5.867-.66 11.22-.66 16.06 0 2.787.147 5.72.44 8.8.44 2.933 1.394 5.427 2.86 7.48 1.467 1.907 3.814 2.86 7.04 2.86 1.467 0 3.227-.293 5.28-.88 2.2-.587 4.62-1.98 7.26-4.18 2.64-2.2 5.354-5.647 8.14-10.34l5.72 3.74c-4.253 7.48-8.873 13.2-13.86 17.16-4.84 3.813-10.78 5.72-17.82 5.72-5.72 0-10.266-1.173-13.64-3.52-3.226-2.493-5.573-5.72-7.04-9.68-1.466-3.96-2.2-8.213-2.2-12.76 0-5.573.22-12.32.66-20.24.44-8.067 1.1-16.94 1.98-26.62.88-9.827 1.907-20.02 3.08-30.58l-19.58.22.66-9.24c10.12 0 17.6-2.713 22.44-8.14 4.84-5.427 8.654-13.053 11.44-22.88h8.36Zm70.237 28.6c5.28 0 10.267.807 14.96 2.42 4.693 1.613 8.507 4.253 11.44 7.92s4.4 8.653 4.4 14.96c0 6.013-2.053 11.22-6.16 15.62-4.107 4.4-9.46 8.067-16.06 11-6.6 2.787-13.64 5.06-21.12 6.82-7.48 1.76-14.667 3.007-21.56 3.74 0 9.093.88 16.72 2.64 22.88 1.907 6.16 4.693 10.78 8.36 13.86s8.36 4.62 14.08 4.62c4.253 0 8.507-.953 12.76-2.86 4.4-1.907 8.58-4.767 12.54-8.58 3.96-3.96 7.553-9.02 10.78-15.18l7.26 4.18c-4.107 7.627-8.507 13.933-13.2 18.92-4.693 4.987-9.827 8.653-15.4 11-5.573 2.347-11.733 3.52-18.48 3.52-13.933 0-24.2-4.327-30.8-12.98-6.6-8.8-9.9-20.313-9.9-34.54 0-8.507 1.1-16.793 3.3-24.86 2.2-8.067 5.5-15.253 9.9-21.56 4.4-6.453 9.973-11.513 16.72-15.18 6.747-3.813 14.593-5.72 23.54-5.72Zm-3.08 7.48c-6.747 0-12.32 2.273-16.72 6.82-4.253 4.547-7.553 10.413-9.9 17.6-2.2 7.187-3.593 14.74-4.18 22.66 7.773-1.027 15.18-2.86 22.22-5.5 7.04-2.64 12.833-6.013 17.38-10.12 4.547-4.253 6.82-9.167 6.82-14.74 0-4.693-1.32-8.653-3.96-11.88-2.493-3.227-6.38-4.84-11.66-4.84Z"/></mask><path d="M422.04 114.56c17.014 0 29.994 3.007 38.94 9.02 9.094 6.013 13.2 15.547 12.32 28.6-.293 4.693-1.833 9.387-4.62 14.08-2.786 4.693-6.893 8.873-12.32 12.54-5.426 3.52-12.246 6.013-20.46 7.48v.44c16.134 0 28.014 3.74 35.64 11.22 7.627 7.333 11.074 16.647 10.34 27.94-.44 8.947-3.08 16.647-7.92 23.1-4.693 6.453-11 11.44-18.92 14.96-7.773 3.373-16.646 5.06-26.62 5.06h-63.58l.44-7.26c5.574-.147 9.46-1.393 11.66-3.74 2.2-2.493 3.52-5.793 3.96-9.9.44-4.253.807-9.093 1.1-14.52l4.84-92.4c.147-3.96.367-7.333.66-10.12.294-2.933.587-5.353.88-7.26-2.64.147-5.353.293-8.14.44l-7.92.44.66-9.68c8.067 0 16.06-.073 23.98-.22 7.92-.147 16.28-.22 25.08-.22Zm3.08 78.1c-4.4 0-8.433.073-12.1.22-3.52 0-7.04.147-10.56.44l-2.64 49.5c-.146 3.96-.366 7.333-.66 10.12-.293 2.787-.586 5.133-.88 7.04 2.347.147 5.134.293 8.36.44h14.96c11.294 0 20.534-2.787 27.72-8.36 7.334-5.573 11.294-13.86 11.88-24.86.44-8.653-1.026-15.473-4.4-20.46-3.226-5.133-7.626-8.727-13.2-10.78-5.573-2.2-11.733-3.3-18.48-3.3Zm-2.42-70.18c-4.693 0-8.286.66-10.78 1.98-2.346 1.32-4.033 3.52-5.06 6.6-.88 3.08-1.466 7.333-1.76 12.76l-2.2 40.92h8.36c2.787-.147 5.354-.293 7.7-.44 8.36-.44 15.034-2.273 20.02-5.5 5.134-3.227 8.874-7.26 11.22-12.1 2.347-4.987 3.594-10.193 3.74-15.62.294-7.92-1.173-13.933-4.4-18.04-3.226-4.107-7.333-6.893-12.32-8.36-4.84-1.467-9.68-2.2-14.52-2.2Zm74.611 34.1c6.16 0 10.78 2.127 13.86 6.38 3.08 4.107 4.62 9.607 4.62 16.5 0 4.4-.44 9.46-1.32 15.18-.733 5.573-1.687 11.587-2.86 18.04a419.397 419.397 0 0 0-3.08 19.58c-.733 6.453-1.1 12.76-1.1 18.92 0 2.933.513 5.207 1.54 6.82 1.173 1.613 2.933 2.42 5.28 2.42 2.493 0 5.207-1.613 8.14-4.84 3.08-3.227 5.72-8.727 7.92-16.5l6.16 1.32c-.587 3.08-1.613 6.453-3.08 10.12-1.32 3.52-3.08 6.893-5.28 10.12a29.097 29.097 0 0 1-8.14 7.7c-3.08 2.053-6.673 3.08-10.78 3.08-6.747 0-11.733-1.76-14.96-5.28-3.227-3.52-4.84-8.653-4.84-15.4 0-6.453.44-12.687 1.32-18.7.88-6.16 1.833-12.173 2.86-18.04a386.6 386.6 0 0 0 3.08-18.04 127.47 127.47 0 0 0 1.32-18.48c0-1.907-.44-4.033-1.32-6.38-.733-2.347-2.347-3.52-4.84-3.52-2.347 0-5.06 1.613-8.14 4.84-3.08 3.227-5.72 8.727-7.92 16.5l-6.16-1.32c.44-2.64 1.32-5.647 2.64-9.02 1.32-3.52 3.08-6.967 5.28-10.34 2.347-3.373 5.133-6.16 8.36-8.36 3.227-2.2 7.04-3.3 11.44-3.3Zm12.54-47.52c3.373 0 6.16 1.173 8.36 3.52 2.2 2.2 3.3 5.207 3.3 9.02 0 3.667-1.173 6.673-3.52 9.02-2.347 2.2-5.133 3.3-8.36 3.3-3.227 0-6.013-1.1-8.36-3.3-2.2-2.347-3.3-5.353-3.3-9.02 0-3.813 1.173-6.82 3.52-9.02 2.347-2.347 5.133-3.52 8.36-3.52Zm53.068 18.92-3.96 31.02h34.98l-.66 8.36-35.2.44c-.586 6.16-1.32 12.54-2.2 19.14a869.218 869.218 0 0 0-1.98 19.36c-.586 6.453-1.1 12.687-1.54 18.7-.44 5.867-.66 11.22-.66 16.06 0 2.787.147 5.72.44 8.8.44 2.933 1.394 5.427 2.86 7.48 1.467 1.907 3.814 2.86 7.04 2.86 1.467 0 3.227-.293 5.28-.88 2.2-.587 4.62-1.98 7.26-4.18 2.64-2.2 5.354-5.647 8.14-10.34l5.72 3.74c-4.253 7.48-8.873 13.2-13.86 17.16-4.84 3.813-10.78 5.72-17.82 5.72-5.72 0-10.266-1.173-13.64-3.52-3.226-2.493-5.573-5.72-7.04-9.68-1.466-3.96-2.2-8.213-2.2-12.76 0-5.573.22-12.32.66-20.24.44-8.067 1.1-16.94 1.98-26.62.88-9.827 1.907-20.02 3.08-30.58l-19.58.22.66-9.24c10.12 0 17.6-2.713 22.44-8.14 4.84-5.427 8.654-13.053 11.44-22.88h8.36Zm70.237 28.6c5.28 0 10.267.807 14.96 2.42 4.693 1.613 8.507 4.253 11.44 7.92s4.4 8.653 4.4 14.96c0 6.013-2.053 11.22-6.16 15.62-4.107 4.4-9.46 8.067-16.06 11-6.6 2.787-13.64 5.06-21.12 6.82-7.48 1.76-14.667 3.007-21.56 3.74 0 9.093.88 16.72 2.64 22.88 1.907 6.16 4.693 10.78 8.36 13.86s8.36 4.62 14.08 4.62c4.253 0 8.507-.953 12.76-2.86 4.4-1.907 8.58-4.767 12.54-8.58 3.96-3.96 7.553-9.02 10.78-15.18l7.26 4.18c-4.107 7.627-8.507 13.933-13.2 18.92-4.693 4.987-9.827 8.653-15.4 11-5.573 2.347-11.733 3.52-18.48 3.52-13.933 0-24.2-4.327-30.8-12.98-6.6-8.8-9.9-20.313-9.9-34.54 0-8.507 1.1-16.793 3.3-24.86 2.2-8.067 5.5-15.253 9.9-21.56 4.4-6.453 9.973-11.513 16.72-15.18 6.747-3.813 14.593-5.72 23.54-5.72Zm-3.08 7.48c-6.747 0-12.32 2.273-16.72 6.82-4.253 4.547-7.553 10.413-9.9 17.6-2.2 7.187-3.593 14.74-4.18 22.66 7.773-1.027 15.18-2.86 22.22-5.5 7.04-2.64 12.833-6.013 17.38-10.12 4.547-4.253 6.82-9.167 6.82-14.74 0-4.693-1.32-8.653-3.96-11.88-2.493-3.227-6.38-4.84-11.66-4.84Z" fill="#2D2110"/><path d="m460.98 123.58-2.231 3.32.012.008.013.008 2.206-3.336Zm12.32 28.6-3.991-.269v.01l-.001.009 3.992.25Zm-4.62 14.08 3.44 2.042-3.44-2.042Zm-12.32 12.54 2.177 3.356.032-.021.031-.021-2.24-3.314Zm-20.46 7.48-.703-3.938-3.297.589v3.349h4Zm0 .44h-4v4h4v-4Zm35.64 11.22-2.801 2.856.015.014.014.013 2.772-2.883Zm10.34 27.94-3.991-.259-.002.031-.002.032 3.995.196Zm-7.92 23.1-3.2-2.4-.017.024-.018.023 3.235 2.353Zm-18.92 14.96 1.593 3.669.016-.007.016-.007-1.625-3.655Zm-90.2 5.06-3.992-.242-.258 4.242h4.25v-4Zm.44-7.26-.105-3.999-3.666.097-.221 3.66 3.992.242Zm11.66-3.74 2.918 2.736.042-.044.04-.046-3-2.646Zm3.96-9.9 3.977.426.001-.007.001-.007-3.979-.412Zm1.1-14.52 3.994.216.001-.007-3.995-.209Zm4.84-92.4 3.995.209.001-.03.001-.031-3.997-.148Zm.66-10.12 3.978.419.001-.011.001-.01-3.98-.398Zm.88-7.26 3.954.608.75-4.875-4.926.273.222 3.994Zm-8.14.44-.21-3.994h-.012l.222 3.994Zm-7.92.44-3.991-.272-.307 4.517 4.52-.251-.222-3.994Zm.66-9.68v-4h-3.736l-.255 3.728 3.991.272Zm40.04 77.88v4h.08l.08-.003-.16-3.997Zm-10.56.44-.332-3.986-3.476.29-.186 3.483 3.994.213Zm-2.64 49.5-3.994-.213-.002.032-.001.033 3.997.148Zm-.66 10.12-3.978-.419 3.978.419Zm-.88 7.04-3.953-.608-.666 4.327 4.37.273.249-3.992Zm8.36.44-.181 3.996.09.004h.091v-4Zm42.68-8.36-2.42-3.185-.016.012-.015.012 2.451 3.161Zm11.88-24.86 3.995.213v-.01l-3.995-.203Zm-4.4-20.46-3.386 2.129.035.057.038.055 3.313-2.241Zm-13.2-10.78-1.468 3.721.042.016.043.016 1.383-3.753Zm-31.68-71.5-1.871-3.535-.045.024-.045.025 1.961 3.486Zm-5.06 6.6-3.795-1.265-.027.083-.024.083 3.846 1.099Zm-1.76 12.76-3.994-.216v.001l3.994.215Zm-2.2 40.92-3.994-.215-.227 4.215h4.221v-4Zm8.36 0v4h.105l.105-.006-.21-3.994Zm7.7-.44-.21-3.994-.02.001-.019.001.249 3.992Zm20.02-5.5-2.128-3.387-.023.014-.022.015 2.173 3.358Zm11.22-12.1 3.599 1.745.011-.021.01-.021-3.62-1.703Zm3.74-15.62-3.997-.148-.001.02v.02l3.998.108Zm-4.4-18.04-3.145 2.471 3.145-2.471Zm-12.32-8.36-1.16 3.828.016.005.016.004 1.128-3.837Zm-15.18-6.12c16.642 0 28.702 2.958 36.709 8.34l4.463-6.64c-9.887-6.645-23.787-9.7-41.172-9.7v8Zm36.734 8.356c7.634 5.049 11.341 13.037 10.535 24.995l7.982.538c.954-14.149-3.552-25.227-14.104-32.205l-4.413 6.672Zm10.534 25.014c-.248 3.966-1.552 8.052-4.067 12.288l6.879 4.084c3.058-5.151 4.834-10.452 5.172-15.872l-7.984-.5Zm-4.067 12.288c-2.431 4.094-6.086 7.866-11.12 11.268l4.479 6.628c5.819-3.932 10.378-8.52 13.52-13.812l-6.879-4.084Zm-11.058 11.226c-4.869 3.159-11.152 5.499-18.986 6.898l1.406 7.876c8.593-1.535 15.951-4.181 21.934-8.062l-4.354-6.712ZM431.9 186.28v.44h8v-.44h-8Zm4 4.44c15.611 0 26.266 3.629 32.839 10.076l5.602-5.712c-8.68-8.513-21.785-12.364-38.441-12.364v8Zm32.868 10.103c6.712 6.454 9.784 14.587 9.121 24.798l7.983.518c.803-12.376-3.018-22.87-11.559-31.082l-5.545 5.766Zm9.117 24.861c-.405 8.24-2.816 15.151-7.125 20.896l6.4 4.8c5.371-7.162 8.241-15.651 8.715-25.304l-7.99-.392Zm-7.16 20.943c-4.245 5.837-9.974 10.398-17.309 13.658l3.249 7.31c8.505-3.78 15.389-9.193 20.53-16.262l-6.47-4.706Zm-17.277 13.644c-7.19 3.12-15.507 4.729-25.028 4.729v8c10.426 0 19.856-1.764 28.213-5.391l-3.185-7.338ZM428.42 265h-63.58v8h63.58v-8Zm-59.587 4.242.44-7.26-7.985-.484-.44 7.26 7.985.484Zm-3.448-3.503c5.913-.156 11.161-1.47 14.473-5.003l-5.836-5.472c-1.087 1.16-3.613 2.34-8.847 2.477l.21 7.998Zm14.555-5.093c2.868-3.25 4.431-7.391 4.937-12.12l-7.954-.852c-.373 3.484-1.45 5.944-2.982 7.68l5.999 5.292Zm4.939-12.134c.448-4.333.819-9.241 1.115-14.716l-7.988-.432c-.291 5.378-.653 10.151-1.085 14.324l7.958.824Zm1.116-14.723 4.84-92.4-7.989-.418-4.84 92.4 7.989.418Zm4.842-92.461c.145-3.903.36-7.181.641-9.849l-7.956-.838c-.306 2.905-.53 6.374-.679 10.391l7.994.296Zm.643-9.87c.29-2.895.575-5.239.854-7.05l-7.907-1.216c-.308 2.002-.61 4.499-.907 7.47l7.96.796Zm-3.322-11.652c-2.636.147-5.345.293-8.128.44l.42 7.988c2.791-.146 5.508-.293 8.152-.44l-.444-7.988Zm-8.14.44-7.92.44.444 7.988 7.92-.44-.444-7.988Zm-3.707 4.706.66-9.68-7.982-.544-.66 9.68 7.982.544ZM372.98 119c8.091 0 16.109-.074 24.054-.221l-.148-7.998c-7.895.146-15.863.219-23.906.219v8Zm24.054-.221a1354.89 1354.89 0 0 1 25.006-.219v-8c-8.822 0-17.207.074-25.154.221l.148 7.998Zm28.086 69.881c-4.443 0-8.531.074-12.26.223l.32 7.994c3.604-.144 7.583-.217 11.94-.217v-8Zm-12.1.22c-3.631 0-7.262.151-10.892.454l.664 7.972c3.41-.284 6.819-.426 10.228-.426v-8Zm-14.554 4.227-2.64 49.5 7.989.426 2.64-49.5-7.989-.426Zm-2.643 49.565c-.145 3.903-.36 7.181-.641 9.849l7.956.838c.306-2.905.531-6.374.679-10.391l-7.994-.296Zm-.641 9.849c-.289 2.749-.575 5.028-.855 6.851l7.907 1.216c.306-1.99.607-4.405.904-7.229l-7.956-.838Zm2.849 11.451c2.376.149 5.186.297 8.428.444l.363-7.992a496.411 496.411 0 0 1-8.292-.436l-.499 7.984Zm8.609.448H415.88v-8H406.64v8Zm9.24 0H421.6v-8H415.88v8Zm5.72 0c11.962 0 22.128-2.961 30.172-9.199l-4.903-6.322c-6.33 4.909-14.644 7.521-25.269 7.521v8Zm30.141-9.175c8.453-6.425 12.818-15.912 13.454-27.832l-7.989-.426c-.538 10.08-4.093 17.167-10.306 21.888l4.841 6.37Zm13.454-27.842c.465-9.152-1.049-16.944-5.082-22.904l-6.626 4.482c2.715 4.013 4.133 9.862 3.718 18.016l7.99.406Zm-5.008-22.792c-3.686-5.864-8.783-10.039-15.204-12.404l-2.766 7.506c4.726 1.741 8.43 4.754 11.197 9.156l6.773-4.258Zm-15.118-12.372c-6.096-2.406-12.762-3.579-19.949-3.579v8c6.307 0 11.961 1.027 17.012 3.021l2.937-7.442ZM422.7 118.48c-4.964 0-9.319.681-12.651 2.445l3.743 7.07c1.654-.876 4.486-1.515 8.908-1.515v-8Zm-12.741 2.494c-3.383 1.903-5.621 5.003-6.894 8.821l7.59 2.53c.781-2.342 1.916-3.642 3.226-4.379l-3.922-6.972Zm-6.945 8.987c-.999 3.499-1.608 8.093-1.908 13.643l7.988.432c.287-5.304.852-9.216 1.612-11.877l-7.692-2.198Zm-1.908 13.644-2.2 40.92 7.988.43 2.2-40.92-7.988-.43Zm1.794 45.135H411.26v-8H402.9v8Zm8.57-.006c2.798-.147 5.378-.294 7.74-.442l-.499-7.984a804.72 804.72 0 0 1-7.661.438l.42 7.988Zm7.7-.44c8.788-.462 16.217-2.405 21.983-6.136l-4.346-6.716c-4.207 2.722-10.125 4.446-18.057 4.864l.42 7.988Zm21.939-6.107c5.685-3.574 9.977-8.145 12.69-13.742l-7.198-3.49c-1.98 4.083-5.167 7.578-9.749 10.458l4.257 6.774Zm12.711-13.784c2.578-5.478 3.957-11.228 4.119-17.215l-7.997-.216c-.132 4.866-1.246 9.53-3.361 14.025l7.239 3.406Zm4.117-17.175c.311-8.396-1.203-15.507-5.252-20.659l-6.29 4.942c2.405 3.061 3.824 7.977 3.548 15.421l7.994.296Zm-5.252-20.659c-3.737-4.758-8.547-8.024-14.336-9.726l-2.257 7.674c4.184 1.231 7.587 3.538 10.303 6.994l6.29-4.942Zm-14.305-9.717c-5.199-1.576-10.429-2.372-15.68-2.372v8c4.43 0 8.879.67 13.36 2.028l2.32-7.656Zm72.791 42.108-3.24 2.346.02.027.02.027 3.2-2.4Zm3.3 31.68-3.953-.608-.007.043-.006.043 3.966.522Zm-5.94 37.62-3.965-.529-.005.039-.004.038 3.974.452Zm.44 25.74-3.374 2.148.066.104.073.101 3.235-2.353Zm13.42-2.42-2.893-2.762-.034.035-.033.036 2.96 2.691Zm7.92-16.5.838-3.911-3.666-.786-1.021 3.608 3.849 1.089Zm6.16 1.32 3.93.748.731-3.84-3.823-.819-.838 3.911Zm-3.08 10.12-3.714-1.486-.016.041-.015.041 3.745 1.404Zm-5.28 10.12 3.255 2.325.025-.036.025-.036-3.305-2.253Zm-8.14 7.7-2.147-3.375-.036.023-.036.024 2.219 3.328Zm-25.74-2.2 2.949-2.703-2.949 2.703Zm-3.52-34.1 3.958.579.002-.013-3.96-.566Zm2.86-18.04-3.926-.766-.007.038-.007.038 3.94.69Zm3.08-18.04 3.958.579-3.958-.579Zm0-24.86-3.818 1.193.034.107.039.104 3.745-1.404Zm-12.98 1.32 2.894 2.762-2.894-2.762Zm-7.92 16.5-.838 3.911 3.666.786 1.021-3.608-3.849-1.089Zm-6.16-1.32-3.945-.658-.628 3.769 3.735.8.838-3.911Zm2.64-9.02 3.725 1.458.01-.027.01-.027-3.745-1.404Zm5.28-10.34-3.283-2.284-.035.049-.032.05 3.35 2.185Zm8.36-8.36 2.253 3.305-2.253-3.305Zm32.34-47.3-2.918 2.736.044.047.046.045 2.828-2.828Zm-.22 18.04 2.736 2.918.047-.044.046-.046-2.829-2.828Zm-16.72 0-2.918 2.736.088.094.094.088 2.736-2.918Zm.22-18.04 2.736 2.918.047-.044.046-.046-2.829-2.828Zm-4.18 48c5.13 0 8.43 1.701 10.62 4.726l6.48-4.692c-3.969-5.481-9.91-8.034-17.1-8.034v8Zm10.66 4.78c2.409 3.211 3.82 7.778 3.82 14.1h8c0-7.465-1.668-13.898-5.42-18.9l-6.4 4.8Zm3.82 14.1c0 4.144-.415 8.994-1.273 14.572l7.907 1.216c.902-5.862 1.366-11.132 1.366-15.788h-8Zm-1.286 14.658c-.723 5.499-1.666 11.447-2.829 17.846l7.871 1.432c1.183-6.508 2.147-12.586 2.89-18.234l-7.932-1.044Zm-2.829 17.846a422.729 422.729 0 0 0-3.11 19.767l7.93 1.058a414.948 414.948 0 0 1 3.051-19.393l-7.871-1.432Zm-3.119 19.844c-.75 6.596-1.126 13.053-1.126 19.372h8c0-6.001.357-12.157 1.075-18.468l-7.949-.904Zm-1.126 19.372c0 3.318.567 6.456 2.166 8.968l6.749-4.296c-.455-.714-.915-2.123-.915-4.672h-8Zm2.305 9.173c2.065 2.839 5.145 4.067 8.515 4.067v-8c-1.324 0-1.764-.386-2.045-.773l-6.47 4.706Zm8.515 4.067c4.224 0 7.942-2.675 11.1-6.149l-5.92-5.382c-2.708 2.98-4.417 3.531-5.18 3.531v8Zm11.034-6.078c3.761-3.941 6.62-10.204 8.875-18.173l-7.698-2.178c-2.144 7.578-4.566 12.315-6.964 14.827l5.787 5.524Zm4.188-15.351 6.16 1.32 1.676-7.822-6.16-1.32-1.676 7.822Zm3.069-3.339c-.528 2.773-1.47 5.896-2.865 9.382l7.428 2.972c1.539-3.847 2.65-7.471 3.296-10.858l-7.859-1.496Zm-2.896 9.464c-1.204 3.209-2.813 6.298-4.84 9.271l6.61 4.506c2.373-3.48 4.284-7.138 5.72-10.969l-7.49-2.808Zm-4.79 9.199a25.089 25.089 0 0 1-7.032 6.65l4.295 6.75a33.103 33.103 0 0 0 9.247-8.75l-6.51-4.65Zm-7.104 6.697c-2.352 1.568-5.154 2.408-8.561 2.408v8c4.807 0 9.191-1.213 12.999-3.752l-4.438-6.656Zm-8.561 2.408c-6.1 0-9.812-1.584-12.011-3.983l-5.897 5.406c4.254 4.641 10.515 6.577 17.908 6.577v-8Zm-12.011-3.983c-2.316-2.526-3.789-6.539-3.789-12.697h-8c0 7.335 1.754 13.589 5.892 18.103l5.897-5.406Zm-3.789-12.697c0-6.271.428-12.311 1.278-18.121l-7.916-1.158c-.909 6.216-1.362 12.644-1.362 19.279h8Zm1.28-18.134a577.644 577.644 0 0 1 2.84-17.916l-7.88-1.38a588.91 588.91 0 0 0-2.88 18.164l7.92 1.132Zm2.826-17.84a390.206 390.206 0 0 0 3.112-18.227l-7.916-1.158a380.367 380.367 0 0 1-3.048 17.853l7.852 1.532Zm3.112-18.227a131.488 131.488 0 0 0 1.362-19.059h-8c0 6.12-.427 12.086-1.278 17.901l7.916 1.158Zm1.362-19.059c0-2.511-.576-5.122-1.575-7.784l-7.49 2.808c.761 2.032 1.065 3.673 1.065 4.976h8Zm-1.502-7.573c-.562-1.8-1.575-3.482-3.225-4.682-1.645-1.196-3.554-1.645-5.433-1.645v8c.312 0 .504.037.606.066.051.014.081.028.097.035a.1.1 0 0 1 .024.014c.003.002.008.005.017.015.009.01.028.031.053.069.051.076.138.233.225.514l7.636-2.386Zm-8.658-6.327c-4.086 0-7.808 2.699-11.033 6.078l5.787 5.524c2.934-3.074 4.639-3.602 5.246-3.602v-8Zm-11.033 6.078c-3.762 3.941-6.62 10.204-8.876 18.173l7.698 2.178c2.145-7.578 4.566-12.315 6.965-14.827l-5.787-5.524Zm-4.189 15.351-6.16-1.32-1.676 7.822 6.16 1.32 1.676-7.822Zm-3.052 3.249c.381-2.29 1.167-5.021 2.419-8.22l-7.45-2.916c-1.388 3.548-2.362 6.83-2.86 9.82l7.891 1.316Zm2.439-8.274c1.211-3.227 2.834-6.413 4.886-9.559l-6.701-4.37c-2.349 3.601-4.245 7.308-5.675 11.121l7.49 2.808Zm4.819-9.46c2.083-2.994 4.526-5.428 7.329-7.339l-4.506-6.61c-3.65 2.489-6.78 5.628-9.39 9.381l6.567 4.568Zm7.329-7.339c2.481-1.691 5.485-2.605 9.187-2.605v-8c-5.098 0-9.72 1.286-13.693 3.995l4.506 6.61Zm21.727-50.125c2.328 0 4.039.759 5.442 2.256l5.836-5.472c-2.996-3.196-6.859-4.784-11.278-4.784v8Zm5.532 2.348c1.287 1.288 2.128 3.185 2.128 6.192h8c0-4.62-1.359-8.736-4.471-11.848l-5.657 5.656Zm2.128 6.192c0 2.728-.834 4.677-2.348 6.192l5.657 5.656c3.179-3.179 4.691-7.243 4.691-11.848h-8Zm-2.256 6.102c-1.602 1.502-3.41 2.218-5.624 2.218v8c4.24 0 8.005-1.484 11.096-4.382l-5.472-5.836Zm-5.624 2.218c-2.214 0-4.021-.716-5.624-2.218l-5.472 5.836c3.091 2.898 6.857 4.382 11.096 4.382v-8Zm-5.442-2.036c-1.407-1.5-2.218-3.481-2.218-6.284h-8c0 4.53 1.389 8.563 4.382 11.756l5.836-5.472Zm-2.218-6.284c0-2.93.865-4.798 2.256-6.102l-5.472-5.836c-3.302 3.096-4.784 7.242-4.784 11.938h8Zm2.349-6.192c1.62-1.62 3.399-2.348 5.531-2.348v-8c-4.321 0-8.115 1.619-11.188 4.692l5.657 5.656Zm58.599 12.572 3.968.507.575-4.507h-4.543v4Zm-3.96 31.02-3.967-.507-.576 4.507h4.543v-4Zm34.98 0 3.988.315.341-4.315h-4.329v4Zm-.66 8.36.05 4 3.651-.046.287-3.639-3.988-.315Zm-35.2.44-.05-4-3.591.045-.341 3.576 3.982.379Zm-2.2 19.14-3.965-.529-.005.039-.004.038 3.974.452Zm-1.98 19.36 3.984.362-3.984-.362Zm-1.54 18.7 3.989.299.001-.007-3.99-.292Zm-.22 24.86-3.982.379.011.108.016.106 3.955-.593Zm2.86 7.48-3.255 2.325.042.058.043.056 3.17-2.439Zm12.32 1.98-1.03-3.865-.035.009-.034.01 1.099 3.846Zm15.4-14.52 2.189-3.348-3.496-2.286-2.132 3.592 3.439 2.042Zm5.72 3.74 3.477 1.977 1.859-3.268-3.147-2.057-2.189 3.348Zm-13.86 17.16 2.476 3.142.006-.005.006-.005-2.488-3.132Zm-31.46 2.2-2.445 3.165.079.061.082.058 2.284-3.284Zm-7.04-9.68 3.751-1.389-3.751 1.389Zm-1.54-33 3.994.222v-.004l-3.994-.218Zm1.98-26.62 3.984.362v-.005l-3.984-.357Zm3.08-30.58 3.976.442.499-4.493-4.52.051.045 4Zm-19.58.22-3.99-.285-.309 4.334 4.344-.049-.045-4Zm.66-9.24v-4h-3.724l-.266 3.715 3.99.285Zm22.44-8.14-2.985-2.662 2.985 2.662Zm11.44-22.88v-4h-3.023l-.825 2.909 3.848 1.091Zm4.393-.507-3.96 31.02 7.935 1.014 3.96-31.02-7.935-1.014Zm.007 35.527h34.98v-8h-34.98v8Zm30.993-4.315-.66 8.36 7.975.63.66-8.36-7.975-.63Zm3.277 4.675-35.2.44.1 8 35.2-.44-.1-8Zm-39.132 4.061a507.515 507.515 0 0 1-2.183 18.99l7.93 1.058a515.472 515.472 0 0 0 2.217-19.29l-7.964-.758Zm-2.192 19.067a865.46 865.46 0 0 0-1.989 19.45l7.967.724a861.158 861.158 0 0 1 1.971-19.27l-7.949-.904Zm-1.989 19.45a1068.402 1068.402 0 0 0-1.546 18.77l7.979.584c.438-5.988.949-12.198 1.534-18.63l-7.967-.724Zm-1.545 18.763c-.446 5.946-.672 11.401-.672 16.359h8c0-4.722.215-9.973.649-15.761l-7.977-.598Zm-.672 16.359c0 2.926.154 5.987.458 9.179l7.964-.758a89.198 89.198 0 0 1-.422-8.421h-8Zm.485 9.393c.517 3.449 1.667 6.562 3.56 9.212l6.51-4.65c-1.04-1.457-1.796-3.33-2.159-5.748l-7.911 1.186Zm3.645 9.326c2.464 3.204 6.198 4.421 10.21 4.421v-8c-2.441 0-3.4-.689-3.869-1.299l-6.341 4.878Zm10.21 4.421c1.966 0 4.116-.387 6.379-1.034l-2.198-7.692c-1.843.526-3.213.726-4.181.726v8Zm6.311-1.015c2.974-.793 5.91-2.572 8.79-4.972l-5.121-6.146c-2.401 2-4.304 3.008-5.73 3.388l2.061 7.73Zm8.79-4.972c3.133-2.611 6.12-6.489 9.019-11.371l-6.879-4.084c-2.675 4.504-5.115 7.52-7.261 9.309l5.121 6.146Zm3.39-10.065 5.72 3.74 4.378-6.696-5.72-3.74-4.378 6.696Zm4.432-1.585c-4.084 7.182-8.398 12.453-12.87 16.005l4.975 6.264c5.501-4.368 10.427-10.537 14.849-18.315l-6.954-3.954Zm-12.858 15.995c-4.036 3.18-9.068 4.862-15.345 4.862v8c7.804 0 14.652-2.131 20.296-6.578l-4.951-6.284Zm-15.345 4.862c-5.213 0-8.869-1.074-11.355-2.804l-4.569 6.568c4.26 2.963 9.698 4.236 15.924 4.236v-8Zm-11.194-2.685c-2.612-2.019-4.518-4.62-5.735-7.904l-7.502 2.778c1.717 4.636 4.504 8.488 8.346 11.456l4.891-6.33Zm-5.735-7.904c-1.289-3.483-1.951-7.262-1.951-11.371h-8c0 4.984.806 9.712 2.449 14.149l7.502-2.778Zm-1.951-11.371c0-5.476.217-12.144.654-20.018l-7.988-.444c-.442 7.966-.666 14.791-.666 20.462h8Zm.654-20.022c.437-8.01 1.093-16.835 1.97-26.476l-7.967-.724c-.884 9.719-1.548 18.641-1.991 26.764l7.988.436Zm1.97-26.481c.878-9.796 1.901-19.961 3.072-30.495l-7.951-.884a1448.92 1448.92 0 0 0-3.089 30.665l7.968.714Zm-.949-34.937-19.58.22.09 8 19.58-.22-.09-8Zm-15.545 4.505.66-9.24-7.98-.57-.66 9.24 7.98.57Zm-3.33-5.525c10.798 0 19.565-2.907 25.426-9.478l-5.971-5.324c-3.819 4.282-10.012 6.802-19.455 6.802v8Zm25.426-9.478c5.371-6.023 9.413-14.262 12.303-24.451l-7.697-2.182c-2.684 9.465-6.269 16.478-10.577 21.309l5.971 5.324Zm8.454-21.542h8.36v-8h-8.36v8ZM648.116 159l-1.3 3.783 1.3-3.783Zm11.44 7.92-3.124 2.499 3.124-2.499Zm-17.82 41.58 1.556 3.685.034-.015.035-.015-1.625-3.655Zm-21.12 6.82-.916-3.894.916 3.894Zm-21.56 3.74-.423-3.978-3.577.381v3.597h4Zm2.64 22.88-3.846 1.099.012.042.013.042 3.821-1.183Zm8.36 13.86-2.573 3.063 2.573-3.063Zm26.84 1.76-1.59-3.67-.023.01-.023.01 1.636 3.65Zm12.54-8.58 2.775 2.881.027-.026.026-.027-2.828-2.828Zm10.78-15.18 1.996-3.466-3.608-2.078-1.931 3.688 3.543 1.856Zm7.26 4.18 3.522 1.896 1.843-3.423-3.369-1.939-1.996 3.466Zm-13.2 18.92-2.913-2.741 2.913 2.741Zm-15.4 11 1.552 3.687-1.552-3.687Zm-49.28-9.46-3.2 2.4.01.013.009.013 3.181-2.426Zm-6.6-59.4-3.859-1.052 3.859 1.052Zm9.9-21.56 3.28 2.289.013-.018.012-.018-3.305-2.253Zm16.72-15.18 1.91 3.514.029-.015.029-.017-1.968-3.482Zm3.74 8.58-2.874-2.782-.024.025-.023.024 2.921 2.733Zm-9.9 17.6-3.802-1.242-.012.036-.011.035 3.825 1.171Zm-4.18 22.66-3.989-.295-.363 4.905 4.876-.644-.524-3.966Zm22.22-5.5 1.404 3.745-1.404-3.745Zm17.38-10.12 2.681 2.968.026-.023.026-.024-2.733-2.921Zm2.86-26.62-3.165 2.446.034.044.035.043 3.096-2.533Zm-8.58-8.32c4.866 0 9.411.742 13.66 2.203l2.6-7.566c-5.138-1.766-10.566-2.637-16.26-2.637v8Zm13.66 2.203c4.019 1.381 7.184 3.596 9.616 6.636l6.247-4.998c-3.434-4.293-7.895-7.359-13.263-9.204l-2.6 7.566Zm9.616 6.636c2.199 2.747 3.524 6.751 3.524 12.461h8c0-6.904-1.608-12.873-5.277-17.459l-6.247 4.998Zm3.524 12.461c0 4.999-1.668 9.231-5.084 12.891l5.848 5.458c4.797-5.14 7.236-11.321 7.236-18.349h-8Zm-5.084 12.891c-3.675 3.937-8.555 7.316-14.761 10.074l3.25 7.31c6.994-3.109 12.82-7.063 17.359-11.926l-5.848-5.458Zm-14.692 10.044c-6.379 2.693-13.203 4.899-20.48 6.611l1.832 7.788c7.683-1.808 14.939-4.149 21.76-7.029l-3.112-7.37Zm-20.48 6.611c-7.335 1.726-14.356 2.943-21.067 3.656l.846 7.956c7.076-.753 14.428-2.03 22.053-3.824l-1.832-7.788Zm-24.644 7.634c0 9.323.899 17.347 2.794 23.979l7.692-2.198c-1.625-5.688-2.486-12.917-2.486-21.781h-8Zm2.819 24.063c2.057 6.646 5.183 12.022 9.608 15.74l5.146-6.126c-2.908-2.442-5.356-6.306-7.112-11.98l-7.642 2.366Zm9.608 15.74c4.522 3.798 10.183 5.557 16.653 5.557v-8c-4.97 0-8.695-1.321-11.507-3.683l-5.146 6.126Zm16.653 5.557c4.869 0 9.678-1.095 14.396-3.21l-3.272-7.3c-3.789 1.698-7.487 2.51-11.124 2.51v8Zm14.35-3.19c4.898-2.122 9.47-5.272 13.725-9.369l-5.55-5.762c-3.665 3.529-7.453 6.1-11.355 7.791l3.18 7.34Zm13.778-9.422c4.306-4.305 8.124-9.716 11.495-16.152l-7.086-3.712c-3.083 5.884-6.451 10.593-10.065 14.208l5.656 5.656Zm5.956-14.542 7.26 4.18 3.992-6.932-7.26-4.18-3.992 6.932Zm5.734-1.182c-3.983 7.396-8.19 13.398-12.591 18.075l5.826 5.482c4.985-5.297 9.578-11.908 13.809-19.765l-7.044-3.792Zm-12.591 18.075c-4.361 4.633-9.044 7.951-14.039 10.054l3.104 7.374c6.152-2.591 11.735-6.606 16.761-11.946l-5.826-5.482Zm-14.039 10.054c-5.028 2.118-10.653 3.207-16.928 3.207v8c7.218 0 13.914-1.257 20.032-3.833l-3.104-7.374Zm-16.928 3.207c-13.069 0-21.982-4.014-27.62-11.406l-6.361 4.852c7.563 9.915 19.184 14.554 33.981 14.554v-8Zm-27.6-11.38c-5.946-7.928-9.1-18.524-9.1-32.14h-8c0 14.837 3.446 27.268 10.7 36.94l6.4-4.8Zm-9.1-32.14c0-8.157 1.054-16.09 3.159-23.808l-7.718-2.104c-2.295 8.415-3.441 17.056-3.441 25.912h8Zm3.159-23.808c2.09-7.663 5.206-14.424 9.321-20.323l-6.561-4.578c-4.684 6.714-8.168 14.326-10.478 22.797l7.718 2.104Zm9.346-20.359c4.048-5.937 9.147-10.561 15.325-13.919l-3.82-7.029c-7.315 3.976-13.363 9.472-18.115 16.442l6.61 4.506Zm15.383-13.951c6.059-3.424 13.207-5.202 21.572-5.202v-8c-9.529 0-18.074 2.036-25.508 6.238l3.936 6.964Zm18.492-5.722c-7.75 0-14.387 2.657-19.594 8.038l5.748 5.564c3.593-3.713 8.103-5.602 13.846-5.602v-8Zm-19.641 8.087c-4.729 5.055-8.292 11.466-10.781 19.091l7.604 2.484c2.204-6.748 5.241-12.071 9.019-16.109l-5.842-5.466Zm-10.804 19.162c-2.292 7.487-3.737 15.335-4.344 23.536l7.978.59c.566-7.639 1.908-14.898 4.016-21.784l-7.65-2.342Zm.169 27.797c8.061-1.065 15.764-2.97 23.1-5.721l-2.809-7.49c-6.743 2.529-13.854 4.291-21.339 5.279l1.048 7.932Zm23.1-5.721c7.407-2.777 13.663-6.386 18.657-10.897l-5.362-5.936c-4.1 3.702-9.43 6.84-16.104 9.343l2.809 7.49Zm18.709-10.944c5.25-4.912 8.087-10.845 8.087-17.661h-8c0 4.331-1.71 8.224-5.553 11.819l5.466 5.842Zm8.087-17.661c0-5.494-1.566-10.382-4.864-14.413l-6.192 5.066c1.982 2.422 3.056 5.454 3.056 9.347h8Zm-4.795-14.326c-3.465-4.484-8.704-6.394-14.825-6.394v8c4.439 0 6.973 1.316 8.495 3.286l6.33-4.892Z" fill="#D6C5AE" mask="url('#path-1-outside-1_179_5')"/></g><defs><clipPath id="clip0_179_5"><path fill="#fff" d="M0 0h1032v379H0z"/></clipPath></defs></svg>