<svg width="1032" height="379" fill="none" xmlns="http://www.w3.org/2000/svg"><g clip-path="url('#clip0_180_7')"><mask id="path-1-outside-1_180_7" maskUnits="userSpaceOnUse" x="334" y="87" width="370" height="237" fill="#000"><path fill="#fff" d="M334 87h370v237H334z"/><path d="M417.234 91.37c9.46 0 17.93 1.76 25.41 5.28 7.48 3.3 13.31 7.92 17.49 13.86 4.4 5.72 6.6 12.21 6.6 19.47 0 4.84-1.21 8.8-3.63 11.88-2.42 2.86-5.83 4.29-10.23 4.29-5.28.22-9.02-1.32-11.22-4.62-1.98-3.3-2.97-6.16-2.97-8.58 0-1.98.22-4.07.66-6.27.66-2.2 1.87-4.29 3.63-6.27-1.1-6.16-4.18-10.56-9.24-13.2-4.84-2.86-10.45-4.29-16.83-4.29-9.46 0-17.38 2.53-23.76 7.59-6.38 5.06-11.44 11.66-15.18 19.8s-6.49 16.94-8.25 26.4c-1.54 9.24-2.31 18.26-2.31 27.06 0 15.4 1.65 27.83 4.95 37.29 3.52 9.24 8.36 15.95 14.52 20.13s13.09 6.27 20.79 6.27c5.72 0 11.66-1.21 17.82-3.63 6.16-2.64 12.1-6.93 17.82-12.87 5.72-6.16 10.67-14.52 14.85-25.08l11.55 5.61c-5.5 12.76-11.88 22.99-19.14 30.69-7.26 7.48-15.07 12.98-23.43 16.5-8.14 3.3-16.5 4.95-25.08 4.95-19.36 0-34.87-5.83-46.53-17.49-11.44-11.88-17.16-30.14-17.16-54.78 0-10.78 1.54-22 4.62-33.66 3.08-11.66 7.81-22.44 14.19-32.34 6.38-10.12 14.52-18.26 24.42-24.42 10.12-6.38 22-9.57 35.64-9.57Zm106.916 56.21c4.4 0 9.24.367 14.52 1.1 5.28.587 10.267 1.467 14.96 2.64l-3.52 26.4a2294.521 2294.521 0 0 1-3.08 24.86c-.88 7.773-1.613 14.813-2.2 21.12-.586 6.16-.88 11-.88 14.52 0 2.933.22 5.867.66 8.8.44 2.933 2.274 4.4 5.5 4.4 2.494 0 5.207-1.613 8.14-4.84 3.08-3.227 5.72-8.727 7.92-16.5l6.16 1.32c-.44 2.64-1.393 5.72-2.86 9.24-1.32 3.373-3.153 6.747-5.5 10.12-2.346 3.373-5.206 6.16-8.58 8.36-3.373 2.2-7.26 3.3-11.66 3.3-5.866 0-10.046-1.833-12.54-5.5-2.493-3.667-3.74-8.433-3.74-14.3 0-4.253.367-8.873 1.1-13.86.88-4.987 1.834-10.193 2.86-15.62h-.66c-3.52 10.853-7.186 19.58-11 26.18-3.666 6.453-7.406 11.367-11.22 14.74-3.666 3.373-7.26 5.573-10.78 6.6-3.52 1.173-6.82 1.76-9.9 1.76-7.92 0-14.593-2.933-20.02-8.8-5.28-5.867-7.92-15.693-7.92-29.48 0-10.267 1.32-20.02 3.96-29.26 2.64-9.24 6.6-17.38 11.88-24.42 5.427-7.187 12.174-12.76 20.24-16.72 8.067-4.107 17.454-6.16 28.16-6.16Zm-6.82 7.92c-6.6 0-12.393 1.833-17.38 5.5-4.84 3.667-8.873 8.653-12.1 14.96-3.226 6.16-5.646 13.127-7.26 20.9-1.466 7.627-2.2 15.473-2.2 23.54 0 9.387 1.027 17.16 3.08 23.32 2.054 6.013 5.794 9.02 11.22 9.02 3.96 0 7.92-1.98 11.88-5.94 4.107-3.96 7.92-9.24 11.44-15.84 3.52-6.747 6.674-14.227 9.46-22.44a191.645 191.645 0 0 0 6.6-25.52c1.614-8.653 2.42-16.94 2.42-24.86-2.2-.88-4.766-1.54-7.7-1.98-2.933-.44-6.086-.66-9.46-.66Zm104.688-62.7c5.426-.147 9.606.807 12.54 2.86 2.933 1.907 4.4 4.767 4.4 8.58 0 1.027-.294 2.273-.88 3.74-.44 1.467-1.32 2.713-2.64 3.74-1.32.88-3.08 1.32-5.28 1.32-2.787 0-4.987-1.027-6.6-3.08-1.614-2.053-2.347-4.693-2.2-7.92-.44-.293-1.32-.513-2.64-.66-1.32-.293-2.567-.367-3.74-.22-3.52.293-6.454 1.76-8.8 4.4-2.2 2.493-4.034 5.94-5.5 10.34-1.467 4.253-2.64 9.313-3.52 15.18-.88 5.72-1.614 12.027-2.2 18.92h31.24l-.66 8.58-31.24.44c-.147 3.813-.367 7.7-.66 11.66-.147 3.96-.367 8.067-.66 12.32a380.537 380.537 0 0 1-.66 12.54c-.294 4.107-.66 8.287-1.1 12.54a2367.347 2367.347 0 0 0-2.86 32.12c-.88 10.56-2.2 20.607-3.96 30.14-1.614 9.533-4.034 17.967-7.26 25.3-3.227 7.48-7.7 13.347-13.42 17.6-5.574 4.253-12.76 6.38-21.56 6.38-5.574 0-9.827-1.027-12.76-3.08-2.934-1.907-4.4-4.693-4.4-8.36 0-1.173.293-2.493.88-3.96.586-1.32 1.54-2.567 2.86-3.74 1.32-1.027 3.08-1.467 5.28-1.32 2.64.147 4.766 1.1 6.38 2.86 1.466 1.907 2.2 4.327 2.2 7.26 1.613 1.173 3.74 1.76 6.38 1.76 5.133 0 9.02-2.713 11.66-8.14 2.786-5.427 4.84-12.98 6.16-22.66 1.32-9.533 2.346-20.607 3.08-33.22.88-12.76 1.98-26.4 3.3-40.92l.88-11.88.88-11.88c.293-3.96.586-7.847.88-11.66.44-3.96.88-7.773 1.32-11.44l-19.36.22 1.1-9.46h19.36c1.613-10.707 3.96-20.313 7.04-28.82 3.08-8.507 7.553-15.327 13.42-20.46 5.866-5.133 13.64-7.773 23.32-7.92Zm41.685 54.78c5.28 0 10.266.807 14.96 2.42 4.693 1.613 8.506 4.253 11.44 7.92 2.933 3.667 4.4 8.653 4.4 14.96 0 6.013-2.054 11.22-6.16 15.62-4.107 4.4-9.46 8.067-16.06 11-6.6 2.787-13.64 5.06-21.12 6.82-7.48 1.76-14.667 3.007-21.56 3.74 0 9.093.88 16.72 2.64 22.88 1.906 6.16 4.693 10.78 8.36 13.86 3.666 3.08 8.36 4.62 14.08 4.62 4.253 0 8.506-.953 12.76-2.86 4.4-1.907 8.58-4.767 12.54-8.58 3.96-3.96 7.553-9.02 10.78-15.18l7.26 4.18c-4.107 7.627-8.507 13.933-13.2 18.92-4.694 4.987-9.827 8.653-15.4 11-5.574 2.347-11.734 3.52-18.48 3.52-13.934 0-24.2-4.327-30.8-12.98-6.6-8.8-9.9-20.313-9.9-34.54 0-8.507 1.1-16.793 3.3-24.86 2.2-8.067 5.5-15.253 9.9-21.56 4.4-6.453 9.973-11.513 16.72-15.18 6.746-3.813 14.593-5.72 23.54-5.72Zm-3.08 7.48c-6.747 0-12.32 2.273-16.72 6.82-4.254 4.547-7.554 10.413-9.9 17.6-2.2 7.187-3.594 14.74-4.18 22.66 7.773-1.027 15.18-2.86 22.22-5.5 7.04-2.64 12.833-6.013 17.38-10.12 4.546-4.253 6.82-9.167 6.82-14.74 0-4.693-1.32-8.653-3.96-11.88-2.494-3.227-6.38-4.84-11.66-4.84Zm-7.26-22.44-5.28-4.4 17.16-29.04c2.053-3.373 4.033-5.427 5.94-6.16 1.906-.88 3.52-1.027 4.84-.44 1.466.44 2.42.88 2.86 1.32.586.587 1.1 1.54 1.54 2.86.586 1.32.66 3.007.22 5.06-.44 2.053-1.98 4.473-4.62 7.26l-22.66 23.54Z"/></mask><path d="M417.234 91.37c9.46 0 17.93 1.76 25.41 5.28 7.48 3.3 13.31 7.92 17.49 13.86 4.4 5.72 6.6 12.21 6.6 19.47 0 4.84-1.21 8.8-3.63 11.88-2.42 2.86-5.83 4.29-10.23 4.29-5.28.22-9.02-1.32-11.22-4.62-1.98-3.3-2.97-6.16-2.97-8.58 0-1.98.22-4.07.66-6.27.66-2.2 1.87-4.29 3.63-6.27-1.1-6.16-4.18-10.56-9.24-13.2-4.84-2.86-10.45-4.29-16.83-4.29-9.46 0-17.38 2.53-23.76 7.59-6.38 5.06-11.44 11.66-15.18 19.8s-6.49 16.94-8.25 26.4c-1.54 9.24-2.31 18.26-2.31 27.06 0 15.4 1.65 27.83 4.95 37.29 3.52 9.24 8.36 15.95 14.52 20.13s13.09 6.27 20.79 6.27c5.72 0 11.66-1.21 17.82-3.63 6.16-2.64 12.1-6.93 17.82-12.87 5.72-6.16 10.67-14.52 14.85-25.08l11.55 5.61c-5.5 12.76-11.88 22.99-19.14 30.69-7.26 7.48-15.07 12.98-23.43 16.5-8.14 3.3-16.5 4.95-25.08 4.95-19.36 0-34.87-5.83-46.53-17.49-11.44-11.88-17.16-30.14-17.16-54.78 0-10.78 1.54-22 4.62-33.66 3.08-11.66 7.81-22.44 14.19-32.34 6.38-10.12 14.52-18.26 24.42-24.42 10.12-6.38 22-9.57 35.64-9.57Zm106.916 56.21c4.4 0 9.24.367 14.52 1.1 5.28.587 10.267 1.467 14.96 2.64l-3.52 26.4a2294.521 2294.521 0 0 1-3.08 24.86c-.88 7.773-1.613 14.813-2.2 21.12-.586 6.16-.88 11-.88 14.52 0 2.933.22 5.867.66 8.8.44 2.933 2.274 4.4 5.5 4.4 2.494 0 5.207-1.613 8.14-4.84 3.08-3.227 5.72-8.727 7.92-16.5l6.16 1.32c-.44 2.64-1.393 5.72-2.86 9.24-1.32 3.373-3.153 6.747-5.5 10.12-2.346 3.373-5.206 6.16-8.58 8.36-3.373 2.2-7.26 3.3-11.66 3.3-5.866 0-10.046-1.833-12.54-5.5-2.493-3.667-3.74-8.433-3.74-14.3 0-4.253.367-8.873 1.1-13.86.88-4.987 1.834-10.193 2.86-15.62h-.66c-3.52 10.853-7.186 19.58-11 26.18-3.666 6.453-7.406 11.367-11.22 14.74-3.666 3.373-7.26 5.573-10.78 6.6-3.52 1.173-6.82 1.76-9.9 1.76-7.92 0-14.593-2.933-20.02-8.8-5.28-5.867-7.92-15.693-7.92-29.48 0-10.267 1.32-20.02 3.96-29.26 2.64-9.24 6.6-17.38 11.88-24.42 5.427-7.187 12.174-12.76 20.24-16.72 8.067-4.107 17.454-6.16 28.16-6.16Zm-6.82 7.92c-6.6 0-12.393 1.833-17.38 5.5-4.84 3.667-8.873 8.653-12.1 14.96-3.226 6.16-5.646 13.127-7.26 20.9-1.466 7.627-2.2 15.473-2.2 23.54 0 9.387 1.027 17.16 3.08 23.32 2.054 6.013 5.794 9.02 11.22 9.02 3.96 0 7.92-1.98 11.88-5.94 4.107-3.96 7.92-9.24 11.44-15.84 3.52-6.747 6.674-14.227 9.46-22.44a191.645 191.645 0 0 0 6.6-25.52c1.614-8.653 2.42-16.94 2.42-24.86-2.2-.88-4.766-1.54-7.7-1.98-2.933-.44-6.086-.66-9.46-.66Zm104.688-62.7c5.426-.147 9.606.807 12.54 2.86 2.933 1.907 4.4 4.767 4.4 8.58 0 1.027-.294 2.273-.88 3.74-.44 1.467-1.32 2.713-2.64 3.74-1.32.88-3.08 1.32-5.28 1.32-2.787 0-4.987-1.027-6.6-3.08-1.614-2.053-2.347-4.693-2.2-7.92-.44-.293-1.32-.513-2.64-.66-1.32-.293-2.567-.367-3.74-.22-3.52.293-6.454 1.76-8.8 4.4-2.2 2.493-4.034 5.94-5.5 10.34-1.467 4.253-2.64 9.313-3.52 15.18-.88 5.72-1.614 12.027-2.2 18.92h31.24l-.66 8.58-31.24.44c-.147 3.813-.367 7.7-.66 11.66-.147 3.96-.367 8.067-.66 12.32a380.537 380.537 0 0 1-.66 12.54c-.294 4.107-.66 8.287-1.1 12.54a2367.347 2367.347 0 0 0-2.86 32.12c-.88 10.56-2.2 20.607-3.96 30.14-1.614 9.533-4.034 17.967-7.26 25.3-3.227 7.48-7.7 13.347-13.42 17.6-5.574 4.253-12.76 6.38-21.56 6.38-5.574 0-9.827-1.027-12.76-3.08-2.934-1.907-4.4-4.693-4.4-8.36 0-1.173.293-2.493.88-3.96.586-1.32 1.54-2.567 2.86-3.74 1.32-1.027 3.08-1.467 5.28-1.32 2.64.147 4.766 1.1 6.38 2.86 1.466 1.907 2.2 4.327 2.2 7.26 1.613 1.173 3.74 1.76 6.38 1.76 5.133 0 9.02-2.713 11.66-8.14 2.786-5.427 4.84-12.98 6.16-22.66 1.32-9.533 2.346-20.607 3.08-33.22.88-12.76 1.98-26.4 3.3-40.92l.88-11.88.88-11.88c.293-3.96.586-7.847.88-11.66.44-3.96.88-7.773 1.32-11.44l-19.36.22 1.1-9.46h19.36c1.613-10.707 3.96-20.313 7.04-28.82 3.08-8.507 7.553-15.327 13.42-20.46 5.866-5.133 13.64-7.773 23.32-7.92Zm41.685 54.78c5.28 0 10.266.807 14.96 2.42 4.693 1.613 8.506 4.253 11.44 7.92 2.933 3.667 4.4 8.653 4.4 14.96 0 6.013-2.054 11.22-6.16 15.62-4.107 4.4-9.46 8.067-16.06 11-6.6 2.787-13.64 5.06-21.12 6.82-7.48 1.76-14.667 3.007-21.56 3.74 0 9.093.88 16.72 2.64 22.88 1.906 6.16 4.693 10.78 8.36 13.86 3.666 3.08 8.36 4.62 14.08 4.62 4.253 0 8.506-.953 12.76-2.86 4.4-1.907 8.58-4.767 12.54-8.58 3.96-3.96 7.553-9.02 10.78-15.18l7.26 4.18c-4.107 7.627-8.507 13.933-13.2 18.92-4.694 4.987-9.827 8.653-15.4 11-5.574 2.347-11.734 3.52-18.48 3.52-13.934 0-24.2-4.327-30.8-12.98-6.6-8.8-9.9-20.313-9.9-34.54 0-8.507 1.1-16.793 3.3-24.86 2.2-8.067 5.5-15.253 9.9-21.56 4.4-6.453 9.973-11.513 16.72-15.18 6.746-3.813 14.593-5.72 23.54-5.72Zm-3.08 7.48c-6.747 0-12.32 2.273-16.72 6.82-4.254 4.547-7.554 10.413-9.9 17.6-2.2 7.187-3.594 14.74-4.18 22.66 7.773-1.027 15.18-2.86 22.22-5.5 7.04-2.64 12.833-6.013 17.38-10.12 4.546-4.253 6.82-9.167 6.82-14.74 0-4.693-1.32-8.653-3.96-11.88-2.494-3.227-6.38-4.84-11.66-4.84Zm-7.26-22.44-5.28-4.4 17.16-29.04c2.053-3.373 4.033-5.427 5.94-6.16 1.906-.88 3.52-1.027 4.84-.44 1.466.44 2.42.88 2.86 1.32.586.587 1.1 1.54 1.54 2.86.586 1.32.66 3.007.22 5.06-.44 2.053-1.98 4.473-4.62 7.26l-22.66 23.54Z" fill="#2D2110"/><path d="m442.644 96.65-1.703 3.619.044.021.044.02 1.615-3.66Zm17.49 13.86-3.271 2.302.048.069.052.068 3.171-2.439Zm2.97 31.35 3.053 2.584.047-.056.045-.057-3.145-2.471Zm-10.23 4.29v-4h-.084l-.083.003.167 3.997Zm-11.22-4.62-3.43 2.058.049.082.053.079 3.328-2.219Zm-2.31-14.85-3.832-1.149-.054.18-.037.185 3.923.784Zm3.63-6.27 2.989 2.657 1.29-1.45-.342-1.91-3.937.703Zm-9.24-13.2-2.035 3.444.091.053.094.049 1.85-3.546Zm-64.02 49.5-3.933-.732-.007.037-.006.037 3.946.658Zm2.64 64.35-3.777 1.317.019.054.02.053 3.738-1.424Zm14.52 20.13-2.246 3.31 2.246-3.31Zm38.61 2.64 1.462 3.723.057-.022.056-.024-1.575-3.677Zm17.82-12.87 2.881 2.775.025-.027.025-.026-2.931-2.722Zm14.85-25.08 1.747-3.598-3.879-1.884-1.587 4.01 3.719 1.472Zm11.55 5.61 3.673 1.583 1.513-3.511-3.439-1.67-1.747 3.598Zm-19.14 30.69 2.87 2.786.02-.021.02-.021-2.91-2.744Zm-23.43 16.5 1.503 3.707.024-.01.025-.01-1.552-3.687Zm-71.61-12.54-2.882 2.775.027.027.026.026 2.829-2.828Zm-12.54-88.44 3.867 1.022-3.867-1.022Zm14.19-32.34 3.362 2.167.011-.017.01-.017-3.383-2.133Zm24.42-24.42 2.113 3.396.01-.006.01-.006-2.133-3.384Zm35.64-5.57c8.956 0 16.831 1.664 23.707 4.899l3.406-7.238c-8.085-3.805-17.149-5.661-27.113-5.661v8Zm23.795 4.94c6.9 3.044 12.123 7.229 15.834 12.502l6.542-4.604c-4.649-6.607-11.087-11.662-19.147-15.218l-3.229 7.32Zm15.934 12.639c3.859 5.016 5.771 10.647 5.771 17.031h8c0-8.136-2.488-15.485-7.43-21.909l-6.341 4.878Zm5.771 17.031c0 4.16-1.03 7.187-2.775 9.409l6.29 4.942c3.094-3.938 4.485-8.831 4.485-14.351h-8Zm-2.684 9.296c-1.524 1.802-3.725 2.874-7.176 2.874v8c5.349 0 9.968-1.788 13.283-5.706l-6.107-5.168Zm-7.343 2.877c-4.407.184-6.552-1.082-7.725-2.842l-6.656 4.438c3.226 4.84 8.562 6.654 14.714 6.398l-.333-7.994Zm-7.623-2.681c-1.807-3.011-2.4-5.136-2.4-6.522h-8c0 3.454 1.387 7.049 3.54 10.638l6.86-4.116Zm-2.4-6.522c0-1.685.187-3.51.582-5.486l-7.845-1.568c-.485 2.424-.737 4.779-.737 7.054h8Zm.491-5.121c.469-1.562 1.356-3.15 2.788-4.762l-5.979-5.314c-2.088 2.348-3.62 4.94-4.472 7.778l7.663 2.298Zm3.736-8.122c-1.293-7.245-5.052-12.769-11.327-16.043l-3.7 7.092c3.845 2.006 6.246 5.282 7.152 10.357l7.875-1.406Zm-11.142-15.941c-5.536-3.271-11.868-4.846-18.865-4.846v8c5.762 0 10.651 1.285 14.795 3.734l4.07-6.888Zm-18.865-4.846c-10.21 0-19.048 2.747-26.246 8.456l4.971 6.268c5.562-4.411 12.565-6.724 21.275-6.724v-8Zm-26.246 8.456c-6.92 5.489-12.353 12.611-16.329 21.264l7.269 3.34c3.505-7.627 8.192-13.705 14.031-18.336l-4.971-6.268Zm-16.329 21.264c-3.887 8.461-6.732 17.578-8.548 27.338l7.865 1.464c1.704-9.16 4.36-17.643 7.952-25.462l-7.269-3.34Zm-8.561 27.412c-1.574 9.444-2.364 18.684-2.364 27.718h8c0-8.566.749-17.366 2.255-26.402l-7.891-1.316Zm-2.364 27.718c0 15.634 1.668 28.56 5.173 38.607l7.554-2.634c-3.096-8.873-4.727-20.807-4.727-35.973h-8Zm5.212 38.714c3.717 9.758 8.982 17.246 16.012 22.016l4.492-6.62c-5.29-3.59-9.706-9.522-13.028-18.244l-7.476 2.848Zm16.012 22.016c6.846 4.646 14.564 6.96 23.036 6.96v-8c-6.929 0-13.071-1.866-18.544-5.58l-4.492 6.62Zm23.036 6.96c6.292 0 12.729-1.332 19.282-3.907l-2.925-7.446c-5.766 2.265-11.21 3.353-16.357 3.353v8Zm19.395-3.953c6.751-2.893 13.118-7.534 19.126-13.772l-5.762-5.55c-5.433 5.642-10.945 9.581-16.515 11.968l3.151 7.354Zm19.176-13.825c6.154-6.627 11.335-15.46 15.638-26.33l-7.438-2.944c-4.058 10.25-8.776 18.137-14.062 23.83l5.862 5.444Zm10.171-24.204 11.55 5.61 3.495-7.196-11.55-5.61-3.495 7.196Zm9.624.429c-5.369 12.458-11.519 22.256-18.377 29.529l5.821 5.488c7.663-8.127 14.273-18.789 19.903-31.851l-7.347-3.166Zm-18.337 29.487c-6.941 7.151-14.315 12.317-22.111 15.599l3.104 7.374c8.924-3.758 17.169-9.592 24.748-17.401l-5.741-5.572Zm-22.062 15.579c-7.674 3.111-15.525 4.657-23.577 4.657v8c9.107 0 17.977-1.754 26.583-5.243l-3.006-7.414Zm-23.577 4.657c-18.498 0-32.922-5.538-43.702-16.318l-5.657 5.656c12.54 12.54 29.137 18.662 49.359 18.662v-8Zm-43.649-16.265c-10.436-10.837-16.041-27.897-16.041-52.005h-8c0 25.172 5.835 44.632 18.278 57.555l5.763-5.55Zm-16.041-52.005c0-10.397 1.485-21.273 4.487-32.638l-7.735-2.044c-3.157 11.955-4.752 23.519-4.752 34.682h8Zm4.487-32.638c2.976-11.264 7.538-21.657 13.685-31.195l-6.725-4.334c-6.612 10.262-11.51 21.429-14.695 33.485l7.735 2.044Zm13.706-31.229c6.067-9.622 13.777-17.325 23.15-23.157l-4.226-6.792c-10.428 6.488-18.997 15.065-25.691 25.683l6.767 4.266Zm23.17-23.169c9.395-5.924 20.513-8.954 33.507-8.954v-8c-14.287 0-26.929 3.35-37.773 10.186l4.266 6.768ZM538.67 148.68l-.55 3.962.054.007.055.007.441-3.976Zm14.96 2.64 3.965.529.473-3.543-3.468-.867-.97 3.881Zm-3.52 26.4-3.965-.529-.003.029-.004.029 3.972.471Zm-3.08 24.86-3.966-.514-.005.032-.003.032 3.974.45Zm-2.2 21.12 3.982.379.001-.009-3.983-.37Zm-.22 23.32 3.956-.593-3.956.593Zm13.64-.44-2.893-2.762-.034.035-.032.036 2.959 2.691Zm7.92-16.5.838-3.911-3.666-.786-1.02 3.608 3.848 1.089Zm6.16 1.32 3.946.658.628-3.769-3.736-.8-.838 3.911Zm-2.86 9.24-3.692-1.538-.017.04-.016.04 3.725 1.458Zm-5.5 10.12 3.284 2.284-3.284-2.284Zm-32.78 6.16 3.308-2.249-3.308 2.249Zm-2.64-28.16-3.939-.695-.01.056-.008.057 3.957.582Zm2.86-15.62 3.931.744.897-4.744h-4.828v4Zm-.66 0v-4h-2.907l-.898 2.766 3.805 1.234Zm-11 26.18-3.463-2.001-.007.012-.007.013 3.477 1.976Zm-11.22 14.74-2.65-2.996-.029.026-.029.026 2.708 2.944Zm-10.78 6.6-1.12-3.84-.073.021-.072.024 1.265 3.795Zm-29.92-7.04-2.973 2.676.018.02.019.02 2.936-2.716Zm-3.96-58.74 3.846 1.099-3.846-1.099Zm11.88-24.42-3.192-2.41-.008.01 3.2 2.4Zm20.24-16.72 1.763 3.591.026-.013.026-.013-1.815-3.565Zm3.96 7.26-2.369-3.223-.023.017-.023.018L499.95 161Zm-12.1 14.96 3.544 1.856.009-.017.008-.017-3.561-1.822Zm-7.26 20.9-3.916-.813-.006.029-.006.029 3.928.755Zm.88 46.86-3.794 1.265.004.014.005.014 3.785-1.293Zm23.1 3.08-2.776-2.879-.026.025-.026.026 2.828 2.828Zm11.44-15.84 3.53 1.882.008-.016.009-.016-3.547-1.85Zm9.46-22.44 3.788 1.285.004-.01.003-.01-3.795-1.265Zm6.6-25.52-3.932-.733 3.932.733Zm2.42-24.86h4v-2.708l-2.514-1.006-1.486 3.714Zm-7.7-1.98.594-3.956-.594 3.956Zm-2.64-4.58c4.183 0 8.836.349 13.97 1.062l1.101-7.924c-5.426-.754-10.453-1.138-15.071-1.138v8Zm14.079 1.076c5.119.568 9.928 1.419 14.431 2.545l1.94-7.762c-4.883-1.22-10.047-2.13-15.488-2.735l-.883 7.952Zm11.436-1.865-3.52 26.4 7.93 1.058 3.52-26.4-7.93-1.058Zm-3.527 26.458c-1.025 8.64-2.05 16.912-3.074 24.817l7.933 1.028a2305.814 2305.814 0 0 0 3.085-24.903l-7.944-.942Zm-3.082 24.881a1065.909 1065.909 0 0 0-2.208 21.2l7.965.74c.584-6.274 1.314-13.287 2.192-21.04l-7.949-.9Zm-2.208 21.191c-.591 6.207-.898 11.192-.898 14.899h8c0-3.333.28-8.028.862-14.141l-7.964-.758Zm-.898 14.899c0 3.134.235 6.266.705 9.393l7.911-1.186a55.226 55.226 0 0 1-.616-8.207h-8Zm.705 9.393c.328 2.191 1.266 4.314 3.162 5.83 1.85 1.481 4.108 1.977 6.293 1.977v-8c-.511 0-.845-.059-1.045-.117-.189-.055-.25-.106-.251-.106a.078.078 0 0 1-.013-.013.567.567 0 0 1-.046-.075c-.047-.092-.131-.299-.189-.682l-7.911 1.186Zm9.455 7.807c4.224 0 7.942-2.675 11.1-6.149l-5.919-5.382c-2.709 2.98-4.417 3.531-5.181 3.531v8Zm11.034-6.078c3.762-3.941 6.62-10.204 8.875-18.173l-7.697-2.178c-2.145 7.578-4.567 12.315-6.965 14.827l5.787 5.524Zm4.188-15.351 6.16 1.32 1.676-7.822-6.16-1.32-1.676 7.822Zm3.053-3.249c-.374 2.24-1.213 5.014-2.607 8.36l7.385 3.076c1.539-3.694 2.606-7.08 3.113-10.12l-7.891-1.316Zm-2.64 8.44c-1.191 3.046-2.867 6.144-5.058 9.294l6.567 4.568c2.502-3.597 4.493-7.245 5.941-10.946l-7.45-2.916Zm-5.058 9.294c-2.059 2.959-4.549 5.381-7.482 7.294l4.37 6.7c3.814-2.487 7.044-5.638 9.679-9.426l-6.567-4.568Zm-7.482 7.294c-2.663 1.737-5.776 2.65-9.475 2.65v8c5.102 0 9.762-1.287 13.845-3.95l-4.37-6.7Zm-9.475 2.65c-5.016 0-7.715-1.519-9.232-3.749l-6.615 4.498c3.469 5.103 9.13 7.251 15.847 7.251v-8Zm-9.232-3.749c-1.917-2.82-3.048-6.731-3.048-12.051h-8c0 6.414 1.363 12.036 4.433 16.549l6.615-4.498Zm-3.048-12.051c0-4.027.348-8.45 1.058-13.278l-7.915-1.164c-.757 5.145-1.143 9.962-1.143 14.442h8Zm1.039-13.165c.877-4.969 1.828-10.159 2.852-15.571l-7.861-1.488a1306.191 1306.191 0 0 0-2.869 15.669l7.878 1.39Zm-1.079-20.315h-.66v8h.66v-8Zm-4.465 2.766c-3.471 10.704-7.036 19.144-10.658 25.413l6.927 4.002c4.004-6.931 7.773-15.944 11.341-26.947l-7.61-2.468Zm-10.672 25.438c-3.54 6.229-7.024 10.739-10.393 13.72l5.301 5.992c4.257-3.766 8.253-9.083 12.047-15.76l-6.955-3.952Zm-10.451 13.772c-3.368 3.099-6.436 4.9-9.192 5.704l2.24 7.68c4.285-1.25 8.403-3.848 12.369-7.496l-5.417-5.888Zm-9.337 5.749c-3.193 1.065-6.062 1.555-8.635 1.555v8c3.588 0 7.318-.683 11.165-1.965l-2.53-7.59Zm-8.635 1.555c-6.793 0-12.406-2.46-17.083-7.516l-5.873 5.432c6.176 6.677 13.91 10.084 22.956 10.084v-8Zm-17.046-7.476c-4.277-4.751-6.894-13.332-6.894-26.804h-8c0 14.102 2.663 25.174 8.947 32.156l5.947-5.352Zm-6.894-26.804c0-9.92 1.275-19.302 3.806-28.161l-7.692-2.198c-2.749 9.621-4.114 19.746-4.114 30.359h8Zm3.806-28.161c2.519-8.814 6.273-16.504 11.234-23.119l-6.4-4.8c-5.598 7.465-9.764 16.055-12.526 25.721l7.692 2.198Zm11.226-23.109c5.051-6.687 11.308-11.856 18.811-15.539l-3.525-7.182c-8.631 4.237-15.867 10.215-21.67 17.901l6.384 4.82Zm18.863-15.565c7.411-3.773 16.155-5.725 26.345-5.725v-8c-11.222 0-21.252 2.155-29.974 6.595l3.629 7.13Zm19.525-5.805c-7.392 0-14.029 2.071-19.749 6.277l4.739 6.446c4.253-3.128 9.203-4.723 15.01-4.723v-8Zm-19.795 6.312c-5.394 4.086-9.79 9.572-13.246 16.326l7.122 3.644c2.998-5.86 6.668-10.346 10.955-13.594l-4.831-6.376Zm-13.228 16.292c-3.421 6.531-5.955 13.857-7.633 21.943l7.833 1.626c1.548-7.461 3.855-14.068 6.887-19.857l-7.087-3.712Zm-7.645 22.001c-1.516 7.885-2.272 15.985-2.272 24.295h8c0-7.823.711-15.416 2.128-22.785l-7.856-1.51ZM474.39 220.4c0 9.642 1.05 17.879 3.286 24.585l7.589-2.53c-1.871-5.614-2.875-12.924-2.875-22.055h-8Zm3.295 24.613c1.194 3.496 3.001 6.48 5.624 8.59 2.673 2.148 5.882 3.137 9.381 3.137v-8c-1.927 0-3.301-.515-4.368-1.373-1.117-.897-2.207-2.423-3.066-4.94l-7.571 2.586Zm15.005 11.727c5.395 0 10.313-2.716 14.709-7.112l-5.657-5.656c-3.524 3.524-6.527 4.768-9.052 4.768v8Zm14.657-7.061c4.485-4.325 8.533-9.975 12.193-16.837l-7.059-3.764c-3.381 6.338-6.959 11.248-10.687 14.843l5.553 5.758Zm12.21-16.869c3.627-6.951 6.858-14.624 9.701-23.005l-7.576-2.57c-2.729 8.045-5.805 15.333-9.218 21.875l7.093 3.7Zm9.708-23.025a195.68 195.68 0 0 0 6.738-26.052l-7.865-1.466a187.878 187.878 0 0 1-6.462 24.988l7.589 2.53Zm6.738-26.052c1.653-8.869 2.487-17.402 2.487-25.593h-8c0 7.649-.779 15.689-2.352 24.127l7.865 1.466Zm-.027-29.307c-2.548-1.019-5.426-1.747-8.592-2.222l-1.187 7.912c2.7.405 4.956.997 6.808 1.738l2.971-7.428Zm-8.592-2.222c-3.155-.473-6.508-.704-10.054-.704v8c3.201 0 6.155.209 8.867.616l1.187-7.912ZM622.018 92.8l.06 4h.024l.024-.001-.108-3.999Zm12.54 2.86-2.294 3.277.056.04.058.037 2.18-3.354Zm3.52 12.32-3.714-1.486-.066.166-.052.171 3.832 1.149Zm-2.64 3.74 2.218 3.328.122-.081.115-.09-2.455-3.157Zm-14.08-9.68 3.996.182.102-2.257-1.88-1.253-2.218 3.328Zm-2.64-.66-.868 3.905.211.047.215.024.442-3.976Zm-3.74-.22.332 3.986.082-.007.082-.01-.496-3.969Zm-8.8 4.4-2.99-2.657-.005.005-.005.006 3 2.646Zm-5.5 10.34 3.781 1.304.007-.02.006-.019-3.794-1.265Zm-3.52 15.18 3.953.608.001-.007.001-.008-3.955-.593Zm-2.2 18.92-3.986-.339-.369 4.339h4.355v-4Zm31.24 0 3.988.307.331-4.307h-4.319v4Zm-.66 8.58.056 4 3.652-.052.28-3.641-3.988-.307Zm-31.24.44-.057-4-3.794.054-.146 3.792 3.997.154Zm-.66 11.66-3.989-.295-.006.073-.003.074 3.998.148Zm-.66 12.32-3.991-.275-.004.066-.003.066 3.998.143Zm-.66 12.54 3.99.285v-.01l-3.99-.275Zm-1.1 12.54-3.979-.412-.002.015-.001.015 3.982.382Zm-2.86 32.12 3.986.332v-.004l-3.986-.328Zm-3.96 30.14-3.934-.726-.005.029-.005.03 3.944.667Zm-7.26 25.3-3.662-1.611-.005.013-.006.014 3.673 1.584Zm-13.42 17.6-2.387-3.21-.02.015-.02.015 2.427 3.18Zm-34.32 3.3 2.294-3.277-.057-.039-.057-.038-2.18 3.354Zm-3.52-12.32-3.656-1.625-.03.069-.028.07 3.714 1.486Zm2.86-3.74-2.456-3.157-.104.08-.098.087 2.658 2.99Zm5.28-1.32-.266 3.991.022.002.022.001.222-3.994Zm6.38 2.86 3.17-2.439-.105-.137-.117-.127-2.948 2.703Zm2.2 7.26h-4v2.037l1.647 1.198 2.353-3.235Zm18.04-6.38-3.559-1.827-.019.038-.019.039 3.597 1.75Zm6.16-22.66-3.963-.549-.001.009 3.964.54Zm3.08-33.22-3.991-.275-.001.021-.002.022 3.994.232Zm3.3-40.92 3.983.362.003-.033.003-.034-3.989-.295Zm.88-11.88 3.989.295-3.989-.295Zm.88-11.88 3.989.295-3.989-.295Zm.88-11.66-3.976-.442-.007.068-.006.067 3.989.307Zm1.32-11.44 3.971.477.544-4.529-4.561.052.046 4Zm-19.36.22-3.974-.462-.524 4.513 4.543-.051-.045-4Zm1.1-9.46v-4h-3.562l-.412 3.538 3.974.462Zm19.36 0v4h3.442l.513-3.404-3.955-.596Zm7.04-28.82-3.761-1.362 3.761 1.362Zm13.42-20.46 2.634 3.01-2.634-3.01Zm23.428-3.921c4.987-.135 8.186.772 10.138 2.138l4.588-6.554c-3.915-2.74-9.077-3.74-14.942-3.582l.216 7.998Zm10.252 2.215c1.682 1.093 2.58 2.622 2.58 5.226h8c0-5.022-2.036-9.214-6.22-11.934l-4.36 6.708Zm2.58 5.226c0 .32-.105 1.033-.594 2.254l7.428 2.972c.684-1.712 1.166-3.492 1.166-5.226h-8Zm-.712 2.591c-.179.597-.537 1.166-1.264 1.732l4.911 6.314c1.913-1.487 3.315-3.411 4.016-5.748l-7.663-2.298Zm-1.027 1.561c-.454.303-1.356.648-3.061.648v8c2.694 0 5.313-.535 7.498-1.992l-4.437-6.656Zm-3.061.648c-1.655 0-2.657-.536-3.455-1.551l-6.291 4.942c2.429 3.091 5.827 4.609 9.746 4.609v-8Zm-3.455-1.551c-.89-1.133-1.463-2.763-1.349-5.267l-7.992-.364c-.18 3.949.714 7.6 3.05 10.573l6.291-4.942Zm-3.127-8.777c-.779-.52-1.624-.784-2.238-.938a16.716 16.716 0 0 0-2.179-.37l-.883 7.952c.556.061.915.128 1.122.18.099.025.125.037.097.026-.02-.008-.16-.063-.356-.194l4.437-6.656Zm-3.991-1.237c-1.704-.378-3.415-.495-5.103-.284l.992 7.938c.658-.082 1.44-.052 2.376.156l1.735-7.81Zm-4.94-.301c-4.543.378-8.428 2.32-11.457 5.729l5.979 5.314c1.665-1.872 3.646-2.863 6.143-3.071l-.665-7.972Zm-11.467 5.74c-2.666 3.021-4.721 6.999-6.295 11.721l7.589 2.53c1.36-4.078 2.971-6.993 4.705-8.959l-5.999-5.292Zm-6.282 11.682c-1.567 4.544-2.789 9.854-3.694 15.891l7.911 1.186c.855-5.696 1.98-10.506 3.346-14.469l-7.563-2.608Zm-3.692 15.876c-.896 5.824-1.639 12.222-2.232 19.189l7.971.678c.581-6.82 1.304-13.035 2.168-18.651l-7.907-1.216ZM594.958 154h31.24v-8h-31.24v8Zm27.251-4.307-.66 8.58 7.977.614.66-8.58-7.977-.614Zm3.272 4.887-31.24.44.113 8 31.24-.44-.113-8Zm-35.18 4.286a325.684 325.684 0 0 1-.652 11.519l7.978.59c.296-4.005.519-7.939.668-11.801l-7.994-.308Zm-.661 11.666a382.928 382.928 0 0 1-.653 12.193l7.981.55c.296-4.292.519-8.441.667-12.447l-7.995-.296Zm-.66 12.325a373.132 373.132 0 0 1-.653 12.408l7.981.55c.296-4.296.519-8.52.667-12.672l-7.995-.286Zm-.652 12.398c-.29 4.063-.653 8.201-1.089 12.413l7.957.824c.445-4.294.815-8.517 1.112-12.667l-7.98-.57Zm-1.092 12.443a2393.046 2393.046 0 0 0-2.865 32.174l7.973.656c.879-10.689 1.83-21.378 2.855-32.066l-7.963-.764Zm-2.865 32.17c-.869 10.44-2.173 20.354-3.907 29.746l7.867 1.452c1.786-9.675 3.123-19.854 4.013-30.534l-7.973-.664Zm-3.917 29.805c-1.569 9.272-3.908 17.379-6.978 24.356l7.323 3.222c3.383-7.69 5.885-16.45 7.543-26.244l-7.888-1.334Zm-6.989 24.383c-2.989 6.928-7.055 12.197-12.134 15.974l4.773 6.42c6.361-4.73 11.242-11.194 14.707-19.226l-7.346-3.168Zm-12.174 16.004c-4.715 3.598-10.983 5.56-19.133 5.56v8c9.449 0 17.555-2.292 23.986-7.2l-4.853-6.36Zm-19.133 5.56c-5.177 0-8.485-.97-10.466-2.357l-4.588 6.554c3.885 2.72 9.084 3.803 15.054 3.803v-8Zm-10.58-2.434c-1.735-1.127-2.58-2.615-2.58-5.006h-8c0 4.942 2.087 9.028 6.22 11.714l4.36-6.708Zm-2.58-5.006c0-.522.134-1.326.594-2.474l-7.428-2.972c-.714 1.786-1.166 3.621-1.166 5.446h8Zm.535-2.335c.309-.697.875-1.498 1.862-2.375l-5.315-5.98c-1.653 1.47-2.994 3.162-3.858 5.105l7.311 3.25Zm1.66-2.208c.327-.254 1.02-.588 2.559-.486l.532-7.982c-2.861-.191-5.689.354-8.002 2.154l4.911 6.314Zm2.603-.483c1.72.095 2.824.664 3.653 1.569l5.897-5.406c-2.397-2.615-5.546-3.953-9.106-4.151l-.444 7.988Zm3.431 1.305c.819 1.065 1.371 2.571 1.371 4.821h8c0-3.617-.916-6.95-3.03-9.699l-6.341 4.878Zm3.018 8.056c2.488 1.809 5.519 2.525 8.733 2.525v-8c-2.066 0-3.289-.458-4.028-.995l-4.705 6.47Zm8.733 2.525c3.314 0 6.383-.89 9.054-2.755 2.635-1.84 4.664-4.473 6.203-7.635l-7.194-3.5c-1.102 2.264-2.336 3.701-3.588 4.575-1.216.849-2.656 1.315-4.475 1.315v8Zm15.218-10.313c3.08-5.998 5.216-14.054 6.565-23.947l-7.927-1.08c-1.291 9.467-3.261 16.517-5.755 21.373l7.117 3.654Zm6.564-23.938c1.338-9.665 2.373-20.848 3.111-33.537l-7.987-.464c-.729 12.538-1.747 23.502-3.049 32.903l7.925 1.098Zm3.108-33.494c.878-12.727 1.976-26.338 3.293-40.833l-7.967-.724c-1.322 14.545-2.425 28.214-3.307 41.007l7.981.55Zm3.299-40.9.88-11.88-7.978-.59-.88 11.88 7.978.59Zm.88-11.88.88-11.88-7.978-.59-.88 11.88 7.978.59Zm.88-11.88c.293-3.956.586-7.839.879-11.648l-7.977-.614c-.293 3.817-.587 7.708-.88 11.672l7.978.59Zm.866-11.513c.439-3.95.878-7.751 1.316-11.405l-7.943-.954c-.441 3.68-.883 7.505-1.324 11.475l7.951.884Zm-2.701-15.882-19.36.22.091 8 19.36-.22-.091-8Zm-15.341 4.682 1.1-9.46-7.947-.924-1.1 9.46 7.947.924ZM558.878 154h19.36v-8h-19.36v8Zm23.315-3.404c1.581-10.495 3.871-19.839 6.846-28.054l-7.522-2.724c-3.186 8.798-5.589 18.668-7.235 29.586l7.911 1.192Zm6.846-28.054c2.887-7.974 7.011-14.191 12.293-18.812l-5.268-6.02c-6.452 5.645-11.274 13.068-14.547 22.108l7.522 2.724Zm12.293-18.812c4.993-4.369 11.777-6.795 20.746-6.93l-.121-8c-10.391.158-19.153 3.012-25.893 8.91l5.268 6.02ZM678.663 150l-1.301 3.783 1.301-3.783Zm11.44 7.92-3.124 2.499 3.124-2.499Zm-17.82 41.58 1.555 3.685.035-.015.034-.015-1.624-3.655Zm-21.12 6.82-.917-3.894.917 3.894Zm-21.56 3.74-.424-3.978-3.576.381v3.597h4Zm2.64 22.88-3.847 1.099.012.042.013.042 3.822-1.183Zm8.36 13.86-2.573 3.063 2.573-3.063Zm26.84 1.76-1.591-3.67-.023.01-.023.01 1.637 3.65Zm12.54-8.58 2.774 2.881.027-.026.027-.027-2.828-2.828Zm10.78-15.18 1.995-3.466-3.607-2.078-1.932 3.688 3.544 1.856Zm7.26 4.18 3.521 1.896 1.844-3.423-3.37-1.939-1.995 3.466Zm-13.2 18.92-2.913-2.741 2.913 2.741Zm-15.4 11 1.552 3.687-1.552-3.687Zm-49.28-9.46-3.2 2.4.009.013.01.013 3.181-2.426Zm-6.6-59.4-3.86-1.052 3.86 1.052Zm9.9-21.56 3.28 2.289.012-.018.012-.018-3.304-2.253Zm16.72-15.18 1.91 3.514.029-.015.029-.017-1.968-3.482Zm3.74 8.58-2.875-2.782-.023.025-.024.024 2.922 2.733Zm-9.9 17.6-3.803-1.242-.011.036-.011.035 3.825 1.171Zm-4.18 22.66-3.99-.295-.363 4.905 4.876-.644-.523-3.966Zm22.22-5.5 1.404 3.745-1.404-3.745Zm17.38-10.12 2.681 2.968.026-.023.025-.024-2.732-2.921Zm2.86-26.62-3.166 2.446.034.044.036.043 3.096-2.533Zm-18.92-27.28-2.561 3.073 2.86 2.383 2.582-2.682-2.881-2.774Zm-5.28-4.4-3.444-2.035-1.731 2.93 2.614 2.178 2.561-3.073Zm17.16-29.04-3.417-2.08-.014.023-.013.022 3.444 2.035Zm5.94-6.16 1.435 3.733.122-.046.119-.055-1.676-3.632Zm4.84-.44-1.625 3.655.232.103.243.073 1.15-3.831Zm2.86 1.32 2.828-2.828-2.828 2.828Zm1.54 2.86-3.795 1.265.061.183.078.177 3.656-1.625Zm.22 5.06 3.911.838-3.911-.838Zm-4.62 7.26 2.881 2.774.011-.011.011-.012-2.903-2.751Zm-12.32 42.5c4.865 0 9.41.742 13.659 2.203l2.601-7.566c-5.138-1.766-10.566-2.637-16.26-2.637v8Zm13.659 2.203c4.019 1.381 7.185 3.596 9.617 6.636l6.247-4.998c-3.435-4.293-7.895-7.359-13.263-9.204l-2.601 7.566Zm9.617 6.636c2.198 2.747 3.524 6.751 3.524 12.461h8c0-6.904-1.608-12.873-5.277-17.459l-6.247 4.998Zm3.524 12.461c0 4.999-1.669 9.231-5.085 12.891l5.849 5.458c4.797-5.14 7.236-11.321 7.236-18.349h-8Zm-5.085 12.891c-3.674 3.937-8.555 7.316-14.76 10.074l3.249 7.31c6.995-3.109 12.821-7.063 17.36-11.926l-5.849-5.458Zm-14.691 10.044c-6.379 2.693-13.204 4.899-20.481 6.611l1.833 7.788c7.683-1.808 14.938-4.149 21.759-7.029l-3.111-7.37Zm-20.481 6.611c-7.334 1.726-14.356 2.943-21.067 3.656l.847 7.956c7.076-.753 14.427-2.03 22.053-3.824l-1.833-7.788Zm-24.643 7.634c0 9.323.899 17.347 2.793 23.979l7.693-2.198c-1.625-5.688-2.486-12.917-2.486-21.781h-8Zm2.818 24.063c2.058 6.646 5.183 12.022 9.609 15.74l5.145-6.126c-2.907-2.442-5.355-6.306-7.111-11.98l-7.643 2.366Zm9.609 15.74c4.521 3.798 10.183 5.557 16.653 5.557v-8c-4.971 0-8.696-1.321-11.508-3.683l-5.145 6.126Zm16.653 5.557c4.869 0 9.678-1.095 14.396-3.21l-3.273-7.3c-3.788 1.698-7.486 2.51-11.123 2.51v8Zm14.35-3.19c4.898-2.122 9.469-5.272 13.724-9.369l-5.549-5.762c-3.665 3.529-7.454 6.1-11.356 7.791l3.181 7.34Zm13.778-9.422c4.305-4.305 8.124-9.716 11.495-16.152l-7.087-3.712c-3.082 5.884-6.45 10.593-10.065 14.208l5.657 5.656Zm5.956-14.542 7.26 4.18 3.991-6.932-7.26-4.18-3.991 6.932Zm5.734-1.182c-3.983 7.396-8.19 13.398-12.591 18.075l5.825 5.482c4.986-5.297 9.579-11.908 13.809-19.765l-7.043-3.792Zm-12.591 18.075c-4.362 4.633-9.045 7.951-14.04 10.054l3.105 7.374c6.152-2.591 11.735-6.606 16.76-11.946l-5.825-5.482Zm-14.04 10.054c-5.028 2.118-10.652 3.207-16.927 3.207v8c7.218 0 13.913-1.257 20.032-3.833l-3.105-7.374Zm-16.927 3.207c-13.07 0-21.982-4.014-27.62-11.406l-6.361 4.852c7.562 9.915 19.183 14.554 33.981 14.554v-8Zm-27.6-11.38c-5.947-7.928-9.1-18.524-9.1-32.14h-8c0 14.837 3.446 27.268 10.7 36.94l6.4-4.8Zm-9.1-32.14c0-8.157 1.054-16.09 3.159-23.808l-7.719-2.104c-2.295 8.415-3.44 17.056-3.44 25.912h8Zm3.159-23.808c2.09-7.663 5.205-14.424 9.321-20.323l-6.561-4.578c-4.684 6.714-8.168 14.326-10.479 22.797l7.719 2.104Zm9.345-20.359c4.049-5.937 9.147-10.561 15.326-13.919l-3.821-7.029c-7.315 3.976-13.363 9.472-18.114 16.442l6.609 4.506Zm15.384-13.951c6.059-3.424 13.207-5.202 21.572-5.202v-8c-9.529 0-18.074 2.036-25.509 6.238l3.937 6.964Zm18.492-5.722c-7.751 0-14.387 2.657-19.595 8.038l5.749 5.564c3.592-3.713 8.102-5.602 13.846-5.602v-8Zm-19.642 8.087c-4.728 5.055-8.291 11.466-10.781 19.091l7.605 2.484c2.203-6.748 5.241-12.071 9.019-16.109l-5.843-5.466Zm-10.803 19.162c-2.292 7.487-3.737 15.335-4.345 23.536l7.979.59c.566-7.639 1.907-14.898 4.015-21.784l-7.649-2.342Zm.168 27.797c8.062-1.065 15.765-2.97 23.101-5.721l-2.809-7.49c-6.744 2.529-13.854 4.291-21.339 5.279l1.047 7.932Zm23.101-5.721c7.407-2.777 13.663-6.386 18.657-10.897l-5.363-5.936c-4.099 3.702-9.43 6.84-16.103 9.343l2.809 7.49Zm18.708-10.944c5.251-4.912 8.088-10.845 8.088-17.661h-8c0 4.331-1.71 8.224-5.553 11.819l5.465 5.842Zm8.088-17.661c0-5.494-1.566-10.382-4.865-14.413l-6.191 5.066c1.982 2.422 3.056 5.454 3.056 9.347h8Zm-4.795-14.326c-3.465-4.484-8.705-6.394-14.825-6.394v8c4.439 0 6.973 1.316 8.494 3.286l6.331-4.892Zm-19.525-27.907-5.28-4.4-5.121 6.146 5.28 4.4 5.121-6.146Zm-4.397.708 17.16-29.04-6.887-4.07-17.16 29.04 6.887 4.07Zm17.133-28.995c1.96-3.22 3.355-4.274 3.959-4.507l-2.871-7.466c-3.209 1.234-5.774 4.286-7.921 7.813l6.833 4.16Zm4.2-4.608c1.346-.621 1.677-.356 1.539-.417l3.249-7.31c-2.778-1.235-5.673-.676-8.141.463l3.353 7.264Zm2.014-.24c.627.187 1.04.345 1.288.46.121.055.166.084.159.08-.001 0-.111-.07-.266-.224l5.657-5.656c-.706-.706-1.545-1.163-2.197-1.464a17.99 17.99 0 0 0-2.342-.86l-2.299 7.663Zm1.181.316c-.051-.05.007-.009.132.223.122.227.275.574.442 1.074l7.589-2.53c-.52-1.56-1.279-3.196-2.506-4.423l-5.657 5.656Zm.713 1.657c.119.267.304 1.01-.036 2.597l7.823 1.676c.54-2.521.578-5.15-.476-7.523l-7.311 3.25Zm-.036 2.597c-.205.956-1.12 2.716-3.612 5.347l5.807 5.502c2.788-2.942 4.953-6.023 5.628-9.173l-7.823-1.676Zm-3.59 5.324-22.66 23.54 5.763 5.548 22.66-23.54-5.763-5.548Z" fill="#D6C5AE" mask="url('#path-1-outside-1_180_7')"/></g><defs><clipPath id="clip0_180_7"><path fill="#fff" d="M0 0h1032v379H0z"/></clipPath></defs></svg>