<svg width="1032" height="379" viewBox="0 0 1032 379" fill="none" xmlns="http://www.w3.org/2000/svg">
<g clip-path="url('#clip0_180_7')">
<mask id="path-1-outside-1_180_7" maskUnits="userSpaceOnUse" x="334" y="87" width="370" height="237" fill="black">
<rect fill="white" x="334" y="87" width="370" height="237"></rect>
<path d="M417.234 91.37C426.694 91.37 435.164 93.13 442.644 96.65C450.124 99.95 455.954 104.57 460.134 110.51C464.534 116.23 466.734 122.72 466.734 129.98C466.734 134.82 465.524 138.78 463.104 141.86C460.684 144.72 457.274 146.15 452.874 146.15C447.594 146.37 443.854 144.83 441.654 141.53C439.674 138.23 438.684 135.37 438.684 132.95C438.684 130.97 438.904 128.88 439.344 126.68C440.004 124.48 441.214 122.39 442.974 120.41C441.874 114.25 438.794 109.85 433.734 107.21C428.894 104.35 423.284 102.92 416.904 102.92C407.444 102.92 399.524 105.45 393.144 110.51C386.764 115.57 381.704 122.17 377.964 130.31C374.224 138.45 371.474 147.25 369.714 156.71C368.174 165.95 367.404 174.97 367.404 183.77C367.404 199.17 369.054 211.6 372.354 221.06C375.874 230.3 380.714 237.01 386.874 241.19C393.034 245.37 399.964 247.46 407.664 247.46C413.384 247.46 419.324 246.25 425.484 243.83C431.644 241.19 437.584 236.9 443.304 230.96C449.024 224.8 453.974 216.44 458.154 205.88L469.704 211.49C464.204 224.25 457.824 234.48 450.564 242.18C443.304 249.66 435.494 255.16 427.134 258.68C418.994 261.98 410.634 263.63 402.054 263.63C382.694 263.63 367.184 257.8 355.524 246.14C344.084 234.26 338.364 216 338.364 191.36C338.364 180.58 339.904 169.36 342.984 157.7C346.064 146.04 350.794 135.26 357.174 125.36C363.554 115.24 371.694 107.1 381.594 100.94C391.714 94.56 403.594 91.37 417.234 91.37ZM524.15 147.58C528.55 147.58 533.39 147.947 538.67 148.68C543.95 149.267 548.937 150.147 553.63 151.32C552.457 160.12 551.284 168.92 550.11 177.72C549.084 186.373 548.057 194.66 547.03 202.58C546.15 210.353 545.417 217.393 544.83 223.7C544.244 229.86 543.95 234.7 543.95 238.22C543.95 241.153 544.17 244.087 544.61 247.02C545.05 249.953 546.884 251.42 550.11 251.42C552.604 251.42 555.317 249.807 558.25 246.58C561.33 243.353 563.97 237.853 566.17 230.08L572.33 231.4C571.89 234.04 570.937 237.12 569.47 240.64C568.15 244.013 566.317 247.387 563.97 250.76C561.624 254.133 558.764 256.92 555.39 259.12C552.017 261.32 548.13 262.42 543.73 262.42C537.864 262.42 533.684 260.587 531.19 256.92C528.697 253.253 527.45 248.487 527.45 242.62C527.45 238.367 527.817 233.747 528.55 228.76C529.43 223.773 530.384 218.567 531.41 213.14H530.75C527.23 223.993 523.564 232.72 519.75 239.32C516.084 245.773 512.344 250.687 508.53 254.06C504.864 257.433 501.27 259.633 497.75 260.66C494.23 261.833 490.93 262.42 487.85 262.42C479.93 262.42 473.257 259.487 467.83 253.62C462.55 247.753 459.91 237.927 459.91 224.14C459.91 213.873 461.23 204.12 463.87 194.88C466.51 185.64 470.47 177.5 475.75 170.46C481.177 163.273 487.924 157.7 495.99 153.74C504.057 149.633 513.444 147.58 524.15 147.58ZM517.33 155.5C510.73 155.5 504.937 157.333 499.95 161C495.11 164.667 491.077 169.653 487.85 175.96C484.624 182.12 482.204 189.087 480.59 196.86C479.124 204.487 478.39 212.333 478.39 220.4C478.39 229.787 479.417 237.56 481.47 243.72C483.524 249.733 487.264 252.74 492.69 252.74C496.65 252.74 500.61 250.76 504.57 246.8C508.677 242.84 512.49 237.56 516.01 230.96C519.53 224.213 522.684 216.733 525.47 208.52C528.257 200.16 530.457 191.653 532.07 183C533.684 174.347 534.49 166.06 534.49 158.14C532.29 157.26 529.724 156.6 526.79 156.16C523.857 155.72 520.704 155.5 517.33 155.5ZM622.018 92.8C627.444 92.6533 631.624 93.6067 634.558 95.66C637.491 97.5667 638.958 100.427 638.958 104.24C638.958 105.267 638.664 106.513 638.078 107.98C637.638 109.447 636.758 110.693 635.438 111.72C634.118 112.6 632.358 113.04 630.158 113.04C627.371 113.04 625.171 112.013 623.558 109.96C621.944 107.907 621.211 105.267 621.358 102.04C620.918 101.747 620.038 101.527 618.718 101.38C617.398 101.087 616.151 101.013 614.978 101.16C611.458 101.453 608.524 102.92 606.178 105.56C603.978 108.053 602.144 111.5 600.678 115.9C599.211 120.153 598.038 125.213 597.158 131.08C596.278 136.8 595.544 143.107 594.958 150H626.198L625.538 158.58L594.298 159.02C594.151 162.833 593.931 166.72 593.638 170.68C593.491 174.64 593.271 178.747 592.978 183C592.831 187.107 592.611 191.287 592.318 195.54C592.024 199.647 591.658 203.827 591.218 208.08C590.191 218.787 589.238 229.493 588.358 240.2C587.478 250.76 586.158 260.807 584.398 270.34C582.784 279.873 580.364 288.307 577.138 295.64C573.911 303.12 569.438 308.987 563.718 313.24C558.144 317.493 550.958 319.62 542.158 319.62C536.584 319.62 532.331 318.593 529.398 316.54C526.464 314.633 524.998 311.847 524.998 308.18C524.998 307.007 525.291 305.687 525.878 304.22C526.464 302.9 527.418 301.653 528.738 300.48C530.058 299.453 531.818 299.013 534.018 299.16C536.658 299.307 538.784 300.26 540.398 302.02C541.864 303.927 542.598 306.347 542.598 309.28C544.211 310.453 546.338 311.04 548.978 311.04C554.111 311.04 557.998 308.327 560.638 302.9C563.424 297.473 565.478 289.92 566.798 280.24C568.118 270.707 569.144 259.633 569.878 247.02C570.758 234.26 571.858 220.62 573.178 206.1C573.471 202.14 573.764 198.18 574.058 194.22C574.351 190.26 574.644 186.3 574.938 182.34C575.231 178.38 575.524 174.493 575.818 170.68C576.258 166.72 576.698 162.907 577.138 159.24L557.778 159.46L558.878 150H578.238C579.851 139.293 582.198 129.687 585.278 121.18C588.358 112.673 592.831 105.853 598.698 100.72C604.564 95.5867 612.338 92.9467 622.018 92.8ZM663.703 147.58C668.983 147.58 673.969 148.387 678.663 150C683.356 151.613 687.169 154.253 690.103 157.92C693.036 161.587 694.503 166.573 694.503 172.88C694.503 178.893 692.449 184.1 688.343 188.5C684.236 192.9 678.883 196.567 672.283 199.5C665.683 202.287 658.643 204.56 651.163 206.32C643.683 208.08 636.496 209.327 629.603 210.06C629.603 219.153 630.483 226.78 632.243 232.94C634.149 239.1 636.936 243.72 640.603 246.8C644.269 249.88 648.963 251.42 654.683 251.42C658.936 251.42 663.189 250.467 667.443 248.56C671.843 246.653 676.023 243.793 679.983 239.98C683.943 236.02 687.536 230.96 690.763 224.8L698.023 228.98C693.916 236.607 689.516 242.913 684.823 247.9C680.129 252.887 674.996 256.553 669.423 258.9C663.849 261.247 657.689 262.42 650.943 262.42C637.009 262.42 626.743 258.093 620.143 249.44C613.543 240.64 610.243 229.127 610.243 214.9C610.243 206.393 611.343 198.107 613.543 190.04C615.743 181.973 619.043 174.787 623.443 168.48C627.843 162.027 633.416 156.967 640.163 153.3C646.909 149.487 654.756 147.58 663.703 147.58ZM660.623 155.06C653.876 155.06 648.303 157.333 643.903 161.88C639.649 166.427 636.349 172.293 634.003 179.48C631.803 186.667 630.409 194.22 629.823 202.14C637.596 201.113 645.003 199.28 652.043 196.64C659.083 194 664.876 190.627 669.423 186.52C673.969 182.267 676.243 177.353 676.243 171.78C676.243 167.087 674.923 163.127 672.283 159.9C669.789 156.673 665.903 155.06 660.623 155.06ZM653.363 132.62L648.083 128.22L665.243 99.18C667.296 95.8067 669.276 93.7533 671.183 93.02C673.089 92.14 674.703 91.9933 676.023 92.58C677.489 93.02 678.443 93.46 678.883 93.9C679.469 94.4867 679.983 95.44 680.423 96.76C681.009 98.08 681.083 99.7667 680.643 101.82C680.203 103.873 678.663 106.293 676.023 109.08L653.363 132.62Z"></path>
</mask>
<path d="M417.234 91.37C426.694 91.37 435.164 93.13 442.644 96.65C450.124 99.95 455.954 104.57 460.134 110.51C464.534 116.23 466.734 122.72 466.734 129.98C466.734 134.82 465.524 138.78 463.104 141.86C460.684 144.72 457.274 146.15 452.874 146.15C447.594 146.37 443.854 144.83 441.654 141.53C439.674 138.23 438.684 135.37 438.684 132.95C438.684 130.97 438.904 128.88 439.344 126.68C440.004 124.48 441.214 122.39 442.974 120.41C441.874 114.25 438.794 109.85 433.734 107.21C428.894 104.35 423.284 102.92 416.904 102.92C407.444 102.92 399.524 105.45 393.144 110.51C386.764 115.57 381.704 122.17 377.964 130.31C374.224 138.45 371.474 147.25 369.714 156.71C368.174 165.95 367.404 174.97 367.404 183.77C367.404 199.17 369.054 211.6 372.354 221.06C375.874 230.3 380.714 237.01 386.874 241.19C393.034 245.37 399.964 247.46 407.664 247.46C413.384 247.46 419.324 246.25 425.484 243.83C431.644 241.19 437.584 236.9 443.304 230.96C449.024 224.8 453.974 216.44 458.154 205.88L469.704 211.49C464.204 224.25 457.824 234.48 450.564 242.18C443.304 249.66 435.494 255.16 427.134 258.68C418.994 261.98 410.634 263.63 402.054 263.63C382.694 263.63 367.184 257.8 355.524 246.14C344.084 234.26 338.364 216 338.364 191.36C338.364 180.58 339.904 169.36 342.984 157.7C346.064 146.04 350.794 135.26 357.174 125.36C363.554 115.24 371.694 107.1 381.594 100.94C391.714 94.56 403.594 91.37 417.234 91.37ZM524.15 147.58C528.55 147.58 533.39 147.947 538.67 148.68C543.95 149.267 548.937 150.147 553.63 151.32C552.457 160.12 551.284 168.92 550.11 177.72C549.084 186.373 548.057 194.66 547.03 202.58C546.15 210.353 545.417 217.393 544.83 223.7C544.244 229.86 543.95 234.7 543.95 238.22C543.95 241.153 544.17 244.087 544.61 247.02C545.05 249.953 546.884 251.42 550.11 251.42C552.604 251.42 555.317 249.807 558.25 246.58C561.33 243.353 563.97 237.853 566.17 230.08L572.33 231.4C571.89 234.04 570.937 237.12 569.47 240.64C568.15 244.013 566.317 247.387 563.97 250.76C561.624 254.133 558.764 256.92 555.39 259.12C552.017 261.32 548.13 262.42 543.73 262.42C537.864 262.42 533.684 260.587 531.19 256.92C528.697 253.253 527.45 248.487 527.45 242.62C527.45 238.367 527.817 233.747 528.55 228.76C529.43 223.773 530.384 218.567 531.41 213.14H530.75C527.23 223.993 523.564 232.72 519.75 239.32C516.084 245.773 512.344 250.687 508.53 254.06C504.864 257.433 501.27 259.633 497.75 260.66C494.23 261.833 490.93 262.42 487.85 262.42C479.93 262.42 473.257 259.487 467.83 253.62C462.55 247.753 459.91 237.927 459.91 224.14C459.91 213.873 461.23 204.12 463.87 194.88C466.51 185.64 470.47 177.5 475.75 170.46C481.177 163.273 487.924 157.7 495.99 153.74C504.057 149.633 513.444 147.58 524.15 147.58ZM517.33 155.5C510.73 155.5 504.937 157.333 499.95 161C495.11 164.667 491.077 169.653 487.85 175.96C484.624 182.12 482.204 189.087 480.59 196.86C479.124 204.487 478.39 212.333 478.39 220.4C478.39 229.787 479.417 237.56 481.47 243.72C483.524 249.733 487.264 252.74 492.69 252.74C496.65 252.74 500.61 250.76 504.57 246.8C508.677 242.84 512.49 237.56 516.01 230.96C519.53 224.213 522.684 216.733 525.47 208.52C528.257 200.16 530.457 191.653 532.07 183C533.684 174.347 534.49 166.06 534.49 158.14C532.29 157.26 529.724 156.6 526.79 156.16C523.857 155.72 520.704 155.5 517.33 155.5ZM622.018 92.8C627.444 92.6533 631.624 93.6067 634.558 95.66C637.491 97.5667 638.958 100.427 638.958 104.24C638.958 105.267 638.664 106.513 638.078 107.98C637.638 109.447 636.758 110.693 635.438 111.72C634.118 112.6 632.358 113.04 630.158 113.04C627.371 113.04 625.171 112.013 623.558 109.96C621.944 107.907 621.211 105.267 621.358 102.04C620.918 101.747 620.038 101.527 618.718 101.38C617.398 101.087 616.151 101.013 614.978 101.16C611.458 101.453 608.524 102.92 606.178 105.56C603.978 108.053 602.144 111.5 600.678 115.9C599.211 120.153 598.038 125.213 597.158 131.08C596.278 136.8 595.544 143.107 594.958 150H626.198L625.538 158.58L594.298 159.02C594.151 162.833 593.931 166.72 593.638 170.68C593.491 174.64 593.271 178.747 592.978 183C592.831 187.107 592.611 191.287 592.318 195.54C592.024 199.647 591.658 203.827 591.218 208.08C590.191 218.787 589.238 229.493 588.358 240.2C587.478 250.76 586.158 260.807 584.398 270.34C582.784 279.873 580.364 288.307 577.138 295.64C573.911 303.12 569.438 308.987 563.718 313.24C558.144 317.493 550.958 319.62 542.158 319.62C536.584 319.62 532.331 318.593 529.398 316.54C526.464 314.633 524.998 311.847 524.998 308.18C524.998 307.007 525.291 305.687 525.878 304.22C526.464 302.9 527.418 301.653 528.738 300.48C530.058 299.453 531.818 299.013 534.018 299.16C536.658 299.307 538.784 300.26 540.398 302.02C541.864 303.927 542.598 306.347 542.598 309.28C544.211 310.453 546.338 311.04 548.978 311.04C554.111 311.04 557.998 308.327 560.638 302.9C563.424 297.473 565.478 289.92 566.798 280.24C568.118 270.707 569.144 259.633 569.878 247.02C570.758 234.26 571.858 220.62 573.178 206.1C573.471 202.14 573.764 198.18 574.058 194.22C574.351 190.26 574.644 186.3 574.938 182.34C575.231 178.38 575.524 174.493 575.818 170.68C576.258 166.72 576.698 162.907 577.138 159.24L557.778 159.46L558.878 150H578.238C579.851 139.293 582.198 129.687 585.278 121.18C588.358 112.673 592.831 105.853 598.698 100.72C604.564 95.5867 612.338 92.9467 622.018 92.8ZM663.703 147.58C668.983 147.58 673.969 148.387 678.663 150C683.356 151.613 687.169 154.253 690.103 157.92C693.036 161.587 694.503 166.573 694.503 172.88C694.503 178.893 692.449 184.1 688.343 188.5C684.236 192.9 678.883 196.567 672.283 199.5C665.683 202.287 658.643 204.56 651.163 206.32C643.683 208.08 636.496 209.327 629.603 210.06C629.603 219.153 630.483 226.78 632.243 232.94C634.149 239.1 636.936 243.72 640.603 246.8C644.269 249.88 648.963 251.42 654.683 251.42C658.936 251.42 663.189 250.467 667.443 248.56C671.843 246.653 676.023 243.793 679.983 239.98C683.943 236.02 687.536 230.96 690.763 224.8L698.023 228.98C693.916 236.607 689.516 242.913 684.823 247.9C680.129 252.887 674.996 256.553 669.423 258.9C663.849 261.247 657.689 262.42 650.943 262.42C637.009 262.42 626.743 258.093 620.143 249.44C613.543 240.64 610.243 229.127 610.243 214.9C610.243 206.393 611.343 198.107 613.543 190.04C615.743 181.973 619.043 174.787 623.443 168.48C627.843 162.027 633.416 156.967 640.163 153.3C646.909 149.487 654.756 147.58 663.703 147.58ZM660.623 155.06C653.876 155.06 648.303 157.333 643.903 161.88C639.649 166.427 636.349 172.293 634.003 179.48C631.803 186.667 630.409 194.22 629.823 202.14C637.596 201.113 645.003 199.28 652.043 196.64C659.083 194 664.876 190.627 669.423 186.52C673.969 182.267 676.243 177.353 676.243 171.78C676.243 167.087 674.923 163.127 672.283 159.9C669.789 156.673 665.903 155.06 660.623 155.06ZM653.363 132.62L648.083 128.22L665.243 99.18C667.296 95.8067 669.276 93.7533 671.183 93.02C673.089 92.14 674.703 91.9933 676.023 92.58C677.489 93.02 678.443 93.46 678.883 93.9C679.469 94.4867 679.983 95.44 680.423 96.76C681.009 98.08 681.083 99.7667 680.643 101.82C680.203 103.873 678.663 106.293 676.023 109.08L653.363 132.62Z" fill="#2D2110"></path>
<path d="M442.644 96.65L440.941 100.269L440.985 100.29L441.029 100.31L442.644 96.65ZM460.134 110.51L456.863 112.812L456.911 112.881L456.963 112.949L460.134 110.51ZM463.104 141.86L466.157 144.444L466.204 144.388L466.249 144.331L463.104 141.86ZM452.874 146.15V142.15H452.79L452.707 142.153L452.874 146.15ZM441.654 141.53L438.224 143.588L438.273 143.67L438.326 143.749L441.654 141.53ZM439.344 126.68L435.512 125.531L435.458 125.711L435.421 125.896L439.344 126.68ZM442.974 120.41L445.963 123.067L447.253 121.617L446.911 119.707L442.974 120.41ZM433.734 107.21L431.699 110.654L431.79 110.707L431.884 110.756L433.734 107.21ZM369.714 156.71L365.781 155.978L365.774 156.015L365.768 156.052L369.714 156.71ZM372.354 221.06L368.577 222.377L368.596 222.431L368.616 222.484L372.354 221.06ZM386.874 241.19L384.628 244.5L384.628 244.5L386.874 241.19ZM425.484 243.83L426.946 247.553L427.003 247.531L427.059 247.507L425.484 243.83ZM443.304 230.96L446.185 233.735L446.21 233.708L446.235 233.682L443.304 230.96ZM458.154 205.88L459.901 202.282L456.022 200.398L454.435 204.408L458.154 205.88ZM469.704 211.49L473.377 213.073L474.89 209.562L471.451 207.892L469.704 211.49ZM450.564 242.18L453.434 244.966L453.454 244.945L453.474 244.924L450.564 242.18ZM427.134 258.68L428.637 262.387L428.661 262.377L428.686 262.367L427.134 258.68ZM355.524 246.14L352.642 248.915L352.669 248.942L352.695 248.968L355.524 246.14ZM342.984 157.7L346.851 158.722L346.851 158.722L342.984 157.7ZM357.174 125.36L360.536 127.527L360.547 127.51L360.557 127.493L357.174 125.36ZM381.594 100.94L383.707 104.336L383.717 104.33L383.727 104.324L381.594 100.94ZM417.234 95.37C426.19 95.37 434.065 97.0338 440.941 100.269L444.347 93.0307C436.262 89.2262 427.198 87.37 417.234 87.37V95.37ZM441.029 100.31C447.929 103.354 453.152 107.539 456.863 112.812L463.405 108.208C458.756 101.601 452.318 96.5461 444.258 92.9903L441.029 100.31ZM456.963 112.949C460.822 117.965 462.734 123.596 462.734 129.98H470.734C470.734 121.844 468.246 114.495 463.304 108.071L456.963 112.949ZM462.734 129.98C462.734 134.14 461.704 137.167 459.959 139.389L466.249 144.331C469.343 140.393 470.734 135.5 470.734 129.98H462.734ZM460.05 139.276C458.526 141.078 456.325 142.15 452.874 142.15V150.15C458.223 150.15 462.842 148.362 466.157 144.444L460.05 139.276ZM452.707 142.153C448.3 142.337 446.155 141.071 444.982 139.311L438.326 143.749C441.552 148.589 446.888 150.403 453.04 150.147L452.707 142.153ZM445.084 139.472C443.277 136.461 442.684 134.336 442.684 132.95H434.684C434.684 136.404 436.071 139.999 438.224 143.588L445.084 139.472ZM442.684 132.95C442.684 131.265 442.871 129.44 443.266 127.464L435.421 125.896C434.936 128.32 434.684 130.675 434.684 132.95H442.684ZM443.175 127.829C443.644 126.267 444.531 124.679 445.963 123.067L439.984 117.753C437.896 120.101 436.364 122.693 435.512 125.531L443.175 127.829ZM446.911 119.707C445.618 112.462 441.859 106.938 435.584 103.664L431.884 110.756C435.729 112.762 438.13 116.038 439.036 121.113L446.911 119.707ZM435.769 103.766C430.233 100.495 423.901 98.92 416.904 98.92V106.92C422.666 106.92 427.555 108.205 431.699 110.654L435.769 103.766ZM416.904 98.92C406.694 98.92 397.856 101.667 390.658 107.376L395.629 113.644C401.191 109.233 408.194 106.92 416.904 106.92V98.92ZM390.658 107.376C383.738 112.865 378.305 119.987 374.329 128.64L381.598 131.98C385.103 124.353 389.79 118.275 395.629 113.644L390.658 107.376ZM374.329 128.64C370.442 137.101 367.597 146.218 365.781 155.978L373.646 157.442C375.35 148.282 378.006 139.799 381.598 131.98L374.329 128.64ZM365.768 156.052C364.194 165.496 363.404 174.736 363.404 183.77H371.404C371.404 175.204 372.153 166.404 373.659 157.368L365.768 156.052ZM363.404 183.77C363.404 199.404 365.072 212.33 368.577 222.377L376.131 219.743C373.035 210.87 371.404 198.936 371.404 183.77H363.404ZM368.616 222.484C372.333 232.242 377.598 239.73 384.628 244.5L389.12 237.88C383.83 234.29 379.414 228.358 376.092 219.636L368.616 222.484ZM384.628 244.5C391.474 249.146 399.192 251.46 407.664 251.46V243.46C400.735 243.46 394.593 241.594 389.12 237.88L384.628 244.5ZM407.664 251.46C413.956 251.46 420.393 250.128 426.946 247.553L424.021 240.107C418.255 242.372 412.811 243.46 407.664 243.46V251.46ZM427.059 247.507C433.81 244.614 440.177 239.973 446.185 233.735L440.423 228.185C434.99 233.827 429.478 237.766 423.908 240.153L427.059 247.507ZM446.235 233.682C452.389 227.055 457.57 218.222 461.873 207.352L454.435 204.408C450.377 214.658 445.659 222.545 440.373 228.238L446.235 233.682ZM456.406 209.478L467.956 215.088L471.451 207.892L459.901 202.282L456.406 209.478ZM466.03 209.907C460.661 222.365 454.511 232.163 447.653 239.436L453.474 244.924C461.137 236.797 467.747 226.135 473.377 213.073L466.03 209.907ZM447.693 239.394C440.752 246.545 433.378 251.711 425.582 254.993L428.686 262.367C437.61 258.609 445.855 252.775 453.434 244.966L447.693 239.394ZM425.631 254.973C417.957 258.084 410.106 259.63 402.054 259.63V267.63C411.161 267.63 420.031 265.876 428.637 262.387L425.631 254.973ZM402.054 259.63C383.556 259.63 369.132 254.092 358.352 243.312L352.695 248.968C365.235 261.508 381.832 267.63 402.054 267.63V259.63ZM358.405 243.365C347.969 232.528 342.364 215.468 342.364 191.36H334.364C334.364 216.532 340.199 235.992 352.642 248.915L358.405 243.365ZM342.364 191.36C342.364 180.963 343.849 170.087 346.851 158.722L339.116 156.678C335.959 168.633 334.364 180.197 334.364 191.36H342.364ZM346.851 158.722C349.827 147.458 354.389 137.065 360.536 127.527L353.811 123.193C347.199 133.455 342.301 144.622 339.116 156.678L346.851 158.722ZM360.557 127.493C366.624 117.871 374.334 110.168 383.707 104.336L379.481 97.5438C369.053 104.032 360.484 112.609 353.79 123.227L360.557 127.493ZM383.727 104.324C393.122 98.4005 404.24 95.37 417.234 95.37V87.37C402.947 87.37 390.305 90.7195 379.461 97.5563L383.727 104.324ZM538.67 148.68L538.12 152.642L538.174 152.649L538.229 152.656L538.67 148.68ZM553.63 151.32L557.595 151.849L558.068 148.306L554.6 147.439L553.63 151.32ZM550.11 177.72L546.145 177.191L546.142 177.22L546.138 177.249L550.11 177.72ZM547.03 202.58L543.064 202.066L543.059 202.098L543.056 202.13L547.03 202.58ZM544.83 223.7L548.812 224.079L548.813 224.07L544.83 223.7ZM544.61 247.02L548.566 246.427L548.566 246.427L544.61 247.02ZM558.25 246.58L555.357 243.818L555.323 243.853L555.291 243.889L558.25 246.58ZM566.17 230.08L567.008 226.169L563.342 225.383L562.322 228.991L566.17 230.08ZM572.33 231.4L576.276 232.058L576.904 228.289L573.168 227.489L572.33 231.4ZM569.47 240.64L565.778 239.102L565.761 239.142L565.745 239.182L569.47 240.64ZM563.97 250.76L567.254 253.044L567.254 253.044L563.97 250.76ZM531.19 256.92L534.498 254.671L534.498 254.671L531.19 256.92ZM528.55 228.76L524.611 228.065L524.601 228.121L524.593 228.178L528.55 228.76ZM531.41 213.14L535.341 213.884L536.238 209.14H531.41V213.14ZM530.75 213.14V209.14H527.843L526.945 211.906L530.75 213.14ZM519.75 239.32L516.287 237.319L516.28 237.331L516.273 237.344L519.75 239.32ZM508.53 254.06L505.88 251.064L505.851 251.09L505.822 251.116L508.53 254.06ZM497.75 260.66L496.63 256.82L496.557 256.841L496.485 256.865L497.75 260.66ZM467.83 253.62L464.857 256.296L464.875 256.316L464.894 256.336L467.83 253.62ZM463.87 194.88L467.716 195.979L467.716 195.979L463.87 194.88ZM475.75 170.46L472.558 168.05L472.55 168.06L475.75 170.46ZM495.99 153.74L497.753 157.331L497.779 157.318L497.805 157.305L495.99 153.74ZM499.95 161L497.581 157.777L497.558 157.794L497.535 157.812L499.95 161ZM487.85 175.96L491.394 177.816L491.403 177.799L491.411 177.782L487.85 175.96ZM480.59 196.86L476.674 196.047L476.668 196.076L476.662 196.105L480.59 196.86ZM481.47 243.72L477.676 244.985L477.68 244.999L477.685 245.013L481.47 243.72ZM504.57 246.8L501.794 243.921L501.768 243.946L501.742 243.972L504.57 246.8ZM516.01 230.96L519.54 232.842L519.548 232.826L519.557 232.81L516.01 230.96ZM525.47 208.52L529.258 209.805L529.262 209.795L529.265 209.785L525.47 208.52ZM532.07 183L528.138 182.267L528.138 182.267L532.07 183ZM534.49 158.14H538.49V155.432L535.976 154.426L534.49 158.14ZM526.79 156.16L527.384 152.204L527.384 152.204L526.79 156.16ZM524.15 151.58C528.333 151.58 532.986 151.929 538.12 152.642L539.221 144.718C533.795 143.964 528.768 143.58 524.15 143.58V151.58ZM538.229 152.656C543.348 153.224 548.157 154.075 552.66 155.201L554.6 147.439C549.717 146.219 544.553 145.309 539.112 144.704L538.229 152.656ZM549.665 150.791C548.492 159.591 547.319 168.391 546.145 177.191L554.075 178.249C555.249 169.449 556.422 160.649 557.595 151.849L549.665 150.791ZM546.138 177.249C545.113 185.889 544.088 194.161 543.064 202.066L550.997 203.094C552.026 195.159 553.054 186.858 554.082 178.191L546.138 177.249ZM543.056 202.13C542.173 209.924 541.437 216.991 540.848 223.33L548.813 224.07C549.397 217.796 550.127 210.783 551.005 203.03L543.056 202.13ZM540.848 223.321C540.257 229.528 539.95 234.513 539.95 238.22H547.95C547.95 234.887 548.23 230.192 548.812 224.079L540.848 223.321ZM539.95 238.22C539.95 241.354 540.185 244.486 540.655 247.613L548.566 246.427C548.155 243.688 547.95 240.953 547.95 238.22H539.95ZM540.655 247.613C540.983 249.804 541.921 251.927 543.817 253.443C545.667 254.924 547.925 255.42 550.11 255.42V247.42C549.599 247.42 549.265 247.361 549.065 247.303C548.876 247.248 548.815 247.197 548.814 247.197C548.81 247.194 548.807 247.191 548.801 247.184C548.795 247.176 548.779 247.154 548.755 247.109C548.708 247.017 548.624 246.81 548.566 246.427L540.655 247.613ZM550.11 255.42C554.334 255.42 558.052 252.745 561.21 249.271L555.291 243.889C552.582 246.869 550.874 247.42 550.11 247.42V255.42ZM561.144 249.342C564.906 245.401 567.764 239.138 570.019 231.169L562.322 228.991C560.177 236.569 557.755 241.306 555.357 243.818L561.144 249.342ZM565.332 233.991L571.492 235.311L573.168 227.489L567.008 226.169L565.332 233.991ZM568.385 230.742C568.011 232.982 567.172 235.756 565.778 239.102L573.163 242.178C574.702 238.484 575.769 235.098 576.276 232.058L568.385 230.742ZM565.745 239.182C564.554 242.228 562.878 245.326 560.687 248.476L567.254 253.044C569.756 249.447 571.747 245.799 573.195 242.098L565.745 239.182ZM560.687 248.476C558.628 251.435 556.138 253.857 553.205 255.77L557.575 262.47C561.389 259.983 564.619 256.832 567.254 253.044L560.687 248.476ZM553.205 255.77C550.542 257.507 547.429 258.42 543.73 258.42V266.42C548.832 266.42 553.492 265.133 557.575 262.47L553.205 255.77ZM543.73 258.42C538.714 258.42 536.015 256.901 534.498 254.671L527.883 259.169C531.352 264.272 537.013 266.42 543.73 266.42V258.42ZM534.498 254.671C532.581 251.851 531.45 247.94 531.45 242.62H523.45C523.45 249.034 524.813 254.656 527.883 259.169L534.498 254.671ZM531.45 242.62C531.45 238.593 531.798 234.17 532.508 229.342L524.593 228.178C523.836 233.323 523.45 238.14 523.45 242.62H531.45ZM532.489 229.455C533.366 224.486 534.317 219.296 535.341 213.884L527.48 212.396C526.451 217.838 525.494 223.061 524.611 228.065L532.489 229.455ZM531.41 209.14H530.75V217.14H531.41V209.14ZM526.945 211.906C523.474 222.61 519.909 231.05 516.287 237.319L523.214 241.321C527.218 234.39 530.987 225.377 534.555 214.374L526.945 211.906ZM516.273 237.344C512.733 243.573 509.249 248.083 505.88 251.064L511.181 257.056C515.438 253.29 519.434 247.973 523.228 241.296L516.273 237.344ZM505.822 251.116C502.454 254.215 499.386 256.016 496.63 256.82L498.87 264.5C503.155 263.25 507.273 260.652 511.239 257.004L505.822 251.116ZM496.485 256.865C493.292 257.93 490.423 258.42 487.85 258.42V266.42C491.438 266.42 495.168 265.737 499.015 264.455L496.485 256.865ZM487.85 258.42C481.057 258.42 475.444 255.96 470.767 250.904L464.894 256.336C471.07 263.013 478.804 266.42 487.85 266.42V258.42ZM470.804 250.944C466.527 246.193 463.91 237.612 463.91 224.14H455.91C455.91 238.242 458.573 249.314 464.857 256.296L470.804 250.944ZM463.91 224.14C463.91 214.22 465.185 204.838 467.716 195.979L460.024 193.781C457.275 203.402 455.91 213.527 455.91 224.14H463.91ZM467.716 195.979C470.235 187.165 473.989 179.475 478.95 172.86L472.55 168.06C466.952 175.525 462.786 184.115 460.024 193.781L467.716 195.979ZM478.942 172.87C483.993 166.183 490.25 161.014 497.753 157.331L494.228 150.149C485.597 154.386 478.361 160.364 472.558 168.05L478.942 172.87ZM497.805 157.305C505.216 153.532 513.96 151.58 524.15 151.58V143.58C512.928 143.58 502.898 145.735 494.176 150.175L497.805 157.305ZM517.33 151.5C509.938 151.5 503.301 153.571 497.581 157.777L502.32 164.223C506.573 161.095 511.523 159.5 517.33 159.5V151.5ZM497.535 157.812C492.141 161.898 487.745 167.384 484.289 174.138L491.411 177.782C494.409 171.922 498.079 167.436 502.366 164.188L497.535 157.812ZM484.307 174.104C480.886 180.635 478.352 187.961 476.674 196.047L484.507 197.673C486.055 190.212 488.362 183.605 491.394 177.816L484.307 174.104ZM476.662 196.105C475.146 203.99 474.39 212.09 474.39 220.4H482.39C482.39 212.577 483.101 204.984 484.518 197.615L476.662 196.105ZM474.39 220.4C474.39 230.042 475.44 238.279 477.676 244.985L485.265 242.455C483.394 236.841 482.39 229.531 482.39 220.4H474.39ZM477.685 245.013C478.879 248.509 480.686 251.493 483.309 253.603C485.982 255.751 489.191 256.74 492.69 256.74V248.74C490.763 248.74 489.389 248.225 488.322 247.367C487.205 246.47 486.115 244.944 485.256 242.427L477.685 245.013ZM492.69 256.74C498.085 256.74 503.003 254.024 507.399 249.628L501.742 243.972C498.218 247.496 495.215 248.74 492.69 248.74V256.74ZM507.347 249.679C511.832 245.354 515.88 239.704 519.54 232.842L512.481 229.078C509.1 235.416 505.522 240.326 501.794 243.921L507.347 249.679ZM519.557 232.81C523.184 225.859 526.415 218.186 529.258 209.805L521.682 207.235C518.953 215.28 515.877 222.568 512.464 229.11L519.557 232.81ZM529.265 209.785C532.11 201.251 534.356 192.567 536.003 183.733L528.138 182.267C526.558 190.74 524.404 199.069 521.676 207.255L529.265 209.785ZM536.003 183.733C537.656 174.864 538.49 166.331 538.49 158.14H530.49C530.49 165.789 529.711 173.829 528.138 182.267L536.003 183.733ZM535.976 154.426C533.428 153.407 530.55 152.679 527.384 152.204L526.197 160.116C528.897 160.521 531.153 161.113 533.005 161.854L535.976 154.426ZM527.384 152.204C524.229 151.731 520.876 151.5 517.33 151.5V159.5C520.531 159.5 523.485 159.709 526.197 160.116L527.384 152.204ZM622.018 92.8L622.078 96.7995L622.102 96.7992L622.126 96.7985L622.018 92.8ZM634.558 95.66L632.264 98.9369L632.32 98.9763L632.378 99.0138L634.558 95.66ZM638.078 107.98L634.364 106.494L634.298 106.66L634.246 106.831L638.078 107.98ZM635.438 111.72L637.656 115.048L637.778 114.967L637.893 114.877L635.438 111.72ZM621.358 102.04L625.354 102.222L625.456 99.9649L623.576 98.7118L621.358 102.04ZM618.718 101.38L617.85 105.285L618.061 105.332L618.276 105.356L618.718 101.38ZM614.978 101.16L615.31 105.146L615.392 105.139L615.474 105.129L614.978 101.16ZM606.178 105.56L603.188 102.903L603.183 102.908L603.178 102.914L606.178 105.56ZM600.678 115.9L604.459 117.204L604.466 117.184L604.472 117.165L600.678 115.9ZM597.158 131.08L601.111 131.688L601.112 131.681L601.113 131.673L597.158 131.08ZM594.958 150L590.972 149.661L590.603 154H594.958V150ZM626.198 150L630.186 150.307L630.517 146H626.198V150ZM625.538 158.58L625.594 162.58L629.246 162.528L629.526 158.887L625.538 158.58ZM594.298 159.02L594.241 155.02L590.447 155.074L590.301 158.866L594.298 159.02ZM593.638 170.68L589.649 170.385L589.643 170.458L589.64 170.532L593.638 170.68ZM592.978 183L588.987 182.725L588.983 182.791L588.98 182.857L592.978 183ZM592.318 195.54L596.308 195.825L596.308 195.815L592.318 195.54ZM591.218 208.08L587.239 207.668L587.237 207.683L587.236 207.698L591.218 208.08ZM588.358 240.2L592.344 240.532L592.344 240.528L588.358 240.2ZM584.398 270.34L580.464 269.614L580.459 269.643L580.454 269.673L584.398 270.34ZM577.138 295.64L573.476 294.029L573.471 294.042L573.465 294.056L577.138 295.64ZM563.718 313.24L561.331 310.03L561.311 310.045L561.291 310.06L563.718 313.24ZM529.398 316.54L531.692 313.263L531.635 313.224L531.578 313.186L529.398 316.54ZM525.878 304.22L522.222 302.595L522.192 302.664L522.164 302.734L525.878 304.22ZM528.738 300.48L526.282 297.323L526.178 297.403L526.08 297.49L528.738 300.48ZM534.018 299.16L533.752 303.151L533.774 303.153L533.796 303.154L534.018 299.16ZM540.398 302.02L543.568 299.581L543.463 299.444L543.346 299.317L540.398 302.02ZM542.598 309.28H538.598V311.317L540.245 312.515L542.598 309.28ZM560.638 302.9L557.079 301.073L557.06 301.111L557.041 301.15L560.638 302.9ZM566.798 280.24L562.835 279.691L562.834 279.7L566.798 280.24ZM569.878 247.02L565.887 246.745L565.886 246.766L565.884 246.788L569.878 247.02ZM573.178 206.1L577.161 206.462L577.164 206.429L577.167 206.395L573.178 206.1ZM574.058 194.22L578.047 194.515L578.047 194.515L574.058 194.22ZM574.938 182.34L578.927 182.635L578.927 182.635L574.938 182.34ZM575.818 170.68L571.842 170.238L571.835 170.306L571.829 170.373L575.818 170.68ZM577.138 159.24L581.109 159.717L581.653 155.188L577.092 155.24L577.138 159.24ZM557.778 159.46L553.804 158.998L553.28 163.511L557.823 163.46L557.778 159.46ZM558.878 150V146H555.316L554.904 149.538L558.878 150ZM578.238 150V154H581.68L582.193 150.596L578.238 150ZM585.278 121.18L581.517 119.818L581.517 119.818L585.278 121.18ZM598.698 100.72L601.332 103.73L601.332 103.73L598.698 100.72ZM622.126 96.7985C627.113 96.6637 630.312 97.5707 632.264 98.9369L636.852 92.3831C632.937 89.6426 627.775 88.6429 621.91 88.8014L622.126 96.7985ZM632.378 99.0138C634.06 100.107 634.958 101.636 634.958 104.24H642.958C642.958 99.2175 640.922 95.0263 636.738 92.3062L632.378 99.0138ZM634.958 104.24C634.958 104.56 634.853 105.273 634.364 106.494L641.792 109.466C642.476 107.754 642.958 105.974 642.958 104.24H634.958ZM634.246 106.831C634.067 107.428 633.709 107.997 632.982 108.563L637.893 114.877C639.806 113.39 641.208 111.466 641.909 109.129L634.246 106.831ZM633.219 108.392C632.765 108.695 631.863 109.04 630.158 109.04V117.04C632.852 117.04 635.471 116.505 637.656 115.048L633.219 108.392ZM630.158 109.04C628.503 109.04 627.501 108.504 626.703 107.489L620.412 112.431C622.841 115.522 626.239 117.04 630.158 117.04V109.04ZM626.703 107.489C625.813 106.356 625.24 104.726 625.354 102.222L617.362 101.858C617.182 105.807 618.076 109.458 620.412 112.431L626.703 107.489ZM623.576 98.7118C622.797 98.1919 621.952 97.9279 621.338 97.7744C620.664 97.6061 619.924 97.4894 619.159 97.4045L618.276 105.356C618.832 105.417 619.191 105.484 619.398 105.536C619.497 105.561 619.523 105.573 619.495 105.562C619.475 105.554 619.335 105.499 619.139 105.368L623.576 98.7118ZM619.585 97.4753C617.881 97.0965 616.17 96.9798 614.482 97.1909L615.474 105.129C616.132 105.047 616.914 105.077 617.85 105.285L619.585 97.4753ZM614.645 97.1738C610.102 97.5524 606.217 99.4949 603.188 102.903L609.167 108.217C610.832 106.345 612.813 105.354 615.31 105.146L614.645 97.1738ZM603.178 102.914C600.512 105.935 598.457 109.913 596.883 114.635L604.472 117.165C605.832 113.087 607.443 110.172 609.177 108.206L603.178 102.914ZM596.896 114.596C595.329 119.14 594.107 124.45 593.202 130.487L601.113 131.673C601.968 125.977 603.093 121.167 604.459 117.204L596.896 114.596ZM593.204 130.472C592.308 136.296 591.565 142.694 590.972 149.661L598.943 150.339C599.524 143.519 600.247 137.304 601.111 131.688L593.204 130.472ZM594.958 154H626.198V146H594.958V154ZM622.209 149.693L621.549 158.273L629.526 158.887L630.186 150.307L622.209 149.693ZM625.481 154.58L594.241 155.02L594.354 163.02L625.594 162.58L625.481 154.58ZM590.301 158.866C590.156 162.63 589.939 166.47 589.649 170.385L597.627 170.975C597.923 166.97 598.146 163.036 598.295 159.174L590.301 158.866ZM589.64 170.532C589.495 174.446 589.278 178.511 588.987 182.725L596.968 183.275C597.264 178.983 597.487 174.834 597.635 170.828L589.64 170.532ZM588.98 182.857C588.835 186.918 588.618 191.054 588.327 195.265L596.308 195.815C596.604 191.519 596.827 187.295 596.975 183.143L588.98 182.857ZM588.328 195.255C588.038 199.318 587.675 203.456 587.239 207.668L595.196 208.492C595.641 204.198 596.011 199.975 596.308 195.825L588.328 195.255ZM587.236 207.698C586.208 218.423 585.253 229.148 584.371 239.872L592.344 240.528C593.223 229.839 594.174 219.15 595.199 208.462L587.236 207.698ZM584.371 239.868C583.502 250.308 582.198 260.222 580.464 269.614L588.331 271.066C590.117 261.391 591.454 251.212 592.344 240.532L584.371 239.868ZM580.454 269.673C578.885 278.945 576.546 287.052 573.476 294.029L580.799 297.251C584.182 289.561 586.684 280.801 588.342 271.007L580.454 269.673ZM573.465 294.056C570.476 300.984 566.41 306.253 561.331 310.03L566.104 316.45C572.465 311.72 577.346 305.256 580.811 297.224L573.465 294.056ZM561.291 310.06C556.576 313.658 550.308 315.62 542.158 315.62V323.62C551.607 323.62 559.713 321.328 566.144 316.42L561.291 310.06ZM542.158 315.62C536.981 315.62 533.673 314.65 531.692 313.263L527.104 319.817C530.989 322.537 536.188 323.62 542.158 323.62V315.62ZM531.578 313.186C529.843 312.059 528.998 310.571 528.998 308.18H520.998C520.998 313.122 523.085 317.208 527.218 319.894L531.578 313.186ZM528.998 308.18C528.998 307.658 529.132 306.854 529.592 305.706L522.164 302.734C521.45 304.52 520.998 306.355 520.998 308.18H528.998ZM529.533 305.845C529.842 305.148 530.408 304.347 531.395 303.47L526.08 297.49C524.427 298.96 523.086 300.652 522.222 302.595L529.533 305.845ZM531.193 303.637C531.52 303.383 532.213 303.049 533.752 303.151L534.284 295.169C531.423 294.978 528.595 295.523 526.282 297.323L531.193 303.637ZM533.796 303.154C535.516 303.249 536.62 303.818 537.449 304.723L543.346 299.317C540.949 296.702 537.8 295.364 534.24 295.166L533.796 303.154ZM537.227 304.459C538.046 305.524 538.598 307.03 538.598 309.28H546.598C546.598 305.663 545.682 302.33 543.568 299.581L537.227 304.459ZM540.245 312.515C542.733 314.324 545.764 315.04 548.978 315.04V307.04C546.912 307.04 545.689 306.582 544.95 306.045L540.245 312.515ZM548.978 315.04C552.292 315.04 555.361 314.15 558.032 312.285C560.667 310.445 562.696 307.812 564.235 304.65L557.041 301.15C555.939 303.414 554.705 304.851 553.453 305.725C552.237 306.574 550.797 307.04 548.978 307.04V315.04ZM564.196 304.727C567.276 298.729 569.412 290.673 570.761 280.78L562.834 279.7C561.543 289.167 559.573 296.217 557.079 301.073L564.196 304.727ZM570.76 280.789C572.098 271.124 573.133 259.941 573.871 247.252L565.884 246.788C565.155 259.326 564.137 270.29 562.835 279.691L570.76 280.789ZM573.868 247.295C574.746 234.568 575.844 220.957 577.161 206.462L569.194 205.738C567.872 220.283 566.769 233.952 565.887 246.745L573.868 247.295ZM577.167 206.395C577.46 202.435 577.753 198.475 578.047 194.515L570.069 193.925C569.775 197.885 569.482 201.845 569.189 205.805L577.167 206.395ZM578.047 194.515C578.34 190.555 578.633 186.595 578.927 182.635L570.949 182.045C570.655 186.005 570.362 189.965 570.069 193.925L578.047 194.515ZM578.927 182.635C579.22 178.679 579.513 174.796 579.806 170.987L571.829 170.373C571.536 174.19 571.242 178.081 570.949 182.045L578.927 182.635ZM579.793 171.122C580.232 167.172 580.671 163.371 581.109 159.717L573.166 158.763C572.725 162.443 572.283 166.268 571.842 170.238L579.793 171.122ZM577.092 155.24L557.732 155.46L557.823 163.46L577.183 163.24L577.092 155.24ZM561.751 159.922L562.851 150.462L554.904 149.538L553.804 158.998L561.751 159.922ZM558.878 154H578.238V146H558.878V154ZM582.193 150.596C583.774 140.101 586.064 130.757 589.039 122.542L581.517 119.818C578.331 128.616 575.928 138.486 574.282 149.404L582.193 150.596ZM589.039 122.542C591.926 114.568 596.05 108.351 601.332 103.73L596.064 97.7097C589.612 103.355 584.79 110.778 581.517 119.818L589.039 122.542ZM601.332 103.73C606.325 99.3613 613.109 96.9354 622.078 96.7995L621.957 88.8004C611.566 88.9579 602.804 91.812 596.064 97.7097L601.332 103.73ZM678.663 150L677.362 153.783L677.362 153.783L678.663 150ZM690.103 157.92L686.979 160.419L686.979 160.419L690.103 157.92ZM672.283 199.5L673.838 203.185L673.873 203.17L673.907 203.155L672.283 199.5ZM651.163 206.32L650.246 202.426L650.246 202.426L651.163 206.32ZM629.603 210.06L629.179 206.082L625.603 206.463V210.06H629.603ZM632.243 232.94L628.396 234.039L628.408 234.081L628.421 234.123L632.243 232.94ZM640.603 246.8L638.03 249.863L638.03 249.863L640.603 246.8ZM667.443 248.56L665.852 244.89L665.829 244.9L665.806 244.91L667.443 248.56ZM679.983 239.98L682.757 242.861L682.784 242.835L682.811 242.808L679.983 239.98ZM690.763 224.8L692.758 221.334L689.151 219.256L687.219 222.944L690.763 224.8ZM698.023 228.98L701.544 230.876L703.388 227.453L700.018 225.514L698.023 228.98ZM684.823 247.9L681.91 245.159L681.91 245.159L684.823 247.9ZM669.423 258.9L670.975 262.587L670.975 262.587L669.423 258.9ZM620.143 249.44L616.943 251.84L616.952 251.853L616.962 251.866L620.143 249.44ZM613.543 190.04L609.683 188.988L609.683 188.988L613.543 190.04ZM623.443 168.48L626.723 170.769L626.735 170.751L626.747 170.733L623.443 168.48ZM640.163 153.3L642.073 156.814L642.102 156.799L642.131 156.782L640.163 153.3ZM643.903 161.88L641.028 159.098L641.005 159.123L640.981 159.147L643.903 161.88ZM634.003 179.48L630.2 178.238L630.189 178.274L630.178 178.309L634.003 179.48ZM629.823 202.14L625.833 201.845L625.47 206.75L630.346 206.106L629.823 202.14ZM652.043 196.64L653.447 200.385L653.447 200.385L652.043 196.64ZM669.423 186.52L672.104 189.488L672.13 189.465L672.155 189.441L669.423 186.52ZM672.283 159.9L669.117 162.346L669.151 162.39L669.187 162.433L672.283 159.9ZM653.363 132.62L650.802 135.693L653.662 138.076L656.244 135.394L653.363 132.62ZM648.083 128.22L644.639 126.185L642.908 129.115L645.522 131.293L648.083 128.22ZM665.243 99.18L661.826 97.1002L661.812 97.1226L661.799 97.1451L665.243 99.18ZM671.183 93.02L672.618 96.7534L672.74 96.7065L672.859 96.6518L671.183 93.02ZM676.023 92.58L674.398 96.2352L674.63 96.3383L674.873 96.4113L676.023 92.58ZM678.883 93.9L681.711 91.0716L681.711 91.0715L678.883 93.9ZM680.423 96.76L676.628 98.0249L676.689 98.2081L676.767 98.3845L680.423 96.76ZM680.643 101.82L684.554 102.658L684.554 102.658L680.643 101.82ZM676.023 109.08L678.904 111.854L678.915 111.843L678.926 111.831L676.023 109.08ZM663.703 151.58C668.568 151.58 673.113 152.322 677.362 153.783L679.963 146.217C674.825 144.451 669.397 143.58 663.703 143.58V151.58ZM677.362 153.783C681.381 155.164 684.547 157.379 686.979 160.419L693.226 155.421C689.791 151.128 685.331 148.062 679.963 146.217L677.362 153.783ZM686.979 160.419C689.177 163.166 690.503 167.17 690.503 172.88H698.503C698.503 165.976 696.895 160.007 693.226 155.421L686.979 160.419ZM690.503 172.88C690.503 177.879 688.834 182.111 685.418 185.771L691.267 191.229C696.064 186.089 698.503 179.908 698.503 172.88H690.503ZM685.418 185.771C681.744 189.708 676.863 193.087 670.658 195.845L673.907 203.155C680.902 200.046 686.728 196.092 691.267 191.229L685.418 185.771ZM670.727 195.815C664.348 198.508 657.523 200.714 650.246 202.426L652.079 210.214C659.762 208.406 667.017 206.065 673.838 203.185L670.727 195.815ZM650.246 202.426C642.912 204.152 635.89 205.369 629.179 206.082L630.026 214.038C637.102 213.285 644.453 212.008 652.079 210.214L650.246 202.426ZM625.603 210.06C625.603 219.383 626.502 227.407 628.396 234.039L636.089 231.841C634.464 226.153 633.603 218.924 633.603 210.06H625.603ZM628.421 234.123C630.479 240.769 633.604 246.145 638.03 249.863L643.175 243.737C640.268 241.295 637.82 237.431 636.064 231.757L628.421 234.123ZM638.03 249.863C642.551 253.661 648.213 255.42 654.683 255.42V247.42C649.712 247.42 645.987 246.099 643.175 243.737L638.03 249.863ZM654.683 255.42C659.552 255.42 664.361 254.325 669.079 252.21L665.806 244.91C662.018 246.608 658.32 247.42 654.683 247.42V255.42ZM669.033 252.23C673.931 250.108 678.502 246.958 682.757 242.861L677.208 237.099C673.543 240.628 669.754 243.199 665.852 244.89L669.033 252.23ZM682.811 242.808C687.116 238.503 690.935 233.092 694.306 226.656L687.219 222.944C684.137 228.828 680.769 233.537 677.154 237.152L682.811 242.808ZM688.767 228.266L696.027 232.446L700.018 225.514L692.758 221.334L688.767 228.266ZM694.501 227.084C690.518 234.48 686.311 240.482 681.91 245.159L687.735 250.641C692.721 245.344 697.314 238.733 701.544 230.876L694.501 227.084ZM681.91 245.159C677.548 249.792 672.865 253.11 667.87 255.213L670.975 262.587C677.127 259.996 682.71 255.981 687.735 250.641L681.91 245.159ZM667.87 255.213C662.842 257.331 657.218 258.42 650.943 258.42V266.42C658.161 266.42 664.856 265.163 670.975 262.587L667.87 255.213ZM650.943 258.42C637.873 258.42 628.961 254.406 623.323 247.014L616.962 251.866C624.524 261.781 636.145 266.42 650.943 266.42V258.42ZM623.343 247.04C617.396 239.112 614.243 228.516 614.243 214.9H606.243C606.243 229.737 609.689 242.168 616.943 251.84L623.343 247.04ZM614.243 214.9C614.243 206.743 615.297 198.81 617.402 191.092L609.683 188.988C607.388 197.403 606.243 206.044 606.243 214.9H614.243ZM617.402 191.092C619.492 183.429 622.607 176.668 626.723 170.769L620.162 166.191C615.478 172.905 611.994 180.517 609.683 188.988L617.402 191.092ZM626.747 170.733C630.796 164.796 635.894 160.172 642.073 156.814L638.252 149.785C630.937 153.761 624.889 159.257 620.138 166.227L626.747 170.733ZM642.131 156.782C648.19 153.358 655.338 151.58 663.703 151.58V143.58C654.174 143.58 645.629 145.616 638.194 149.818L642.131 156.782ZM660.623 151.06C652.872 151.06 646.236 153.717 641.028 159.098L646.777 164.662C650.369 160.949 654.879 159.06 660.623 159.06V151.06ZM640.981 159.147C636.253 164.202 632.69 170.613 630.2 178.238L637.805 180.722C640.008 173.974 643.046 168.651 646.824 164.613L640.981 159.147ZM630.178 178.309C627.886 185.796 626.441 193.644 625.833 201.845L633.812 202.435C634.378 194.796 635.719 187.537 637.827 180.651L630.178 178.309ZM630.346 206.106C638.408 205.041 646.111 203.136 653.447 200.385L650.638 192.895C643.894 195.424 636.784 197.186 629.299 198.174L630.346 206.106ZM653.447 200.385C660.854 197.608 667.11 193.999 672.104 189.488L666.741 183.552C662.642 187.254 657.311 190.392 650.638 192.895L653.447 200.385ZM672.155 189.441C677.406 184.529 680.243 178.596 680.243 171.78H672.243C672.243 176.111 670.533 180.004 666.69 183.599L672.155 189.441ZM680.243 171.78C680.243 166.286 678.677 161.398 675.378 157.367L669.187 162.433C671.169 164.855 672.243 167.887 672.243 171.78H680.243ZM675.448 157.454C671.983 152.97 666.743 151.06 660.623 151.06V159.06C665.062 159.06 667.596 160.376 669.117 162.346L675.448 157.454ZM655.923 129.547L650.643 125.147L645.522 131.293L650.802 135.693L655.923 129.547ZM651.526 130.255L668.686 101.215L661.799 97.1451L644.639 126.185L651.526 130.255ZM668.659 101.26C670.619 98.0403 672.014 96.986 672.618 96.7534L669.747 89.2866C666.538 90.5206 663.973 93.573 661.826 97.1002L668.659 101.26ZM672.859 96.6518C674.205 96.0307 674.536 96.2964 674.398 96.2352L677.647 88.9247C674.869 87.6902 671.974 88.2493 669.506 89.3881L672.859 96.6518ZM674.873 96.4113C675.5 96.5994 675.913 96.7574 676.161 96.8718C676.282 96.9274 676.327 96.9564 676.32 96.952C676.319 96.9513 676.209 96.8829 676.054 96.7284L681.711 91.0715C681.005 90.3656 680.166 89.9092 679.514 89.6082C678.808 89.2826 678.012 89.0006 677.172 88.7487L674.873 96.4113ZM676.054 96.7284C676.003 96.6774 676.061 96.7192 676.186 96.9514C676.308 97.1782 676.461 97.5248 676.628 98.0249L684.217 95.4951C683.697 93.9349 682.938 92.2991 681.711 91.0716L676.054 96.7284ZM676.767 98.3845C676.886 98.6519 677.071 99.3959 676.731 100.982L684.554 102.658C685.094 100.137 685.132 97.5081 684.078 95.1354L676.767 98.3845ZM676.731 100.982C676.526 101.938 675.611 103.698 673.119 106.329L678.926 111.831C681.714 108.889 683.879 105.808 684.554 102.658L676.731 100.982ZM673.141 106.306L650.481 129.846L656.244 135.394L678.904 111.854L673.141 106.306Z" fill="#D6C5AE" mask="url('#path-1-outside-1_180_7')"></path>
</g>
<defs>
<clipPath id="clip0_180_7">
<rect width="1032" height="379" fill="white"></rect>
</clipPath>
</defs>
</svg>
